font.ufo
<glyph name="exclam" format="1">
	<unicode hex="0021"/>
	<advance width="292"/>
	<outline>
		<contour>
			<point x="127" y="208" type="line"/>
			<point x="171" y="208" type="line"/>
			<point x="285" y="507"/>
			<point x="309" y="580"/>
			<point x="310" y="621" type="curve" smooth="yes"/>
			<point x="310" y="657"/>
			<point x="289" y="680"/>
			<point x="248" y="680" type="curve" smooth="yes"/>
			<point x="206" y="680"/>
			<point x="172" y="661"/>
			<point x="158" y="598" type="curve" smooth="yes"/>
			<point x="151" y="567"/>
			<point x="144" y="487"/>
			<point x="136" y="354" type="curve" smooth="yes"/>
		</contour>
		<contour>
			<point x="48" y="54" type="curve" smooth="yes"/>
			<point x="48" y="17"/>
			<point x="76" y="-13"/>
			<point x="117" y="-13" type="curve" smooth="yes"/>
			<point x="161" y="-13"/>
			<point x="199" y="21"/>
			<point x="199" y="67" type="curve" smooth="yes"/>
			<point x="199" y="104"/>
			<point x="171" y="134"/>
			<point x="130" y="134" type="curve" smooth="yes"/>
			<point x="86" y="134"/>
			<point x="48" y="100"/>
		</contour>
	</outline>
</glyph>
<glyph name="ampersand" format="1">
	<unicode hex="0026"/>
	<advance width="719"/>
	<outline>
		<contour>
			<point x="358" y="161" type="curve"/>
			<point x="396" y="161"/>
			<point x="420" y="191"/>
			<point x="420" y="218" type="curve" smooth="yes"/>
			<point x="420" y="233"/>
			<point x="418" y="246"/>
			<point x="407" y="265" type="curve" smooth="yes"/>
			<point x="390" y="296" type="line"/>
			<point x="372" y="253" type="line"/>
			<point x="410" y="276"/>
			<point x="472" y="291"/>
			<point x="550" y="310" type="curve" smooth="yes"/>
			<point x="613" y="327"/>
			<point x="640" y="332"/>
			<point x="674" y="355" type="curve" smooth="yes"/>
			<point x="706" y="377"/>
			<point x="722" y="409"/>
			<point x="722" y="442" type="curve" smooth="yes"/>
			<point x="722" y="484"/>
			<point x="696" y="524"/>
			<point x="657" y="524" type="curve"/>
			<point x="622" y="521"/>
			<point x="597" y="501"/>
			<point x="597" y="468" type="curve" smooth="yes"/>
			<point x="597" y="438"/>
			<point x="615" y="415"/>
			<point x="631" y="401" type="curve" smooth="yes"/>
			<point x="659" y="378" type="line"/>
			<point x="686" y="429" type="line"/>
			<point x="644" y="394"/>
			<point x="599" y="377"/>
			<point x="531" y="360" type="curve" smooth="yes"/>
			<point x="484" y="348"/>
			<point x="439" y="340"/>
			<point x="405" y="331" type="curve" smooth="yes"/>
			<point x="337" y="314"/>
			<point x="306" y="283"/>
			<point x="305" y="235" type="curve" smooth="yes"/>
			<point x="304" y="191"/>
			<point x="327" y="165"/>
		</contour>
		<contour>
			<point x="217" y="437" type="curve"/>
			<point x="315" y="467" type="line"/>
			<point x="279" y="496"/>
			<point x="263" y="532"/>
			<point x="263" y="575" type="curve" smooth="yes"/>
			<point x="263" y="640"/>
			<point x="311" y="704"/>
			<point x="400" y="704" type="curve" smooth="yes"/>
			<point x="426" y="704"/>
			<point x="457" y="701"/>
			<point x="476" y="695" type="curve"/>
			<point x="401" y="727" type="line"/>
			<point x="432" y="638" type="line" smooth="yes"/>
			<point x="445" y="602"/>
			<point x="467" y="591"/>
			<point x="488" y="591" type="curve" smooth="yes"/>
			<point x="513" y="591"/>
			<point x="536" y="604"/>
			<point x="541" y="628" type="curve"/>
			<point x="531" y="703"/>
			<point x="474" y="743"/>
			<point x="391" y="743" type="curve" smooth="yes"/>
			<point x="257" y="743"/>
			<point x="172" y="652"/>
			<point x="172" y="545" type="curve" smooth="yes"/>
			<point x="172" y="507"/>
			<point x="189" y="463"/>
		</contour>
		<contour>
			<point x="38" y="207" type="curve" smooth="yes"/>
			<point x="38" y="87"/>
			<point x="128" y="-14"/>
			<point x="295" y="-14" type="curve" smooth="yes"/>
			<point x="473" y="-14"/>
			<point x="595" y="85"/>
			<point x="595" y="218" type="curve" smooth="yes"/>
			<point x="595" y="273"/>
			<point x="576" y="307"/>
			<point x="552" y="337" type="curve"/>
			<point x="503" y="328" type="line"/>
			<point x="526" y="297"/>
			<point x="539" y="268"/>
			<point x="539" y="220" type="curve" smooth="yes"/>
			<point x="539" y="152"/>
			<point x="462" y="84"/>
			<point x="337" y="84" type="curve" smooth="yes"/>
			<point x="217" y="84"/>
			<point x="144" y="150"/>
			<point x="144" y="265" type="curve" smooth="yes"/>
			<point x="144" y="344"/>
			<point x="185" y="397"/>
			<point x="250" y="441" type="curve"/>
			<point x="219" y="434" type="line"/>
			<point x="245" y="406"/>
			<point x="284" y="380"/>
			<point x="316" y="380" type="curve" smooth="yes"/>
			<point x="351" y="380"/>
			<point x="380" y="398"/>
			<point x="384" y="438" type="curve"/>
			<point x="379" y="464"/>
			<point x="349" y="485"/>
			<point x="303" y="485" type="curve" smooth="yes"/>
			<point x="200" y="485"/>
			<point x="38" y="380"/>
		</contour>
	</outline>
</glyph>
<glyph name="quotesingle" format="1">
	<unicode hex="0027"/>
	<advance width="268"/>
	<outline>
		<contour>
			<point x="243" y="730" type="curve" smooth="yes"/>
			<point x="207" y="730"/>
			<point x="183" y="713"/>
			<point x="174" y="664" type="curve" smooth="yes"/>
			<point x="167" y="622"/>
			<point x="167" y="533"/>
			<point x="167" y="504" type="curve" smooth="yes"/>
			<point x="167" y="414" type="line"/>
			<point x="210" y="414" type="line"/>
			<point x="257" y="531"/>
			<point x="296" y="631"/>
			<point x="297" y="675" type="curve" smooth="yes"/>
			<point x="297" y="708"/>
			<point x="277" y="730"/>
		</contour>
	</outline>
</glyph>
<glyph name="parenleft" format="1">
	<unicode hex="0028"/>
	<advance width="383"/>
	<outline>
		<contour>
			<point x="238" y="-200" type="curve"/>
			<point x="279" y="-172" type="line"/>
			<point x="216" y="-60"/>
			<point x="180" y="48"/>
			<point x="180" y="165" type="curve" smooth="yes"/>
			<point x="180" y="363"/>
			<point x="272" y="541"/>
			<point x="439" y="675" type="curve"/>
			<point x="410" y="713" type="line"/>
			<point x="193" y="579"/>
			<point x="83" y="386"/>
			<point x="83" y="177" type="curve" smooth="yes"/>
			<point x="83" y="26"/>
			<point x="146" y="-95"/>
		</contour>
	</outline>
</glyph>
<glyph name="comma" format="1">
	<unicode hex="002C"/>
	<advance width="300"/>
	<outline>
		<contour>
			<point x="-27" y="-193" type="line"/>
			<point x="96" y="-166"/>
			<point x="206" y="-51"/>
			<point x="206" y="71" type="curve" smooth="yes"/>
			<point x="206" y="85"/>
			<point x="205" y="96"/>
			<point x="203" y="110" type="curve"/>
			<point x="186" y="136"/>
			<point x="161" y="145"/>
			<point x="132" y="145" type="curve" smooth="yes"/>
			<point x="87" y="145"/>
			<point x="54" y="110"/>
			<point x="54" y="75" type="curve" smooth="yes"/>
			<point x="54" y="46"/>
			<point x="67" y="32"/>
			<point x="89" y="14" type="curve" smooth="yes"/>
			<point x="143" y="-30" type="line"/>
			<point x="132" y="-1" type="line"/>
			<point x="96" y="-79"/>
			<point x="42" y="-125"/>
			<point x="-38" y="-155" type="curve"/>
		</contour>
	</outline>
</glyph>
<glyph name="hyphen" format="1">
	<unicode hex="002D"/>
	<advance width="325"/>
	<outline>
		<contour>
			<point x="50" y="214" type="line"/>
			<point x="295" y="214" type="line"/>
			<point x="295" y="291" type="line"/>
			<point x="50" y="291" type="line"/>
		</contour>
	</outline>
</glyph>
<glyph name="period" format="1">
	<unicode hex="002E"/>
	<advance width="300"/>
	<outline>
		<contour>
			<point x="119" y="-13" type="curve" smooth="yes"/>
			<point x="167" y="-13"/>
			<point x="208" y="24"/>
			<point x="208" y="73" type="curve" smooth="yes"/>
			<point x="208" y="113"/>
			<point x="177" y="146"/>
			<point x="133" y="146" type="curve" smooth="yes"/>
			<point x="86" y="146"/>
			<point x="45" y="108"/>
			<point x="45" y="59" type="curve" smooth="yes"/>
			<point x="45" y="19"/>
			<point x="76" y="-13"/>
		</contour>
	</outline>
</glyph>
<glyph name="slash" format="1">
	<unicode hex="002F"/>
	<advance width="357"/>
	<outline>
		<contour>
			<point x="-66" y="-160" type="line"/>
			<point x="21" y="-160" type="line"/>
			<point x="466" y="710" type="line"/>
			<point x="379" y="710" type="line"/>
		</contour>
	</outline>
</glyph>
<glyph name="one" format="1">
	<unicode hex="0031"/>
	<advance width="520"/>
	<outline>
		<contour>
			<point x="61" y="0" type="line"/>
			<point x="411" y="0" type="line"/>
			<point x="419" y="41" type="line"/>
			<point x="268" y="61" type="line"/>
			<point x="224" y="61" type="line"/>
			<point x="68" y="41" type="line"/>
		</contour>
		<contour>
			<point x="175" y="0" type="line"/>
			<point x="285" y="0" type="line"/>
			<point x="296" y="66"/>
			<point x="315" y="170"/>
			<point x="329" y="247" type="curve" smooth="yes"/>
			<point x="368" y="456" type="line"/>
			<point x="404" y="647" type="line"/>
			<point x="392" y="657" type="line"/>
			<point x="179" y="603" type="line"/>
			<point x="172" y="561" type="line"/>
			<point x="289" y="573" type="line"/>
			<point x="284" y="590" type="line"/>
		</contour>
	</outline>
</glyph>
<glyph name="four" format="1">
	<unicode hex="0034"/>
	<advance width="520"/>
	<outline>
		<contour>
			<point x="21" y="163" type="line"/>
			<point x="505" y="163" type="line"/>
			<point x="519" y="246" type="line"/>
			<point x="99" y="246" type="line"/>
			<point x="96" y="218" type="line"/>
			<point x="435" y="597" type="line"/>
			<point x="369" y="572" type="line"/>
			<point x="263" y="0" type="line"/>
			<point x="358" y="0" type="line"/>
			<point x="480" y="663" type="line"/>
			<point x="434" y="663" type="line"/>
			<point x="31" y="208" type="line"/>
		</contour>
		<contour>
			<point x="179" y="0" type="line"/>
			<point x="451" y="0" type="line"/>
			<point x="459" y="41" type="line"/>
			<point x="347" y="61" type="line"/>
			<point x="304" y="61" type="line"/>
			<point x="187" y="41" type="line"/>
		</contour>
	</outline>
</glyph>
<glyph name="question" format="1">
	<unicode hex="003F"/>
	<advance width="451"/>
	<outline>
		<contour>
			<point x="111" y="257" type="curve" smooth="yes"/>
			<point x="111" y="201"/>
			<point x="153" y="173"/>
			<point x="203" y="173" type="curve" smooth="yes"/>
			<point x="243" y="173"/>
			<point x="281" y="192"/>
			<point x="305" y="215" type="curve"/>
			<point x="285" y="243" type="line" smooth="yes"/>
			<point x="266" y="233"/>
			<point x="244" y="222"/>
			<point x="220" y="222" type="curve" smooth="yes"/>
			<point x="192" y="222"/>
			<point x="176" y="236"/>
			<point x="176" y="261" type="curve" smooth="yes"/>
			<point x="176" y="305"/>
			<point x="226" y="333"/>
			<point x="326" y="388" type="curve" smooth="yes"/>
			<point x="439" y="450"/>
			<point x="479" y="494"/>
			<point x="479" y="560" type="curve" smooth="yes"/>
			<point x="479" y="634"/>
			<point x="423" y="680"/>
			<point x="310" y="680" type="curve" smooth="yes"/>
			<point x="195" y="680"/>
			<point x="132" y="639"/>
			<point x="111" y="591" type="curve" smooth="yes"/>
			<point x="111" y="561"/>
			<point x="131" y="540"/>
			<point x="158" y="540" type="curve" smooth="yes"/>
			<point x="189" y="540"/>
			<point x="210" y="554"/>
			<point x="221" y="589" type="curve" smooth="yes"/>
			<point x="244" y="657" type="line"/>
			<point x="201" y="629" type="line" smooth="yes"/>
			<point x="224" y="636"/>
			<point x="247" y="638"/>
			<point x="272" y="638" type="curve" smooth="yes"/>
			<point x="319" y="637"/>
			<point x="353" y="611"/>
			<point x="353" y="559" type="curve" smooth="yes"/>
			<point x="353" y="520"/>
			<point x="329" y="484"/>
			<point x="260" y="434" type="curve" smooth="yes"/>
			<point x="165" y="364"/>
			<point x="111" y="318"/>
		</contour>
		<contour>
			<point x="73" y="50" type="curve" smooth="yes"/>
			<point x="73" y="14"/>
			<point x="100" y="-14"/>
			<point x="137" y="-14" type="curve" smooth="yes"/>
			<point x="178" y="-14"/>
			<point x="215" y="20"/>
			<point x="215" y="62" type="curve" smooth="yes"/>
			<point x="215" y="97"/>
			<point x="189" y="126"/>
			<point x="151" y="126" type="curve" smooth="yes"/>
			<point x="110" y="126"/>
			<point x="73" y="92"/>
		</contour>
	</outline>
</glyph>
<glyph name="at" format="1">
	<unicode hex="0040"/>
	<advance width="862"/>
	<outline>
		<contour>
			<point x="349" y="41" type="curve" smooth="yes"/>
			<point x="407" y="41"/>
			<point x="468" y="89"/>
			<point x="528" y="167" type="curve"/>
			<point x="519" y="186" type="line"/>
			<point x="464" y="138"/>
			<point x="432" y="128"/>
			<point x="399" y="128" type="curve" smooth="yes"/>
			<point x="366" y="128"/>
			<point x="343" y="155"/>
			<point x="343" y="206" type="curve" smooth="yes"/>
			<point x="343" y="336"/>
			<point x="441" y="415"/>
			<point x="503" y="415" type="curve" smooth="yes"/>
			<point x="527" y="415"/>
			<point x="556" y="401"/>
			<point x="576" y="366" type="curve"/>
			<point x="617" y="415" type="line"/>
			<point x="587" y="458"/>
			<point x="559" y="479"/>
			<point x="512" y="479" type="curve" smooth="yes"/>
			<point x="401" y="479"/>
			<point x="245" y="323"/>
			<point x="245" y="168" type="curve" smooth="yes"/>
			<point x="245" y="79"/>
			<point x="292" y="41"/>
		</contour>
		<contour>
			<point x="48" y="162" type="curve" smooth="yes"/>
			<point x="48" y="-29"/>
			<point x="170" y="-156"/>
			<point x="381" y="-156" type="curve" smooth="yes"/>
			<point x="453" y="-156"/>
			<point x="531" y="-137"/>
			<point x="594" y="-101" type="curve"/>
			<point x="578" y="-62" type="line"/>
			<point x="527" y="-88"/>
			<point x="467" y="-100"/>
			<point x="405" y="-100" type="curve" smooth="yes"/>
			<point x="236" y="-100"/>
			<point x="128" y="6"/>
			<point x="128" y="180" type="curve" smooth="yes"/>
			<point x="128" y="411"/>
			<point x="311" y="600"/>
			<point x="534" y="600" type="curve" smooth="yes"/>
			<point x="695" y="600"/>
			<point x="780" y="508"/>
			<point x="780" y="355" type="curve" smooth="yes"/>
			<point x="780" y="167"/>
			<point x="687" y="97"/>
			<point x="618" y="97" type="curve" smooth="yes"/>
			<point x="588" y="97"/>
			<point x="569" y="123"/>
			<point x="584" y="177" type="curve"/>
			<point x="668" y="474" type="line"/>
			<point x="643" y="492" type="line"/>
			<point x="558" y="433" type="line"/>
			<point x="481" y="149" type="line"/>
			<point x="487" y="130" type="line"/>
			<point x="489" y="77"/>
			<point x="530" y="41"/>
			<point x="591" y="41" type="curve" smooth="yes"/>
			<point x="708" y="41"/>
			<point x="852" y="148"/>
			<point x="852" y="357" type="curve" smooth="yes"/>
			<point x="852" y="521"/>
			<point x="757" y="656"/>
			<point x="548" y="656" type="curve" smooth="yes"/>
			<point x="273" y="656"/>
			<point x="48" y="441"/>
		</contour>
	</outline>
</glyph>
<glyph name="C" format="1">
	<unicode hex="0043"/>
	<advance width="597"/>
	<outline>
		<contour>
			<point x="337" y="-17" type="curve" smooth="yes"/>
			<point x="422" y="-17"/>
			<point x="483" y="5"/>
			<point x="534" y="30" type="curve"/>
			<point x="563" y="180" type="line"/>
			<point x="495" y="180" type="line"/>
			<point x="440" y="27" type="line"/>
			<point x="505" y="75" type="line"/>
			<point x="463" y="53"/>
			<point x="418" y="37"/>
			<point x="371" y="37" type="curve" smooth="yes"/>
			<point x="255" y="37"/>
			<point x="176" y="125"/>
			<point x="176" y="270" type="curve" smooth="yes"/>
			<point x="176" y="438"/>
			<point x="276" y="626"/>
			<point x="442" y="626" type="curve" smooth="yes"/>
			<point x="491" y="626"/>
			<point x="539" y="609"/>
			<point x="577" y="574" type="curve"/>
			<point x="530" y="626" type="line"/>
			<point x="530" y="482" type="line"/>
			<point x="598" y="482" type="line"/>
			<point x="622" y="628" type="line"/>
			<point x="560" y="666"/>
			<point x="504" y="680"/>
			<point x="439" y="680" type="curve" smooth="yes"/>
			<point x="220" y="680"/>
			<point x="51" y="498"/>
			<point x="51" y="276" type="curve" smooth="yes"/>
			<point x="51" y="93"/>
			<point x="164" y="-17"/>
		</contour>
	</outline>
</glyph>
<glyph name="G" format="1">
	<unicode hex="0047"/>
	<advance width="658"/>
	<outline>
		<contour>
			<point x="52" y="276" type="curve" smooth="yes"/>
			<point x="52" y="100"/>
			<point x="168" y="-16"/>
			<point x="357" y="-16" type="curve" smooth="yes"/>
			<point x="430" y="-16"/>
			<point x="488" y="0"/>
			<point x="548" y="27" type="curve"/>
			<point x="604" y="324" type="line"/>
			<point x="484" y="324" type="line"/>
			<point x="471" y="246"/>
			<point x="457" y="166"/>
			<point x="443" y="87" type="curve" smooth="yes"/>
			<point x="430" y="20" type="line"/>
			<point x="497" y="60" type="line"/>
			<point x="456" y="45"/>
			<point x="419" y="36"/>
			<point x="379" y="36" type="curve" smooth="yes"/>
			<point x="270" y="36"/>
			<point x="176" y="125"/>
			<point x="176" y="277" type="curve" smooth="yes"/>
			<point x="176" y="473"/>
			<point x="287" y="627"/>
			<point x="451" y="627" type="curve" smooth="yes"/>
			<point x="501" y="627"/>
			<point x="553" y="613"/>
			<point x="593" y="582" type="curve"/>
			<point x="542" y="628" type="line"/>
			<point x="545" y="479" type="line"/>
			<point x="611" y="479" type="line"/>
			<point x="635" y="624" type="line"/>
			<point x="572" y="665"/>
			<point x="512" y="680"/>
			<point x="434" y="680" type="curve" smooth="yes"/>
			<point x="226" y="680"/>
			<point x="52" y="508"/>
		</contour>
		<contour>
			<point x="378" y="277" type="line"/>
			<point x="497" y="261" type="line"/>
			<point x="540" y="261" type="line"/>
			<point x="662" y="277" type="line"/>
			<point x="670" y="324" type="line"/>
			<point x="387" y="324" type="line"/>
		</contour>
	</outline>
</glyph>
<glyph name="J" format="1">
	<unicode hex="004A"/>
	<advance width="410"/>
	<outline>
		<contour>
			<point x="-61" y="9" type="curve"/>
			<point x="-51" y="-30"/>
			<point x="-11" y="-49"/>
			<point x="39" y="-49" type="curve" smooth="yes"/>
			<point x="117" y="-49"/>
			<point x="204" y="-1"/>
			<point x="251" y="90" type="curve" smooth="yes"/>
			<point x="278" y="137"/>
			<point x="298" y="201"/>
			<point x="317" y="309" type="curve" smooth="yes"/>
			<point x="379" y="663" type="line"/>
			<point x="257" y="663" type="line"/>
			<point x="239" y="546"/>
			<point x="223" y="446"/>
			<point x="208" y="354" type="curve" smooth="yes"/>
			<point x="191" y="249"/>
			<point x="183" y="201"/>
			<point x="174" y="151" type="curve" smooth="yes"/>
			<point x="157" y="69"/>
			<point x="128" y="19"/>
			<point x="87" y="-8" type="curve"/>
			<point x="113" y="-7" type="line"/>
			<point x="90" y="25" type="line" smooth="yes"/>
			<point x="67" y="54"/>
			<point x="46" y="68"/>
			<point x="18" y="68" type="curve" smooth="yes"/>
			<point x="-20" y="68"/>
			<point x="-52" y="46"/>
		</contour>
		<contour>
			<point x="156" y="616" type="line"/>
			<point x="287" y="601" type="line"/>
			<point x="315" y="601" type="line"/>
			<point x="453" y="616" type="line"/>
			<point x="462" y="663" type="line"/>
			<point x="166" y="663" type="line"/>
		</contour>
		<contour>
			<point name="aboveUC" x="292" y="688" type="move"/>
		</contour>
		<contour>
			<point name="belowLC" x="34" y="-166" type="move"/>
		</contour>
	</outline>
</glyph>
<glyph name="M" format="1">
	<unicode hex="004D"/>
	<advance width="917"/>
	<outline>
		<contour>
			<point x="-11" y="0" type="line"/>
			<point x="224" y="0" type="line"/>
			<point x="234" y="47" type="line"/>
			<point x="129" y="62" type="line"/>
			<point x="101" y="62" type="line"/>
			<point x="-2" y="47" type="line"/>
		</contour>
		<contour>
			<point x="79" y="0" type="line"/>
			<point x="130" y="0" type="line"/>
			<point x="280" y="647" type="line"/>
			<point x="230" y="647" type="line"/>
		</contour>
		<contour>
			<point x="371" y="1" type="line"/>
			<point x="411" y="1" type="line"/>
			<point x="795" y="663" type="line"/>
			<point x="742" y="663" type="line"/>
			<point x="418" y="108" type="line"/>
			<point x="460" y="126" type="line"/>
			<point x="349" y="663" type="line"/>
			<point x="149" y="663" type="line"/>
			<point x="139" y="616" type="line"/>
			<point x="274" y="602" type="line"/>
			<point x="227" y="651" type="line"/>
		</contour>
		<contour>
			<point x="562" y="0" type="line"/>
			<point x="844" y="0" type="line"/>
			<point x="852" y="48" type="line"/>
			<point x="724" y="63" type="line"/>
			<point x="701" y="63" type="line"/>
			<point x="569" y="48" type="line"/>
		</contour>
		<contour>
			<point x="640" y="0" type="line"/>
			<point x="762" y="0" type="line"/>
			<point x="774" y="103"/>
			<point x="789" y="208"/>
			<point x="803" y="312" type="curve" smooth="yes"/>
			<point x="856" y="663" type="line"/>
			<point x="766" y="663" type="line"/>
			<point x="731" y="608" type="line"/>
		</contour>
		<contour>
			<point x="781" y="601" type="line"/>
			<point x="807" y="601" type="line"/>
			<point x="938" y="616" type="line"/>
			<point x="944" y="663" type="line"/>
			<point x="786" y="663" type="line"/>
		</contour>
		<contour>
			<point name="aboveUC" x="534" y="688" type="move"/>
		</contour>
		<contour>
			<point name="belowLC" x="373" y="-22" type="move"/>
		</contour>
	</outline>
</glyph>
<glyph name="N" format="1">
	<unicode hex="004E"/>
	<advance width="731"/>
	<outline>
		<contour>
			<point x="0" y="0" type="line"/>
			<point x="243" y="0" type="line"/>
			<point x="251" y="47" type="line"/>
			<point x="134" y="62" type="line"/>
			<point x="110" y="62" type="line"/>
			<point x="9" y="47" type="line"/>
		</contour>
		<contour>
			<point x="80" y="0" type="line"/>
			<point x="135" y="0" type="line"/>
			<point x="257" y="641" type="line"/>
			<point x="206" y="663" type="line"/>
		</contour>
		<contour>
			<point x="518" y="-10" type="line"/>
			<point x="574" y="-10" type="line"/>
			<point x="593" y="106" type="line"/>
			<point x="293" y="663" type="line"/>
			<point x="123" y="663" type="line"/>
			<point x="114" y="616" type="line"/>
			<point x="225" y="604" type="line"/>
			<point x="174" y="630" type="line"/>
		</contour>
		<contour>
			<point x="524" y="616" type="line"/>
			<point x="650" y="601" type="line"/>
			<point x="673" y="601" type="line"/>
			<point x="770" y="616" type="line"/>
			<point x="779" y="663" type="line"/>
			<point x="534" y="663" type="line"/>
		</contour>
		<contour>
			<point x="574" y="-10" type="line"/>
			<point x="700" y="663" type="line"/>
			<point x="645" y="663" type="line"/>
			<point x="532" y="56" type="line"/>
		</contour>
		<contour>
			<point name="aboveUC" x="454" y="688" type="move"/>
		</contour>
		<contour>
			<point name="belowLC" x="337" y="-22" type="move"/>
		</contour>
	</outline>
</glyph>
<glyph name="O" format="1">
	<unicode hex="004F"/>
	<advance width="664"/>
	<outline>
		<contour>
			<point x="294" y="-17" type="curve" smooth="yes"/>
			<point x="508" y="-17"/>
			<point x="660" y="192"/>
			<point x="660" y="400" type="curve" smooth="yes"/>
			<point x="660" y="572"/>
			<point x="559" y="680"/>
			<point x="417" y="680" type="curve" smooth="yes"/>
			<point x="207" y="680"/>
			<point x="55" y="469"/>
			<point x="55" y="262" type="curve" smooth="yes"/>
			<point x="55" y="83"/>
			<point x="156" y="-17"/>
		</contour>
		<contour>
			<point x="310" y="37" type="curve" smooth="yes"/>
			<point x="227" y="37"/>
			<point x="177" y="118"/>
			<point x="177" y="259" type="curve" smooth="yes"/>
			<point x="177" y="445"/>
			<point x="286" y="627"/>
			<point x="404" y="627" type="curve" smooth="yes"/>
			<point x="491" y="627"/>
			<point x="538" y="546"/>
			<point x="538" y="407" type="curve" smooth="yes"/>
			<point x="538" y="220"/>
			<point x="428" y="37"/>
		</contour>
	</outline>
</glyph>
<glyph name="S" format="1">
	<unicode hex="0053"/>
	<advance width="502"/>
	<outline>
		<contour>
			<point x="37" y="31" type="line"/>
			<point x="83" y="1"/>
			<point x="156" y="-17"/>
			<point x="222" y="-17" type="curve" smooth="yes"/>
			<point x="360" y="-17"/>
			<point x="457" y="64"/>
			<point x="457" y="183" type="curve" smooth="yes"/>
			<point x="457" y="251"/>
			<point x="423" y="307"/>
			<point x="312" y="387" type="curve" smooth="yes"/>
			<point x="235" y="441"/>
			<point x="207" y="477"/>
			<point x="207" y="524" type="curve" smooth="yes"/>
			<point x="207" y="590"/>
			<point x="258" y="625"/>
			<point x="341" y="625" type="curve" smooth="yes"/>
			<point x="376" y="625"/>
			<point x="406" y="618"/>
			<point x="452" y="592" type="curve"/>
			<point x="400" y="637" type="line"/>
			<point x="413" y="492" type="line"/>
			<point x="485" y="492" type="line"/>
			<point x="502" y="632" type="line"/>
			<point x="450" y="665"/>
			<point x="386" y="680"/>
			<point x="327" y="680" type="curve" smooth="yes"/>
			<point x="191" y="680"/>
			<point x="101" y="602"/>
			<point x="101" y="491" type="curve" smooth="yes"/>
			<point x="101" y="423"/>
			<point x="134" y="363"/>
			<point x="242" y="285" type="curve" smooth="yes"/>
			<point x="328" y="223"/>
			<point x="345" y="190"/>
			<point x="345" y="149" type="curve" smooth="yes"/>
			<point x="345" y="83"/>
			<point x="302" y="38"/>
			<point x="215" y="38" type="curve" smooth="yes"/>
			<point x="171" y="38"/>
			<point x="121" y="49"/>
			<point x="82" y="70" type="curve"/>
			<point x="139" y="25" type="line"/>
			<point x="123" y="176" type="line"/>
			<point x="50" y="176" type="line"/>
		</contour>
	</outline>
</glyph>
<glyph name="U" format="1">
	<unicode hex="0055"/>
	<advance width="736"/>
	<outline>
		<contour>
			<point x="128" y="180" type="curve" smooth="yes"/>
			<point x="128" y="50"/>
			<point x="208" y="-17"/>
			<point x="347" y="-17" type="curve" smooth="yes"/>
			<point x="493" y="-17"/>
			<point x="595" y="63"/>
			<point x="634" y="269" type="curve" smooth="yes"/>
			<point x="708" y="663" type="line"/>
			<point x="650" y="663" type="line"/>
			<point x="578" y="283" type="line" smooth="yes"/>
			<point x="545" y="115"/>
			<point x="490" y="61"/>
			<point x="377" y="61" type="curve" smooth="yes"/>
			<point x="301" y="61"/>
			<point x="250" y="107"/>
			<point x="250" y="186" type="curve" smooth="yes"/>
			<point x="250" y="226"/>
			<point x="255" y="252"/>
			<point x="261" y="282" type="curve" smooth="yes"/>
			<point x="332" y="663" type="line"/>
			<point x="206" y="663" type="line"/>
			<point x="191" y="562"/>
			<point x="172" y="459"/>
			<point x="154" y="359" type="curve" smooth="yes"/>
			<point x="139" y="278" type="line" smooth="yes"/>
			<point x="133" y="244"/>
			<point x="128" y="211"/>
		</contour>
		<contour>
			<point x="115" y="616" type="line"/>
			<point x="246" y="601" type="line"/>
			<point x="269" y="601" type="line"/>
			<point x="403" y="616" type="line"/>
			<point x="412" y="663" type="line"/>
			<point x="124" y="663" type="line"/>
		</contour>
		<contour>
			<point x="543" y="616" type="line"/>
			<point x="654" y="604" type="line"/>
			<point x="678" y="604" type="line"/>
			<point x="780" y="616" type="line"/>
			<point x="789" y="663" type="line"/>
			<point x="552" y="663" type="line"/>
		</contour>
		<contour>
			<point name="aboveUC" x="488" y="688" type="move"/>
		</contour>
		<contour>
			<point name="hornLC" x="687" y="680" type="move"/>
		</contour>
		<contour>
			<point name="ogonek" x="416" y="0" type="move"/>
		</contour>
		<contour>
			<point name="belowLC" x="337" y="-22" type="move"/>
		</contour>
	</outline>
</glyph>
<glyph name="W" format="1">
	<unicode hex="0057"/>
	<advance width="880"/>
	<outline>
		<contour>
			<point x="61" y="616" type="line"/>
			<point x="188" y="601" type="line"/>
			<point x="214" y="601" type="line"/>
			<point x="341" y="616" type="line"/>
			<point x="350" y="663" type="line"/>
			<point x="71" y="663" type="line"/>
		</contour>
		<contour>
			<point x="187" y="-6" type="line"/>
			<point x="254" y="-6" type="line"/>
			<point x="527" y="566" type="line"/>
			<point x="485" y="535" type="line"/>
			<point x="553" y="-6" type="line"/>
			<point x="620" y="-6" type="line"/>
			<point x="926" y="663" type="line"/>
			<point x="869" y="663" type="line"/>
			<point x="600" y="61" type="line"/>
			<point x="644" y="121" type="line"/>
			<point x="584" y="663" type="line"/>
			<point x="518" y="663" type="line"/>
			<point x="236" y="61" type="line"/>
			<point x="283" y="121" type="line"/>
			<point x="249" y="663" type="line"/>
			<point x="124" y="663" type="line"/>
		</contour>
		<contour>
			<point x="404" y="616" type="line"/>
			<point x="521" y="601" type="line"/>
			<point x="557" y="601" type="line"/>
			<point x="680" y="616" type="line"/>
			<point x="689" y="663" type="line"/>
			<point x="413" y="663" type="line"/>
		</contour>
		<contour>
			<point x="764" y="616" type="line"/>
			<point x="858" y="601" type="line"/>
			<point x="881" y="601" type="line"/>
			<point x="978" y="616" type="line"/>
			<point x="987" y="663" type="line"/>
			<point x="773" y="663" type="line"/>
		</contour>
		<contour>
			<point name="aboveUC" x="582" y="688" type="move"/>
		</contour>
		<contour>
			<point name="belowLC" x="423" y="-22" type="move"/>
		</contour>
	</outline>
</glyph>
<glyph name="X" format="1">
	<unicode hex="0058"/>
	<advance width="686"/>
	<outline>
		<contour>
			<point x="-7" y="0" type="line"/>
			<point x="226" y="0" type="line"/>
			<point x="236" y="47" type="line"/>
			<point x="138" y="62" type="line"/>
			<point x="118" y="62" type="line"/>
			<point x="2" y="47" type="line"/>
		</contour>
		<contour>
			<point x="42" y="0" type="line"/>
			<point x="108" y="0" type="line"/>
			<point x="372" y="324" type="line"/>
			<point x="338" y="348" type="line"/>
		</contour>
		<contour>
			<point x="123" y="616" type="line"/>
			<point x="253" y="601" type="line"/>
			<point x="277" y="601" type="line"/>
			<point x="409" y="616" type="line"/>
			<point x="418" y="663" type="line"/>
			<point x="133" y="663" type="line"/>
		</contour>
		<contour>
			<point x="439" y="0" type="line"/>
			<point x="567" y="0" type="line"/>
			<point x="307" y="663" type="line"/>
			<point x="179" y="663" type="line"/>
		</contour>
		<contour>
			<point x="333" y="0" type="line"/>
			<point x="623" y="0" type="line"/>
			<point x="633" y="47" type="line"/>
			<point x="506" y="62" type="line"/>
			<point x="482" y="62" type="line"/>
			<point x="343" y="47" type="line"/>
		</contour>
		<contour>
			<point x="359" y="349" type="line"/>
			<point x="392" y="324" type="line"/>
			<point x="676" y="663" type="line"/>
			<point x="610" y="663" type="line"/>
		</contour>
		<contour>
			<point x="482" y="616" type="line"/>
			<point x="580" y="601" type="line"/>
			<point x="602" y="601" type="line"/>
			<point x="710" y="616" type="line"/>
			<point x="720" y="663" type="line"/>
			<point x="491" y="663" type="line"/>
		</contour>
		<contour>
			<point name="aboveUC" x="443" y="688" type="move"/>
		</contour>
		<contour>
			<point name="belowLC" x="288" y="-22" type="move"/>
		</contour>
	</outline>
</glyph>
<glyph name="Y" format="1">
	<unicode hex="0059"/>
	<advance width="564"/>
	<outline>
		<contour>
			<point x="61" y="616" type="line"/>
			<point x="194" y="601" type="line"/>
			<point x="224" y="601" type="line"/>
			<point x="348" y="616" type="line"/>
			<point x="357" y="663" type="line"/>
			<point x="71" y="663" type="line"/>
		</contour>
		<contour>
			<point x="105" y="0" type="line"/>
			<point x="411" y="0" type="line"/>
			<point x="421" y="47" type="line"/>
			<point x="285" y="62" type="line"/>
			<point x="255" y="62" type="line"/>
			<point x="114" y="47" type="line"/>
		</contour>
		<contour>
			<point x="260" y="236" type="line"/>
			<point x="337" y="236" type="line"/>
			<point x="620" y="663" type="line"/>
			<point x="562" y="663" type="line"/>
			<point x="337" y="315" type="line"/>
			<point x="355" y="310" type="line"/>
			<point x="249" y="663" type="line"/>
			<point x="114" y="663" type="line"/>
		</contour>
		<contour>
			<point x="196" y="0" type="line"/>
			<point x="317" y="0" type="line"/>
			<point x="333" y="99"/>
			<point x="347" y="185"/>
			<point x="371" y="311" type="curve"/>
			<point x="255" y="311" type="line"/>
		</contour>
		<contour>
			<point x="450" y="616" type="line"/>
			<point x="544" y="601" type="line"/>
			<point x="565" y="601" type="line"/>
			<point x="661" y="616" type="line"/>
			<point x="671" y="663" type="line"/>
			<point x="459" y="663" type="line"/>
		</contour>
	</outline>
</glyph>
<glyph name="Z" format="1">
	<unicode hex="005A"/>
	<advance width="568"/>
	<outline>
		<contour>
			<point x="4" y="0" type="line"/>
			<point x="112" y="0" type="line"/>
			<point x="592" y="623" type="line"/>
			<point x="600" y="663" type="line"/>
			<point x="491" y="663" type="line"/>
			<point x="12" y="41" type="line"/>
		</contour>
		<contour>
			<point x="86" y="481" type="line"/>
			<point x="155" y="481" type="line"/>
			<point x="222" y="663" type="line"/>
			<point x="148" y="610" type="line"/>
			<point x="536" y="610" type="line"/>
			<point x="547" y="663" type="line"/>
			<point x="124" y="663" type="line"/>
		</contour>
		<contour>
			<point x="64" y="0" type="line"/>
			<point x="495" y="0" type="line"/>
			<point x="533" y="182" type="line"/>
			<point x="464" y="182" type="line"/>
			<point x="398" y="0" type="line"/>
			<point x="472" y="54" type="line"/>
			<point x="74" y="54" type="line"/>
		</contour>
	</outline>
</glyph>
<glyph name="a" format="1">
	<unicode hex="0061"/>
	<advance width="545"/>
	<outline>
		<contour>
			<point x="370" y="-15" type="curve" smooth="yes"/>
			<point x="452" y="-15"/>
			<point x="512" y="55"/>
			<point x="555" y="124" type="curve"/>
			<point x="528" y="144" type="line"/>
			<point x="492" y="94"/>
			<point x="459" y="65"/>
			<point x="435" y="65" type="curve" smooth="yes"/>
			<point x="422" y="65"/>
			<point x="414" y="73"/>
			<point x="414" y="86" type="curve" smooth="yes"/>
			<point x="414" y="97"/>
			<point x="417" y="115"/>
			<point x="422" y="136" type="curve" smooth="yes"/>
			<point x="502" y="493" type="line"/>
			<point x="485" y="504" type="line"/>
			<point x="384" y="438" type="line"/>
			<point x="314" y="132" type="line" smooth="yes"/>
			<point x="307" y="102"/>
			<point x="303" y="80"/>
			<point x="303" y="52" type="curve" smooth="yes"/>
			<point x="303" y="8"/>
			<point x="331" y="-15"/>
		</contour>
		<contour>
			<point x="139" y="-15" type="curve" smooth="yes"/>
			<point x="210" y="-15"/>
			<point x="290" y="54"/>
			<point x="352" y="145" type="curve"/>
			<point x="345" y="168" type="line"/>
			<point x="283" y="96"/>
			<point x="244" y="72"/>
			<point x="211" y="72" type="curve" smooth="yes"/>
			<point x="176" y="72"/>
			<point x="142" y="99"/>
			<point x="142" y="161" type="curve" smooth="yes"/>
			<point x="142" y="246"/>
			<point x="180" y="326"/>
			<point x="220" y="371" type="curve" smooth="yes"/>
			<point x="253" y="410"/>
			<point x="289" y="430"/>
			<point x="319" y="430" type="curve" smooth="yes"/>
			<point x="355" y="430"/>
			<point x="373" y="406"/>
			<point x="380" y="343" type="curve"/>
			<point x="460" y="419" type="line"/>
			<point x="439" y="464"/>
			<point x="408" y="494"/>
			<point x="359" y="494" type="curve" smooth="yes"/>
			<point x="227" y="494"/>
			<point x="32" y="291"/>
			<point x="32" y="112" type="curve" smooth="yes"/>
			<point x="32" y="25"/>
			<point x="83" y="-15"/>
		</contour>
	</outline>
</glyph>
<glyph name="b" format="1">
	<unicode hex="0062"/>
	<advance width="509"/>
	<outline>
		<contour>
			<point x="173" y="-14" type="curve" smooth="yes"/>
			<point x="340" y="-14"/>
			<point x="516" y="181"/>
			<point x="516" y="362" type="curve" smooth="yes"/>
			<point x="516" y="457"/>
			<point x="474" y="493"/>
			<point x="418" y="493" type="curve" smooth="yes"/>
			<point x="347" y="493"/>
			<point x="254" y="426"/>
			<point x="194" y="323" type="curve"/>
			<point x="203" y="309" type="line"/>
			<point x="260" y="372"/>
			<point x="309" y="409"/>
			<point x="350" y="409" type="curve" smooth="yes"/>
			<point x="385" y="409"/>
			<point x="407" y="379"/>
			<point x="407" y="320" type="curve" smooth="yes"/>
			<point x="407" y="245"/>
			<point x="376" y="159"/>
			<point x="333" y="111" type="curve" smooth="yes"/>
			<point x="299" y="72"/>
			<point x="264" y="54"/>
			<point x="229" y="54" type="curve" smooth="yes"/>
			<point x="197" y="54"/>
			<point x="180" y="74"/>
			<point x="180" y="106" type="curve" smooth="yes"/>
			<point x="180" y="138"/>
			<point x="186" y="168"/>
			<point x="200" y="235" type="curve" smooth="yes"/>
			<point x="225" y="346" type="line"/>
			<point x="226" y="359" type="line"/>
			<point x="301" y="720" type="line"/>
			<point x="288" y="730" type="line"/>
			<point x="96" y="673" type="line"/>
			<point x="90" y="640" type="line"/>
			<point x="213" y="629" type="line"/>
			<point x="179" y="653" type="line"/>
			<point x="98" y="248" type="line" smooth="yes"/>
			<point x="85" y="186"/>
			<point x="73" y="130"/>
			<point x="73" y="84" type="curve" smooth="yes"/>
			<point x="73" y="19"/>
			<point x="115" y="-14"/>
		</contour>
		<contour>
			<point name="aboveLC" x="232" y="728" type="move"/>
		</contour>
		<contour>
			<point name="belowLC" x="197" y="-22" type="move"/>
		</contour>
	</outline>
</glyph>
<glyph name="c" format="1">
	<unicode hex="0063"/>
	<advance width="451"/>
	<outline>
		<contour>
			<point x="190" y="-14" type="curve" smooth="yes"/>
			<point x="288" y="-14"/>
			<point x="366" y="54"/>
			<point x="412" y="129" type="curve"/>
			<point x="385" y="151" type="line"/>
			<point x="348" y="105"/>
			<point x="306" y="72"/>
			<point x="241" y="72" type="curve" smooth="yes"/>
			<point x="190" y="72"/>
			<point x="148" y="104"/>
			<point x="148" y="179" type="curve" smooth="yes"/>
			<point x="148" y="294"/>
			<point x="229" y="422"/>
			<point x="335" y="452" type="curve"/>
			<point x="296" y="468" type="line"/>
			<point x="336" y="401" type="line" smooth="yes"/>
			<point x="351" y="375"/>
			<point x="371" y="352"/>
			<point x="395" y="352" type="curve" smooth="yes"/>
			<point x="422" y="352"/>
			<point x="453" y="375"/>
			<point x="459" y="404" type="curve"/>
			<point x="450" y="443"/>
			<point x="396" y="493"/>
			<point x="345" y="493" type="curve" smooth="yes"/>
			<point x="195" y="493"/>
			<point x="41" y="307"/>
			<point x="41" y="140" type="curve" smooth="yes"/>
			<point x="41" y="35"/>
			<point x="106" y="-14"/>
		</contour>
		<contour>
			<point name="aboveLC" x="361" y="511" type="move"/>
		</contour>
		<contour>
			<point name="baseLC" x="193" y="0" type="move"/>
		</contour>
		<contour>
			<point name="belowLC" x="186" y="-22" type="move"/>
		</contour>
	</outline>
</glyph>
<glyph name="d" format="1">
	<unicode hex="0064"/>
	<advance width="573"/>
	<outline>
		<contour>
			<point x="325" y="122" type="line"/>
			<point x="318" y="87"/>
			<point x="315" y="67"/>
			<point x="316" y="46" type="curve" smooth="yes"/>
			<point x="316" y="8"/>
			<point x="344" y="-14"/>
			<point x="383" y="-14" type="curve" smooth="yes"/>
			<point x="468" y="-14"/>
			<point x="529" y="54"/>
			<point x="570" y="124" type="curve"/>
			<point x="542" y="144" type="line"/>
			<point x="506" y="95"/>
			<point x="473" y="66"/>
			<point x="449" y="66" type="curve" smooth="yes"/>
			<point x="437" y="66"/>
			<point x="429" y="73"/>
			<point x="429" y="87" type="curve" smooth="yes"/>
			<point x="429" y="98"/>
			<point x="431" y="114"/>
			<point x="436" y="138" type="curve" smooth="yes"/>
			<point x="555" y="720" type="line"/>
			<point x="541" y="730" type="line"/>
			<point x="350" y="673" type="line"/>
			<point x="345" y="640" type="line"/>
			<point x="467" y="629" type="line"/>
			<point x="433" y="656" type="line"/>
		</contour>
		<contour>
			<point x="139" y="-14" type="curve" smooth="yes"/>
			<point x="208" y="-14"/>
			<point x="298" y="56"/>
			<point x="359" y="149" type="curve"/>
			<point x="352" y="174" type="line"/>
			<point x="291" y="100"/>
			<point x="248" y="72"/>
			<point x="211" y="72" type="curve" smooth="yes"/>
			<point x="176" y="72"/>
			<point x="152" y="99"/>
			<point x="152" y="164" type="curve" smooth="yes"/>
			<point x="152" y="238"/>
			<point x="182" y="325"/>
			<point x="228" y="372" type="curve" smooth="yes"/>
			<point x="253" y="400"/>
			<point x="283" y="417"/>
			<point x="317" y="417" type="curve" smooth="yes"/>
			<point x="347" y="417"/>
			<point x="374" y="406"/>
			<point x="398" y="380" type="curve"/>
			<point x="450" y="440" type="line"/>
			<point x="418" y="477"/>
			<point x="390" y="493"/>
			<point x="354" y="493" type="curve" smooth="yes"/>
			<point x="211" y="493"/>
			<point x="42" y="290"/>
			<point x="42" y="120" type="curve" smooth="yes"/>
			<point x="42" y="22"/>
			<point x="87" y="-14"/>
		</contour>
		<contour>
			<point name="aboveLC" x="486" y="728" type="move"/>
		</contour>
		<contour>
			<point name="belowLC" x="258" y="-22" type="move"/>
		</contour>
	</outline>
</glyph>
<glyph name="e" format="1">
	<unicode hex="0065"/>
	<advance width="440"/>
	<outline>
		<contour>
			<point x="177" y="-15" type="curve" smooth="yes"/>
			<point x="264" y="-15"/>
			<point x="350" y="56"/>
			<point x="393" y="129" type="curve"/>
			<point x="367" y="148" type="line"/>
			<point x="333" y="104"/>
			<point x="287" y="69"/>
			<point x="233" y="69" type="curve" smooth="yes"/>
			<point x="178" y="69"/>
			<point x="137" y="102"/>
			<point x="137" y="173" type="curve" smooth="yes"/>
			<point x="137" y="314"/>
			<point x="238" y="434"/>
			<point x="297" y="434" type="curve" smooth="yes"/>
			<point x="318" y="434"/>
			<point x="332" y="423"/>
			<point x="332" y="395" type="curve" smooth="yes"/>
			<point x="332" y="335"/>
			<point x="291" y="269"/>
			<point x="91" y="185" type="curve"/>
			<point x="93" y="148" type="line"/>
			<point x="350" y="244"/>
			<point x="433" y="321"/>
			<point x="433" y="409" type="curve" smooth="yes"/>
			<point x="433" y="460"/>
			<point x="398" y="494"/>
			<point x="337" y="494" type="curve" smooth="yes"/>
			<point x="190" y="494"/>
			<point x="30" y="301"/>
			<point x="30" y="137" type="curve" smooth="yes"/>
			<point x="30" y="29"/>
			<point x="95" y="-15"/>
		</contour>
	</outline>
</glyph>
<glyph name="f" format="1">
	<unicode hex="0066"/>
	<advance width="329"/>
	<outline>
		<contour>
			<point x="376" y="744" type="curve" smooth="yes"/>
			<point x="329" y="744"/>
			<point x="287" y="730"/>
			<point x="248" y="701" type="curve" smooth="yes"/>
			<point x="188" y="656"/>
			<point x="151" y="591"/>
			<point x="133" y="468" type="curve" smooth="yes"/>
			<point x="112" y="321"/>
			<point x="99" y="182"/>
			<point x="77" y="41" type="curve" smooth="yes"/>
			<point x="63" y="-49"/>
			<point x="44" y="-103"/>
			<point x="16" y="-148" type="curve" smooth="yes"/>
			<point x="-2" y="-177"/>
			<point x="-22" y="-196"/>
			<point x="-53" y="-212" type="curve"/>
			<point x="-17" y="-214" type="line"/>
			<point x="-44" y="-173" type="line" smooth="yes"/>
			<point x="-67" y="-141"/>
			<point x="-86" y="-129"/>
			<point x="-114" y="-129" type="curve" smooth="yes"/>
			<point x="-145" y="-129"/>
			<point x="-170" y="-147"/>
			<point x="-175" y="-185" type="curve"/>
			<point x="-162" y="-223"/>
			<point x="-125" y="-244"/>
			<point x="-76" y="-244" type="curve" smooth="yes"/>
			<point x="-27" y="-244"/>
			<point x="18" y="-229"/>
			<point x="58" y="-196" type="curve" smooth="yes"/>
			<point x="120" y="-144"/>
			<point x="157" y="-70"/>
			<point x="177" y="43" type="curve" smooth="yes"/>
			<point x="202" y="184"/>
			<point x="217" y="345"/>
			<point x="240" y="495" type="curve" smooth="yes"/>
			<point x="262" y="635"/>
			<point x="283" y="674"/>
			<point x="323" y="697" type="curve" smooth="yes"/>
			<point x="340" y="707"/>
			<point x="363" y="717"/>
			<point x="378" y="718" type="curve"/>
			<point x="336" y="720" type="line"/>
			<point x="366" y="675" type="line" smooth="yes"/>
			<point x="391" y="636"/>
			<point x="407" y="621"/>
			<point x="436" y="621" type="curve" smooth="yes"/>
			<point x="464" y="621"/>
			<point x="487" y="641"/>
			<point x="492" y="670" type="curve"/>
			<point x="484" y="715"/>
			<point x="442" y="744"/>
		</contour>
		<contour>
			<point x="31" y="427" type="line"/>
			<point x="163" y="427" type="line"/>
			<point x="357" y="421" type="line"/>
			<point x="367" y="479" type="line"/>
			<point x="169" y="479" type="line"/>
			<point x="169" y="483" type="line"/>
			<point x="39" y="470" type="line"/>
		</contour>
		<contour>
			<point name="aboveLC" x="362" y="746" type="move"/>
		</contour>
		<contour>
			<point name="belowLC" x="-63" y="-246" type="move"/>
		</contour>
	</outline>
</glyph>
<glyph name="g" format="1">
	<unicode hex="0067"/>
	<advance width="497"/>
	<outline>
		<contour>
			<point x="-43" y="-131" type="curve" smooth="yes"/>
			<point x="-43" y="-198"/>
			<point x="33" y="-238"/>
			<point x="137" y="-238" type="curve" smooth="yes"/>
			<point x="306" y="-238"/>
			<point x="429" y="-153"/>
			<point x="429" y="-47" type="curve" smooth="yes"/>
			<point x="429" y="15"/>
			<point x="391" y="60"/>
			<point x="280" y="73" type="curve" smooth="yes"/>
			<point x="170" y="86" type="line" smooth="yes"/>
			<point x="131" y="91"/>
			<point x="120" y="108"/>
			<point x="120" y="124" type="curve" smooth="yes"/>
			<point x="120" y="140"/>
			<point x="124" y="153"/>
			<point x="163" y="190" type="curve"/>
			<point x="147" y="204" type="line"/>
			<point x="74" y="162"/>
			<point x="28" y="124"/>
			<point x="28" y="71" type="curve" smooth="yes"/>
			<point x="28" y="35"/>
			<point x="52" y="-4"/>
			<point x="119" y="-12" type="curve" smooth="yes"/>
			<point x="218" y="-24" type="line" smooth="yes"/>
			<point x="306" y="-35"/>
			<point x="332" y="-60"/>
			<point x="332" y="-94" type="curve" smooth="yes"/>
			<point x="332" y="-149"/>
			<point x="270" y="-185"/>
			<point x="182" y="-185" type="curve" smooth="yes"/>
			<point x="104" y="-185"/>
			<point x="56" y="-153"/>
			<point x="56" y="-94" type="curve" smooth="yes"/>
			<point x="56" y="-59"/>
			<point x="79" y="-30"/>
			<point x="125" y="0" type="curve"/>
			<point x="106" y="12" type="line"/>
			<point x="29" y="-14"/>
			<point x="-43" y="-66"/>
		</contour>
		<contour>
			<point x="216" y="153" type="curve" smooth="yes"/>
			<point x="314" y="153"/>
			<point x="413" y="228"/>
			<point x="413" y="351" type="curve" smooth="yes"/>
			<point x="413" y="431"/>
			<point x="359" y="493"/>
			<point x="269" y="493" type="curve" smooth="yes"/>
			<point x="150" y="493"/>
			<point x="60" y="407"/>
			<point x="60" y="292" type="curve" smooth="yes"/>
			<point x="60" y="213"/>
			<point x="113" y="153"/>
		</contour>
		<contour>
			<point x="162" y="306" type="curve" smooth="yes"/>
			<point x="163" y="397"/>
			<point x="201" y="451"/>
			<point x="252" y="451" type="curve" smooth="yes"/>
			<point x="294" y="451"/>
			<point x="314" y="410"/>
			<point x="314" y="337" type="curve" smooth="yes"/>
			<point x="314" y="240"/>
			<point x="274" y="193"/>
			<point x="228" y="193" type="curve" smooth="yes"/>
			<point x="179" y="193"/>
			<point x="161" y="245"/>
		</contour>
		<contour>
			<point x="408" y="355" type="line"/>
			<point x="413" y="406"/>
			<point x="428" y="432"/>
			<point x="450" y="456" type="curve"/>
			<point x="411" y="442" type="line"/>
			<point x="432" y="426" type="line" smooth="yes"/>
			<point x="452" y="413"/>
			<point x="467" y="409"/>
			<point x="484" y="409" type="curve" smooth="yes"/>
			<point x="512" y="409"/>
			<point x="537" y="431"/>
			<point x="539" y="458" type="curve"/>
			<point x="534" y="490"/>
			<point x="513" y="507"/>
			<point x="485" y="507" type="curve" smooth="yes"/>
			<point x="429" y="507"/>
			<point x="394" y="453"/>
			<point x="383" y="372" type="curve"/>
		</contour>
	</outline>
</glyph>
<glyph name="h" format="1">
	<unicode hex="0068"/>
	<advance width="555"/>
	<outline>
		<contour>
			<point x="36" y="-4" type="line"/>
			<point x="140" y="0" type="line"/>
			<point x="152" y="71"/>
			<point x="164" y="134"/>
			<point x="180" y="213" type="curve" smooth="yes"/>
			<point x="210" y="354" type="line"/>
			<point x="212" y="370" type="line"/>
			<point x="285" y="720" type="line"/>
			<point x="273" y="730" type="line"/>
			<point x="81" y="673" type="line"/>
			<point x="76" y="640" type="line"/>
			<point x="199" y="629" type="line"/>
			<point x="162" y="662" type="line"/>
			<point x="152" y="591"/>
			<point x="138" y="521"/>
			<point x="123" y="451" type="curve" smooth="yes"/>
			<point x="30" y="2" type="line"/>
		</contour>
		<contour>
			<point x="373" y="-14" type="curve" smooth="yes"/>
			<point x="452" y="-14"/>
			<point x="513" y="49"/>
			<point x="553" y="115" type="curve"/>
			<point x="525" y="135" type="line"/>
			<point x="491" y="91"/>
			<point x="461" y="66"/>
			<point x="439" y="66" type="curve" smooth="yes"/>
			<point x="427" y="66"/>
			<point x="420" y="73"/>
			<point x="420" y="86" type="curve" smooth="yes"/>
			<point x="420" y="96"/>
			<point x="425" y="114"/>
			<point x="431" y="137" type="curve" smooth="yes"/>
			<point x="477" y="324" type="line" smooth="yes"/>
			<point x="485" y="356"/>
			<point x="492" y="387"/>
			<point x="492" y="417" type="curve" smooth="yes"/>
			<point x="492" y="468"/>
			<point x="464" y="493"/>
			<point x="419" y="493" type="curve" smooth="yes"/>
			<point x="348" y="493"/>
			<point x="267" y="438"/>
			<point x="196" y="363" type="curve"/>
			<point x="193" y="325" type="line"/>
			<point x="259" y="381"/>
			<point x="312" y="409"/>
			<point x="346" y="409" type="curve" smooth="yes"/>
			<point x="365" y="409"/>
			<point x="377" y="398"/>
			<point x="377" y="369" type="curve" smooth="yes"/>
			<point x="377" y="350"/>
			<point x="370" y="321"/>
			<point x="362" y="289" type="curve" smooth="yes"/>
			<point x="321" y="122" type="line" smooth="yes"/>
			<point x="312" y="87"/>
			<point x="306" y="67"/>
			<point x="306" y="41" type="curve" smooth="yes"/>
			<point x="306" y="7"/>
			<point x="332" y="-14"/>
		</contour>
		<contour>
			<point name="aboveLC" x="210" y="728" type="move"/>
		</contour>
		<contour>
			<point name="belowLC" x="231" y="-16" type="move"/>
		</contour>
	</outline>
</glyph>
<glyph name="i" format="1">
	<unicode hex="0069"/>
	<advance width="320"/>
	<outline>
		<contour>
			<point x="69" y="55" type="curve" smooth="yes"/>
			<point x="69" y="12"/>
			<point x="95" y="-14"/>
			<point x="138" y="-14" type="curve" smooth="yes"/>
			<point x="217" y="-14"/>
			<point x="279" y="55"/>
			<point x="321" y="124" type="curve"/>
			<point x="293" y="144" type="line"/>
			<point x="257" y="95"/>
			<point x="224" y="66"/>
			<point x="199" y="66" type="curve" smooth="yes"/>
			<point x="187" y="66"/>
			<point x="179" y="73"/>
			<point x="179" y="87" type="curve" smooth="yes"/>
			<point x="179" y="98"/>
			<point x="182" y="114"/>
			<point x="187" y="138" type="curve" smooth="yes"/>
			<point x="260" y="482" type="line"/>
			<point x="246" y="494" type="line"/>
			<point x="54" y="436" type="line"/>
			<point x="49" y="403" type="line"/>
			<point x="173" y="393" type="line"/>
			<point x="138" y="414" type="line"/>
			<point x="79" y="130" type="line" smooth="yes"/>
			<point x="71" y="97"/>
			<point x="69" y="73"/>
		</contour>
		<contour>
			<point x="240" y="608" type="curve" smooth="yes"/>
			<point x="278" y="608"/>
			<point x="312" y="642"/>
			<point x="312" y="682" type="curve" smooth="yes"/>
			<point x="312" y="721"/>
			<point x="286" y="747"/>
			<point x="249" y="747" type="curve" smooth="yes"/>
			<point x="211" y="747"/>
			<point x="176" y="714"/>
			<point x="176" y="673" type="curve" smooth="yes"/>
			<point x="176" y="633"/>
			<point x="205" y="608"/>
		</contour>
		<contour>
			<point name="aboveLC" x="249" y="733" type="move"/>
		</contour>
		<contour>
			<point name="ogonek" x="181" y="0" type="move"/>
		</contour>
		<contour>
			<point name="belowLC" x="130" y="-22" type="move"/>
		</contour>
	</outline>
</glyph>
<glyph name="j" format="1">
	<unicode hex="006A"/>
	<advance width="283"/>
	<outline>
		<contour>
			<point x="235" y="601" type="curve" smooth="yes"/>
			<point x="272" y="601"/>
			<point x="307" y="635"/>
			<point x="307" y="675" type="curve" smooth="yes"/>
			<point x="307" y="714"/>
			<point x="281" y="739"/>
			<point x="244" y="739" type="curve" smooth="yes"/>
			<point x="206" y="739"/>
			<point x="171" y="707"/>
			<point x="171" y="665" type="curve" smooth="yes"/>
			<point x="171" y="625"/>
			<point x="200" y="601"/>
		</contour>
		<contour>
			<point x="-76" y="-242" type="line"/>
			<point x="-20" y="-237"/>
			<point x="26" y="-213"/>
			<point x="61" y="-177" type="curve" smooth="yes"/>
			<point x="114" y="-127"/>
			<point x="150" y="-56"/>
			<point x="170" y="43" type="curve" smooth="yes"/>
			<point x="256" y="481" type="line"/>
			<point x="240" y="494" type="line"/>
			<point x="50" y="436" type="line"/>
			<point x="46" y="403" type="line"/>
			<point x="170" y="393" type="line"/>
			<point x="134" y="415" type="line"/>
			<point x="65" y="49" type="line" smooth="yes"/>
			<point x="45" y="-64"/>
			<point x="23" y="-118"/>
			<point x="-5" y="-157" type="curve" smooth="yes"/>
			<point x="-26" y="-184"/>
			<point x="-50" y="-198"/>
			<point x="-84" y="-212" type="curve"/>
		</contour>
		<contour>
			<point name="aboveLC" x="238" y="733" type="move"/>
		</contour>
		<contour>
			<point name="belowLC" x="-25" y="-250" type="move"/>
		</contour>
	</outline>
</glyph>
<glyph name="k" format="1">
	<unicode hex="006B"/>
	<advance width="497"/>
	<outline>
		<contour>
			<point x="32" y="0" type="line"/>
			<point x="144" y="0" type="line"/>
			<point x="157" y="72"/>
			<point x="167" y="134"/>
			<point x="183" y="213" type="curve" smooth="yes"/>
			<point x="289" y="720" type="line"/>
			<point x="279" y="730" type="line"/>
			<point x="86" y="673" type="line"/>
			<point x="80" y="640" type="line"/>
			<point x="203" y="629" type="line"/>
			<point x="165" y="662" type="line"/>
			<point x="155" y="591"/>
			<point x="141" y="521"/>
			<point x="126" y="451" type="curve" smooth="yes"/>
		</contour>
		<contour>
			<point x="172" y="269" type="curve"/>
			<point x="182" y="261" type="line"/>
			<point x="225" y="293"/>
			<point x="265" y="312"/>
			<point x="313" y="336" type="curve" smooth="yes"/>
			<point x="336" y="350"/>
			<point x="405" y="367"/>
			<point x="432" y="379" type="curve" smooth="yes"/>
			<point x="479" y="393"/>
			<point x="496" y="413"/>
			<point x="496" y="443" type="curve" smooth="yes"/>
			<point x="496" y="470"/>
			<point x="477" y="489"/>
			<point x="450" y="493" type="curve"/>
			<point x="394" y="468"/>
			<point x="349" y="433"/>
			<point x="289" y="382" type="curve" smooth="yes"/>
			<point x="243" y="343"/>
			<point x="202" y="307"/>
		</contour>
		<contour>
			<point x="263" y="97" type="line" smooth="yes"/>
			<point x="282" y="13"/>
			<point x="311" y="-14"/>
			<point x="387" y="-14" type="curve" smooth="yes"/>
			<point x="416" y="-14"/>
			<point x="445" y="-8"/>
			<point x="478" y="1" type="curve"/>
			<point x="485" y="33" type="line"/>
			<point x="427" y="40" type="line"/>
			<point x="392" y="45"/>
			<point x="386" y="56"/>
			<point x="376" y="92" type="curve"/>
			<point x="353" y="175" type="line" smooth="yes"/>
			<point x="338" y="232"/>
			<point x="312" y="254"/>
			<point x="254" y="267" type="curve" smooth="yes"/>
			<point x="187" y="279" type="line"/>
			<point x="174" y="254" type="line"/>
			<point x="191" y="247" type="line" smooth="yes"/>
			<point x="225" y="235"/>
			<point x="236" y="227"/>
			<point x="249" y="164" type="curve" smooth="yes"/>
		</contour>
	</outline>
</glyph>
<glyph name="l" format="1">
	<unicode hex="006C"/>
	<advance width="307"/>
	<outline>
		<contour>
			<point x="130" y="-14" type="curve" smooth="yes"/>
			<point x="205" y="-14"/>
			<point x="268" y="57"/>
			<point x="308" y="124" type="curve"/>
			<point x="281" y="144" type="line"/>
			<point x="245" y="95"/>
			<point x="212" y="66"/>
			<point x="187" y="66" type="curve" smooth="yes"/>
			<point x="175" y="66"/>
			<point x="165" y="73"/>
			<point x="165" y="88" type="curve" smooth="yes"/>
			<point x="165" y="98"/>
			<point x="168" y="116"/>
			<point x="173" y="138" type="curve" smooth="yes"/>
			<point x="291" y="720" type="line"/>
			<point x="278" y="730" type="line"/>
			<point x="86" y="673" type="line"/>
			<point x="81" y="640" type="line"/>
			<point x="203" y="629" type="line"/>
			<point x="165" y="662" type="line"/>
			<point x="156" y="591"/>
			<point x="143" y="521"/>
			<point x="128" y="451" type="curve" smooth="yes"/>
			<point x="69" y="150" type="line" smooth="yes"/>
			<point x="61" y="108"/>
			<point x="56" y="80"/>
			<point x="56" y="61" type="curve" smooth="yes"/>
			<point x="56" y="13"/>
			<point x="85" y="-14"/>
		</contour>
		<contour>
			<point name="aboveLC" x="226" y="728" type="move"/>
		</contour>
		<contour>
			<point name="belowLC" x="126" y="-22" type="move"/>
		</contour>
	</outline>
</glyph>
<glyph name="m" format="1">
	<unicode hex="006D"/>
	<advance width="847"/>
	<outline>
		<contour>
			<point x="47" y="0" type="line"/>
			<point x="158" y="0" type="line"/>
			<point x="171" y="72"/>
			<point x="184" y="141"/>
			<point x="199" y="212" type="curve" smooth="yes"/>
			<point x="230" y="357" type="line"/>
			<point x="255" y="481" type="line"/>
			<point x="239" y="494" type="line"/>
			<point x="51" y="436" type="line"/>
			<point x="46" y="403" type="line"/>
			<point x="170" y="393" type="line"/>
			<point x="135" y="414" type="line"/>
		</contour>
		<contour>
			<point x="501" y="348" type="line" smooth="yes"/>
			<point x="507" y="372"/>
			<point x="511" y="395"/>
			<point x="511" y="417" type="curve" smooth="yes"/>
			<point x="511" y="468"/>
			<point x="484" y="493"/>
			<point x="439" y="493" type="curve" smooth="yes"/>
			<point x="368" y="493"/>
			<point x="287" y="439"/>
			<point x="216" y="364" type="curve"/>
			<point x="253" y="379" type="line"/>
			<point x="202" y="379" type="line"/>
			<point x="194" y="323" type="line"/>
			<point x="213" y="323" type="line"/>
			<point x="279" y="381"/>
			<point x="331" y="409"/>
			<point x="366" y="409" type="curve" smooth="yes"/>
			<point x="384" y="409"/>
			<point x="396" y="398"/>
			<point x="396" y="372" type="curve" smooth="yes"/>
			<point x="396" y="356"/>
			<point x="391" y="335"/>
			<point x="387" y="314" type="curve" smooth="yes"/>
			<point x="321" y="0" type="line"/>
			<point x="431" y="0" type="line"/>
			<point x="444" y="72"/>
			<point x="457" y="141"/>
			<point x="472" y="212" type="curve" smooth="yes"/>
		</contour>
		<contour>
			<point x="654" y="-14" type="curve" smooth="yes"/>
			<point x="739" y="-14"/>
			<point x="802" y="54"/>
			<point x="844" y="124" type="curve"/>
			<point x="816" y="144" type="line"/>
			<point x="780" y="95"/>
			<point x="747" y="66"/>
			<point x="722" y="66" type="curve" smooth="yes"/>
			<point x="711" y="66"/>
			<point x="704" y="73"/>
			<point x="704" y="86" type="curve" smooth="yes"/>
			<point x="704" y="96"/>
			<point x="708" y="114"/>
			<point x="714" y="137" type="curve" smooth="yes"/>
			<point x="762" y="324" type="line" smooth="yes"/>
			<point x="770" y="356"/>
			<point x="777" y="387"/>
			<point x="777" y="417" type="curve" smooth="yes"/>
			<point x="777" y="468"/>
			<point x="749" y="493"/>
			<point x="705" y="493" type="curve" smooth="yes"/>
			<point x="635" y="493"/>
			<point x="558" y="438"/>
			<point x="488" y="364" type="curve"/>
			<point x="525" y="378" type="line"/>
			<point x="474" y="378" type="line"/>
			<point x="466" y="322" type="line"/>
			<point x="485" y="322" type="line"/>
			<point x="549" y="380"/>
			<point x="598" y="409"/>
			<point x="632" y="409" type="curve" smooth="yes"/>
			<point x="650" y="409"/>
			<point x="662" y="398"/>
			<point x="662" y="370" type="curve" smooth="yes"/>
			<point x="662" y="351"/>
			<point x="656" y="321"/>
			<point x="647" y="289" type="curve" smooth="yes"/>
			<point x="604" y="122" type="line" smooth="yes"/>
			<point x="595" y="87"/>
			<point x="589" y="67"/>
			<point x="589" y="41" type="curve" smooth="yes"/>
			<point x="589" y="7"/>
			<point x="612" y="-14"/>
		</contour>
		<contour>
			<point name="aboveLC" x="463" y="511" type="move"/>
		</contour>
		<contour>
			<point name="belowLC" x="379" y="-22" type="move"/>
		</contour>
	</outline>
</glyph>
<glyph name="n" format="1">
	<unicode hex="006E"/>
	<advance width="570"/>
	<outline>
		<contour>
			<point x="384" y="-15" type="curve" smooth="yes"/>
			<point x="469" y="-15"/>
			<point x="531" y="54"/>
			<point x="573" y="124" type="curve"/>
			<point x="547" y="144" type="line"/>
			<point x="510" y="94"/>
			<point x="477" y="65"/>
			<point x="452" y="65" type="curve" smooth="yes"/>
			<point x="441" y="65"/>
			<point x="434" y="72"/>
			<point x="434" y="86" type="curve" smooth="yes"/>
			<point x="434" y="96"/>
			<point x="439" y="113"/>
			<point x="445" y="136" type="curve" smooth="yes"/>
			<point x="492" y="325" type="line" smooth="yes"/>
			<point x="500" y="357"/>
			<point x="507" y="388"/>
			<point x="507" y="417" type="curve" smooth="yes"/>
			<point x="507" y="468"/>
			<point x="479" y="494"/>
			<point x="434" y="494" type="curve" smooth="yes"/>
			<point x="365" y="494"/>
			<point x="285" y="438"/>
			<point x="215" y="364" type="curve"/>
			<point x="252" y="379" type="line"/>
			<point x="201" y="379" type="line"/>
			<point x="193" y="323" type="line"/>
			<point x="212" y="323" type="line"/>
			<point x="277" y="381"/>
			<point x="328" y="409"/>
			<point x="361" y="409" type="curve" smooth="yes"/>
			<point x="380" y="409"/>
			<point x="392" y="399"/>
			<point x="392" y="370" type="curve" smooth="yes"/>
			<point x="392" y="352"/>
			<point x="385" y="322"/>
			<point x="377" y="290" type="curve" smooth="yes"/>
			<point x="334" y="121" type="line" smooth="yes"/>
			<point x="326" y="86"/>
			<point x="320" y="67"/>
			<point x="320" y="40" type="curve" smooth="yes"/>
			<point x="320" y="5"/>
			<point x="342" y="-15"/>
		</contour>
		<contour>
			<point x="46" y="0" type="line"/>
			<point x="157" y="0" type="line"/>
			<point x="170" y="72"/>
			<point x="182" y="141"/>
			<point x="198" y="212" type="curve" smooth="yes"/>
			<point x="229" y="357" type="line"/>
			<point x="253" y="481" type="line"/>
			<point x="238" y="494" type="line"/>
			<point x="50" y="436" type="line"/>
			<point x="45" y="403" type="line"/>
			<point x="169" y="393" type="line"/>
			<point x="133" y="414" type="line"/>
		</contour>
	</outline>
</glyph>
<glyph name="o" format="1">
	<unicode hex="006F"/>
	<advance width="514"/>
	<outline>
		<contour>
			<point x="219" y="-14" type="curve" smooth="yes"/>
			<point x="390" y="-14"/>
			<point x="491" y="153"/>
			<point x="491" y="299" type="curve" smooth="yes"/>
			<point x="491" y="436"/>
			<point x="414" y="493"/>
			<point x="318" y="493" type="curve" smooth="yes"/>
			<point x="158" y="493"/>
			<point x="46" y="338"/>
			<point x="46" y="178" type="curve" smooth="yes"/>
			<point x="46" y="44"/>
			<point x="125" y="-14"/>
		</contour>
		<contour>
			<point x="232" y="33" type="curve" smooth="yes"/>
			<point x="186" y="33"/>
			<point x="161" y="77"/>
			<point x="161" y="148" type="curve" smooth="yes"/>
			<point x="161" y="277"/>
			<point x="227" y="446"/>
			<point x="307" y="446" type="curve" smooth="yes"/>
			<point x="346" y="446"/>
			<point x="376" y="409"/>
			<point x="376" y="329" type="curve" smooth="yes"/>
			<point x="376" y="225"/>
			<point x="323" y="33"/>
		</contour>
		<contour>
			<point name="hornLC" x="456" y="483" type="move"/>
		</contour>
		<contour>
			<point name="aboveLC" x="338" y="511" type="move"/>
		</contour>
		<contour>
			<point name="ogonek" x="319" y="0" type="move"/>
		</contour>
		<contour>
			<point name="belowLC" x="237" y="-22" type="move"/>
		</contour>
	</outline>
</glyph>
<glyph name="p" format="1">
	<unicode hex="0070"/>
	<advance width="537"/>
	<outline>
		<contour>
			<point x="-3" y="-234" type="line"/>
			<point x="109" y="-234" type="line"/>
			<point x="120" y="-164"/>
			<point x="133" y="-96"/>
			<point x="148" y="-28" type="curve"/>
			<point x="255" y="481" type="line"/>
			<point x="239" y="494" type="line"/>
			<point x="51" y="436" type="line"/>
			<point x="46" y="403" type="line"/>
			<point x="169" y="393" type="line"/>
			<point x="135" y="414" type="line"/>
		</contour>
		<contour>
			<point x="101" y="38" type="line"/>
			<point x="132" y="1"/>
			<point x="163" y="-14"/>
			<point x="203" y="-14" type="curve" smooth="yes"/>
			<point x="361" y="-14"/>
			<point x="520" y="179"/>
			<point x="520" y="357" type="curve" smooth="yes"/>
			<point x="520" y="458"/>
			<point x="474" y="493"/>
			<point x="422" y="493" type="curve" smooth="yes"/>
			<point x="351" y="493"/>
			<point x="253" y="426"/>
			<point x="194" y="324" type="curve"/>
			<point x="203" y="310" type="line"/>
			<point x="257" y="370"/>
			<point x="311" y="409"/>
			<point x="351" y="409" type="curve" smooth="yes"/>
			<point x="387" y="409"/>
			<point x="409" y="379"/>
			<point x="409" y="315" type="curve" smooth="yes"/>
			<point x="409" y="249"/>
			<point x="387" y="175"/>
			<point x="350" y="126" type="curve" smooth="yes"/>
			<point x="316" y="81"/>
			<point x="274" y="51"/>
			<point x="222" y="51" type="curve" smooth="yes"/>
			<point x="195" y="51"/>
			<point x="166" y="59"/>
			<point x="130" y="84" type="curve"/>
		</contour>
		<contour>
			<point x="-74" y="-234" type="line"/>
			<point x="191" y="-234" type="line"/>
			<point x="199" y="-197" type="line"/>
			<point x="78" y="-179" type="line"/>
			<point x="48" y="-179" type="line"/>
			<point x="-66" y="-197" type="line"/>
		</contour>
		<contour>
			<point name="aboveLC" x="318" y="511" type="move"/>
		</contour>
		<contour>
			<point name="belowLC" x="54" y="-247" type="move"/>
		</contour>
	</outline>
</glyph>
<glyph name="q" format="1">
	<unicode hex="0071"/>
	<advance width="531"/>
	<outline>
		<contour>
			<point x="139" y="-14" type="curve" smooth="yes"/>
			<point x="210" y="-14"/>
			<point x="311" y="55"/>
			<point x="372" y="149" type="curve"/>
			<point x="365" y="174" type="line"/>
			<point x="303" y="100"/>
			<point x="250" y="72"/>
			<point x="211" y="72" type="curve" smooth="yes"/>
			<point x="172" y="72"/>
			<point x="152" y="102"/>
			<point x="152" y="161" type="curve" smooth="yes"/>
			<point x="152" y="238"/>
			<point x="185" y="326"/>
			<point x="233" y="374" type="curve" smooth="yes"/>
			<point x="259" y="401"/>
			<point x="289" y="417"/>
			<point x="322" y="417" type="curve" smooth="yes"/>
			<point x="353" y="417"/>
			<point x="379" y="408"/>
			<point x="409" y="383" type="curve"/>
			<point x="459" y="440" type="line"/>
			<point x="428" y="477"/>
			<point x="400" y="493"/>
			<point x="361" y="493" type="curve" smooth="yes"/>
			<point x="215" y="493"/>
			<point x="42" y="290"/>
			<point x="42" y="120" type="curve" smooth="yes"/>
			<point x="42" y="22"/>
			<point x="88" y="-14"/>
		</contour>
		<contour>
			<point x="179" y="-234" type="line"/>
			<point x="444" y="-234" type="line"/>
			<point x="452" y="-197" type="line"/>
			<point x="333" y="-179" type="line"/>
			<point x="303" y="-179" type="line"/>
			<point x="186" y="-197" type="line"/>
		</contour>
		<contour>
			<point x="512" y="486" type="line"/>
			<point x="495" y="497" type="line"/>
			<point x="398" y="444" type="line"/>
			<point x="254" y="-234" type="line"/>
			<point x="366" y="-234" type="line"/>
			<point x="377" y="-166"/>
			<point x="389" y="-98"/>
			<point x="404" y="-28" type="curve" smooth="yes"/>
		</contour>
		<contour>
			<point name="aboveLC" x="379" y="511" type="move"/>
		</contour>
		<contour>
			<point name="belowLC" x="305" y="-247" type="move"/>
		</contour>
	</outline>
</glyph>
<glyph name="r" format="1">
	<unicode hex="0072"/>
	<advance width="428"/>
	<outline>
		<contour>
			<point x="218" y="240" type="line"/>
			<point x="256" y="320"/>
			<point x="302" y="385"/>
			<point x="368" y="439" type="curve"/>
			<point x="319" y="441" type="line"/>
			<point x="332" y="427" type="line" smooth="yes"/>
			<point x="359" y="400"/>
			<point x="384" y="383"/>
			<point x="410" y="383" type="curve" smooth="yes"/>
			<point x="449" y="383"/>
			<point x="470" y="413"/>
			<point x="470" y="453" type="curve"/>
			<point x="457" y="480"/>
			<point x="429" y="493"/>
			<point x="398" y="493" type="curve" smooth="yes"/>
			<point x="330" y="493"/>
			<point x="259" y="395"/>
			<point x="214" y="290" type="curve"/>
		</contour>
		<contour>
			<point x="62" y="2" type="line"/>
			<point x="74" y="-8" type="line"/>
			<point x="172" y="0" type="line"/>
			<point x="186" y="72"/>
			<point x="199" y="141"/>
			<point x="213" y="212" type="curve" smooth="yes"/>
			<point x="233" y="305" type="line"/>
			<point x="233" y="319" type="line"/>
			<point x="260" y="481" type="line"/>
			<point x="244" y="494" type="line"/>
			<point x="65" y="436" type="line"/>
			<point x="60" y="403" type="line"/>
			<point x="184" y="393" type="line"/>
			<point x="149" y="414" type="line"/>
		</contour>
		<contour>
			<point name="aboveLC" x="305" y="511" type="move"/>
		</contour>
		<contour>
			<point name="belowLC" x="115" y="-22" type="move"/>
		</contour>
	</outline>
</glyph>
<glyph name="s" format="1">
	<unicode hex="0073"/>
	<advance width="390"/>
	<outline>
		<contour>
			<point x="159" y="1" type="line"/>
			<point x="143" y="72" type="line" smooth="yes"/>
			<point x="135" y="109"/>
			<point x="115" y="125"/>
			<point x="84" y="125" type="curve" smooth="yes"/>
			<point x="59" y="125"/>
			<point x="42" y="109"/>
			<point x="37" y="85" type="curve"/>
			<point x="46" y="21"/>
			<point x="92" y="-14"/>
			<point x="174" y="-14" type="curve" smooth="yes"/>
			<point x="294" y="-14"/>
			<point x="363" y="51"/>
			<point x="363" y="136" type="curve" smooth="yes"/>
			<point x="363" y="191"/>
			<point x="341" y="223"/>
			<point x="279" y="270" type="curve" smooth="yes"/>
			<point x="224" y="311"/>
			<point x="200" y="333"/>
			<point x="200" y="376" type="curve" smooth="yes"/>
			<point x="200" y="417"/>
			<point x="226" y="455"/>
			<point x="287" y="455" type="curve" smooth="yes"/>
			<point x="297" y="455"/>
			<point x="321" y="454"/>
			<point x="327" y="452" type="curve"/>
			<point x="281" y="475" type="line"/>
			<point x="302" y="415" type="line" smooth="yes"/>
			<point x="314" y="378"/>
			<point x="337" y="361"/>
			<point x="362" y="361" type="curve" smooth="yes"/>
			<point x="388" y="361"/>
			<point x="404" y="375"/>
			<point x="409" y="399" type="curve"/>
			<point x="395" y="462"/>
			<point x="351" y="493"/>
			<point x="271" y="493" type="curve" smooth="yes"/>
			<point x="167" y="493"/>
			<point x="102" y="425"/>
			<point x="102" y="339" type="curve" smooth="yes"/>
			<point x="102" y="279"/>
			<point x="139" y="242"/>
			<point x="195" y="199" type="curve" smooth="yes"/>
			<point x="246" y="160"/>
			<point x="261" y="135"/>
			<point x="261" y="104" type="curve" smooth="yes"/>
			<point x="261" y="56"/>
			<point x="225" y="23"/>
			<point x="164" y="23" type="curve" smooth="yes"/>
			<point x="154" y="23"/>
			<point x="123" y="25"/>
			<point x="110" y="29" type="curve"/>
		</contour>
		<contour>
			<point name="aboveLC" x="263" y="511" type="move"/>
		</contour>
		<contour>
			<point name="baseLC" x="142" y="0" type="move"/>
		</contour>
		<contour>
			<point name="belowLC" x="137" y="-22" type="move"/>
		</contour>
	</outline>
</glyph>
<glyph name="t" format="1">
	<unicode hex="0074"/>
	<advance width="358"/>
	<outline>
		<contour>
			<point x="48" y="426" type="line"/>
			<point x="186" y="426" type="line"/>
			<point x="367" y="420" type="line"/>
			<point x="377" y="479" type="line"/>
			<point x="192" y="479" type="line"/>
			<point x="192" y="483" type="line"/>
			<point x="56" y="470" type="line"/>
		</contour>
		<contour>
			<point x="82" y="131" type="line" smooth="yes"/>
			<point x="75" y="96"/>
			<point x="72" y="73"/>
			<point x="72" y="54" type="curve" smooth="yes"/>
			<point x="72" y="12"/>
			<point x="99" y="-14"/>
			<point x="140" y="-14" type="curve" smooth="yes"/>
			<point x="222" y="-14"/>
			<point x="284" y="55"/>
			<point x="325" y="124" type="curve"/>
			<point x="298" y="144" type="line"/>
			<point x="262" y="95"/>
			<point x="229" y="66"/>
			<point x="204" y="66" type="curve" smooth="yes"/>
			<point x="192" y="66"/>
			<point x="183" y="73"/>
			<point x="183" y="88" type="curve" smooth="yes"/>
			<point x="183" y="98"/>
			<point x="186" y="116"/>
			<point x="191" y="138" type="curve" smooth="yes"/>
			<point x="290" y="615" type="line"/>
			<point x="215" y="615" type="line"/>
			<point x="149" y="454" type="line"/>
		</contour>
		<contour>
			<point name="aboveLC" x="255" y="635" type="move"/>
		</contour>
		<contour>
			<point name="baseLC" x="151" y="0" type="move"/>
		</contour>
		<contour>
			<point name="belowLC" x="144" y="-22" type="move"/>
		</contour>
	</outline>
</glyph>
<glyph name="u" format="1">
	<unicode hex="0075"/>
	<advance width="589"/>
	<outline>
		<contour>
			<point x="143" y="-14" type="curve" smooth="yes"/>
			<point x="215" y="-14"/>
			<point x="293" y="42"/>
			<point x="380" y="137" type="curve"/>
			<point x="377" y="167" type="line"/>
			<point x="301" y="100"/>
			<point x="257" y="72"/>
			<point x="217" y="72" type="curve" smooth="yes"/>
			<point x="195" y="72"/>
			<point x="180" y="84"/>
			<point x="180" y="113" type="curve" smooth="yes"/>
			<point x="180" y="134"/>
			<point x="186" y="161"/>
			<point x="193" y="195" type="curve"/>
			<point x="259" y="481" type="line"/>
			<point x="244" y="494" type="line"/>
			<point x="51" y="437" type="line"/>
			<point x="46" y="403" type="line"/>
			<point x="165" y="393" type="line"/>
			<point x="137" y="420" type="line"/>
			<point x="83" y="176" type="line"/>
			<point x="75" y="139"/>
			<point x="66" y="97"/>
			<point x="66" y="65" type="curve" smooth="yes"/>
			<point x="66" y="10"/>
			<point x="101" y="-14"/>
		</contour>
		<contour>
			<point x="342" y="122" type="line" smooth="yes"/>
			<point x="334" y="87"/>
			<point x="331" y="67"/>
			<point x="331" y="46" type="curve" smooth="yes"/>
			<point x="331" y="6"/>
			<point x="358" y="-14"/>
			<point x="397" y="-14" type="curve" smooth="yes"/>
			<point x="483" y="-14"/>
			<point x="544" y="55"/>
			<point x="587" y="124" type="curve"/>
			<point x="558" y="144" type="line"/>
			<point x="522" y="95"/>
			<point x="489" y="66"/>
			<point x="464" y="66" type="curve" smooth="yes"/>
			<point x="453" y="66"/>
			<point x="444" y="73"/>
			<point x="444" y="87" type="curve" smooth="yes"/>
			<point x="444" y="98"/>
			<point x="447" y="116"/>
			<point x="453" y="140" type="curve" smooth="yes"/>
			<point x="526" y="481" type="line"/>
			<point x="509" y="494" type="line"/>
			<point x="410" y="462" type="line"/>
			<point x="403" y="422"/>
			<point x="386" y="332"/>
			<point x="378" y="292" type="curve" smooth="yes"/>
		</contour>
		<contour>
			<point name="hornLC" x="515" y="469" type="move"/>
		</contour>
		<contour>
			<point name="aboveLC" x="336" y="511" type="move"/>
		</contour>
		<contour>
			<point name="ogonek" x="445" y="0" type="move"/>
		</contour>
		<contour>
			<point name="belowLC" x="275" y="-22" type="move"/>
		</contour>
	</outline>
</glyph>
<glyph name="v" format="1">
	<unicode hex="0076"/>
	<advance width="496"/>
	<outline>
		<contour>
			<point x="175" y="-1" type="curve"/>
			<point x="184" y="-8" type="line"/>
			<point x="235" y="-3" type="line"/>
			<point x="337" y="101"/>
			<point x="427" y="218"/>
			<point x="475" y="306" type="curve" smooth="yes"/>
			<point x="517" y="384"/>
			<point x="522" y="412"/>
			<point x="522" y="436" type="curve" smooth="yes"/>
			<point x="522" y="460"/>
			<point x="520" y="470"/>
			<point x="512" y="481" type="curve"/>
			<point x="504" y="488"/>
			<point x="489" y="495"/>
			<point x="470" y="495" type="curve" smooth="yes"/>
			<point x="430" y="495"/>
			<point x="401" y="471"/>
			<point x="401" y="417" type="curve" smooth="yes"/>
			<point x="401" y="399"/>
			<point x="408" y="377"/>
			<point x="414" y="357" type="curve" smooth="yes"/>
			<point x="434" y="280" type="line"/>
			<point x="448" y="371" type="line"/>
			<point x="442" y="359"/>
			<point x="436" y="348"/>
			<point x="430" y="336" type="curve" smooth="yes"/>
			<point x="378" y="238"/>
			<point x="327" y="161"/>
			<point x="254" y="72" type="curve"/>
			<point x="272" y="73" type="line"/>
			<point x="272" y="150"/>
			<point x="258" y="345"/>
			<point x="248" y="405" type="curve" smooth="yes"/>
			<point x="240" y="465"/>
			<point x="220" y="493"/>
			<point x="174" y="493" type="curve" smooth="yes"/>
			<point x="125" y="493"/>
			<point x="79" y="453"/>
			<point x="35" y="376" type="curve"/>
			<point x="58" y="355" type="line"/>
			<point x="85" y="394"/>
			<point x="100" y="406"/>
			<point x="115" y="406" type="curve" smooth="yes"/>
			<point x="128" y="406"/>
			<point x="137" y="400"/>
			<point x="141" y="365" type="curve" smooth="yes"/>
			<point x="150" y="299"/>
			<point x="173" y="99"/>
		</contour>
		<contour>
			<point name="aboveLC" x="320" y="505" type="move"/>
		</contour>
		<contour>
			<point name="belowLC" x="182" y="-22" type="move"/>
		</contour>
	</outline>
</glyph>
<glyph name="w" format="1">
	<unicode hex="0077"/>
	<advance width="754"/>
	<outline>
		<contour>
			<point x="167" y="-8" type="line"/>
			<point x="221" y="-6" type="line"/>
			<point x="287" y="68"/>
			<point x="406" y="300"/>
			<point x="435" y="358" type="curve"/>
			<point x="402" y="333" type="line"/>
			<point x="403" y="324"/>
			<point x="429" y="28"/>
			<point x="431" y="-1" type="curve"/>
			<point x="437" y="-8" type="line"/>
			<point x="486" y="-6" type="line"/>
			<point x="588" y="99"/>
			<point x="674" y="216"/>
			<point x="722" y="306" type="curve" smooth="yes"/>
			<point x="763" y="382"/>
			<point x="770" y="411"/>
			<point x="770" y="435" type="curve" smooth="yes"/>
			<point x="770" y="459"/>
			<point x="767" y="470"/>
			<point x="760" y="481" type="curve"/>
			<point x="752" y="488"/>
			<point x="738" y="494"/>
			<point x="721" y="495" type="curve" smooth="yes"/>
			<point x="682" y="495"/>
			<point x="649" y="471"/>
			<point x="649" y="417" type="curve" smooth="yes"/>
			<point x="649" y="400"/>
			<point x="655" y="378"/>
			<point x="660" y="359" type="curve" smooth="yes"/>
			<point x="676" y="280" type="line"/>
			<point x="698" y="363" type="line"/>
			<point x="692" y="351"/>
			<point x="687" y="340"/>
			<point x="681" y="329" type="curve" smooth="yes"/>
			<point x="627" y="233"/>
			<point x="575" y="163"/>
			<point x="505" y="75" type="curve"/>
			<point x="530" y="75" type="line"/>
			<point x="530" y="85"/>
			<point x="500" y="462"/>
			<point x="499" y="476" type="curve"/>
			<point x="436" y="476" type="line"/>
			<point x="393" y="376"/>
			<point x="284" y="160"/>
			<point x="234" y="89" type="curve"/>
			<point x="254" y="83" type="line"/>
			<point x="254" y="158"/>
			<point x="242" y="356"/>
			<point x="233" y="412" type="curve" smooth="yes"/>
			<point x="226" y="468"/>
			<point x="205" y="493"/>
			<point x="158" y="493" type="curve" smooth="yes"/>
			<point x="111" y="493"/>
			<point x="65" y="453"/>
			<point x="21" y="376" type="curve"/>
			<point x="41" y="354" type="line"/>
			<point x="71" y="390"/>
			<point x="86" y="404"/>
			<point x="101" y="404" type="curve" smooth="yes"/>
			<point x="115" y="404"/>
			<point x="123" y="398"/>
			<point x="128" y="364" type="curve" smooth="yes"/>
			<point x="136" y="300"/>
			<point x="160" y="101"/>
			<point x="161" y="-1" type="curve"/>
		</contour>
		<contour>
			<point name="aboveLC" x="467" y="511" type="move"/>
		</contour>
		<contour>
			<point name="belowLC" x="331" y="-22" type="move"/>
		</contour>
	</outline>
</glyph>
<glyph name="x" format="1">
	<unicode hex="0078"/>
	<advance width="558"/>
	<outline>
		<contour>
			<point x="-10" y="65" type="curve"/>
			<point x="-5" y="13"/>
			<point x="37" y="-15"/>
			<point x="75" y="-15" type="curve" smooth="yes"/>
			<point x="105" y="-15"/>
			<point x="125" y="-6"/>
			<point x="148" y="19" type="curve" smooth="yes"/>
			<point x="191" y="69"/>
			<point x="235" y="137"/>
			<point x="288" y="225" type="curve"/>
			<point x="275" y="263" type="line"/>
			<point x="222" y="184"/>
			<point x="177" y="119"/>
			<point x="119" y="56" type="curve" smooth="yes"/>
			<point x="108" y="44"/>
			<point x="98" y="35"/>
			<point x="85" y="25" type="curve"/>
			<point x="133" y="28" type="line"/>
			<point x="107" y="69" type="line" smooth="yes"/>
			<point x="87" y="102"/>
			<point x="72" y="113"/>
			<point x="46" y="113" type="curve" smooth="yes"/>
			<point x="25" y="113"/>
			<point x="-5" y="95"/>
		</contour>
		<contour>
			<point x="281" y="75" type="line" smooth="yes"/>
			<point x="300" y="10"/>
			<point x="331" y="-15"/>
			<point x="379" y="-15" type="curve" smooth="yes"/>
			<point x="453" y="-15"/>
			<point x="500" y="55"/>
			<point x="539" y="124" type="curve"/>
			<point x="513" y="144" type="line"/>
			<point x="481" y="97"/>
			<point x="447" y="67"/>
			<point x="423" y="67" type="curve" smooth="yes"/>
			<point x="399" y="67"/>
			<point x="385" y="81"/>
			<point x="373" y="128" type="curve" smooth="yes"/>
			<point x="297" y="404" type="line" smooth="yes"/>
			<point x="279" y="472"/>
			<point x="252" y="494"/>
			<point x="210" y="494" type="curve" smooth="yes"/>
			<point x="156" y="494"/>
			<point x="106" y="455"/>
			<point x="74" y="361" type="curve"/>
			<point x="98" y="346" type="line"/>
			<point x="127" y="398"/>
			<point x="148" y="413"/>
			<point x="168" y="413" type="curve" smooth="yes"/>
			<point x="179" y="413"/>
			<point x="186" y="404"/>
			<point x="196" y="369" type="curve" smooth="yes"/>
		</contour>
		<contour>
			<point x="309" y="217" type="line"/>
			<point x="356" y="285"/>
			<point x="398" y="353"/>
			<point x="455" y="413" type="curve" smooth="yes"/>
			<point x="467" y="427"/>
			<point x="480" y="439"/>
			<point x="493" y="449" type="curve"/>
			<point x="445" y="445" type="line"/>
			<point x="469" y="409" type="line" smooth="yes"/>
			<point x="487" y="381"/>
			<point x="499" y="368"/>
			<point x="525" y="368" type="curve" smooth="yes"/>
			<point x="555" y="368"/>
			<point x="579" y="394"/>
			<point x="583" y="420" type="curve"/>
			<point x="571" y="468"/>
			<point x="540" y="494"/>
			<point x="508" y="494" type="curve" smooth="yes"/>
			<point x="475" y="494"/>
			<point x="452" y="484"/>
			<point x="421" y="447" type="curve" smooth="yes"/>
			<point x="393" y="414"/>
			<point x="347" y="343"/>
			<point x="294" y="256" type="curve"/>
		</contour>
	</outline>
</glyph>
<glyph name="y" format="1">
	<unicode hex="0079"/>
	<advance width="501"/>
	<outline>
		<contour>
			<point x="-128" y="-171" type="curve" smooth="yes"/>
			<point x="-128" y="-213"/>
			<point x="-88" y="-244"/>
			<point x="-29" y="-244" type="curve" smooth="yes"/>
			<point x="32" y="-244"/>
			<point x="84" y="-206"/>
			<point x="142" y="-142" type="curve" smooth="yes"/>
			<point x="192" y="-87"/>
			<point x="226" y="-49"/>
			<point x="264" y="2" type="curve" smooth="yes"/>
			<point x="317" y="74"/>
			<point x="366" y="152"/>
			<point x="404" y="215" type="curve" smooth="yes"/>
			<point x="441" y="275"/>
			<point x="467" y="319"/>
			<point x="490" y="359" type="curve" smooth="yes"/>
			<point x="513" y="399"/>
			<point x="525" y="422"/>
			<point x="525" y="452" type="curve" smooth="yes"/>
			<point x="525" y="480"/>
			<point x="504" y="497"/>
			<point x="475" y="497" type="curve" smooth="yes"/>
			<point x="436" y="497"/>
			<point x="418" y="478"/>
			<point x="389" y="370" type="curve" smooth="yes"/>
			<point x="351" y="227"/>
			<point x="312" y="136"/>
			<point x="254" y="43" type="curve" smooth="yes"/>
			<point x="220" y="-3"/>
			<point x="162" y="-63"/>
			<point x="135" y="-90" type="curve" smooth="yes"/>
			<point x="95" y="-136"/>
			<point x="59" y="-167"/>
			<point x="5" y="-203" type="curve"/>
			<point x="51" y="-211" type="line"/>
			<point x="15" y="-171" type="line" smooth="yes"/>
			<point x="-13" y="-136"/>
			<point x="-35" y="-120"/>
			<point x="-68" y="-120" type="curve" smooth="yes"/>
			<point x="-87" y="-120"/>
			<point x="-106" y="-125"/>
			<point x="-120" y="-138" type="curve"/>
			<point x="-126" y="-148"/>
			<point x="-128" y="-157"/>
		</contour>
		<contour>
			<point x="266" y="43" type="line"/>
			<point x="263" y="104"/>
			<point x="246" y="293"/>
			<point x="238" y="370" type="curve" smooth="yes"/>
			<point x="227" y="467"/>
			<point x="205" y="493"/>
			<point x="161" y="493" type="curve" smooth="yes"/>
			<point x="115" y="493"/>
			<point x="68" y="458"/>
			<point x="21" y="376" type="curve"/>
			<point x="41" y="354" type="line"/>
			<point x="71" y="390"/>
			<point x="87" y="404"/>
			<point x="102" y="404" type="curve" smooth="yes"/>
			<point x="118" y="404"/>
			<point x="124" y="392"/>
			<point x="136" y="301" type="curve" smooth="yes"/>
			<point x="147" y="218"/>
			<point x="181" y="16"/>
			<point x="186" y="-57" type="curve"/>
		</contour>
		<contour>
			<point name="aboveLC" x="332" y="505" type="move"/>
		</contour>
		<contour>
			<point name="belowLC" x="-6" y="-249" type="move"/>
		</contour>
	</outline>
</glyph>
<glyph name="z" format="1">
	<unicode hex="007A"/>
	<advance width="479"/>
	<outline>
		<contour>
			<point x="127" y="93" type="line"/>
			<point x="185" y="150"/>
			<point x="324" y="282"/>
			<point x="381" y="342" type="curve" smooth="yes"/>
			<point x="437" y="396"/>
			<point x="476" y="439"/>
			<point x="488" y="481" type="curve"/>
			<point x="475" y="491" type="line"/>
			<point x="406" y="485" type="line"/>
			<point x="362" y="384" type="line"/>
			<point x="307" y="321"/>
			<point x="149" y="169"/>
			<point x="91" y="112" type="curve" smooth="yes"/>
			<point x="46" y="69"/>
			<point x="21" y="39"/>
			<point x="1" y="0" type="curve"/>
			<point x="20" y="-14" type="line"/>
			<point x="101" y="-7" type="line"/>
		</contour>
		<contour>
			<point x="101" y="82" type="line"/>
			<point x="159" y="34" type="line" smooth="yes"/>
			<point x="194" y="5"/>
			<point x="256" y="-32"/>
			<point x="300" y="-32" type="curve" smooth="yes"/>
			<point x="374" y="-32"/>
			<point x="464" y="67"/>
			<point x="464" y="132" type="curve" smooth="yes"/>
			<point x="464" y="156"/>
			<point x="461" y="172"/>
			<point x="454" y="190" type="curve"/>
			<point x="443" y="197"/>
			<point x="430" y="201"/>
			<point x="418" y="201" type="curve" smooth="yes"/>
			<point x="388" y="201"/>
			<point x="365" y="170"/>
			<point x="365" y="144" type="curve" smooth="yes"/>
			<point x="365" y="117"/>
			<point x="378" y="101"/>
			<point x="392" y="85" type="curve" smooth="yes"/>
			<point x="413" y="62" type="line"/>
			<point x="427" y="82" type="line"/>
			<point x="398" y="71"/>
			<point x="369" y="67"/>
			<point x="340" y="67" type="curve" smooth="yes"/>
			<point x="289" y="67"/>
			<point x="233" y="88"/>
			<point x="183" y="110" type="curve" smooth="yes"/>
			<point x="136" y="134" type="line"/>
		</contour>
		<contour>
			<point x="367" y="342" type="curve"/>
			<point x="400" y="397" type="line"/>
			<point x="318" y="436"/>
			<point x="232" y="469"/>
			<point x="140" y="495" type="curve"/>
			<point x="59" y="423" type="line"/>
			<point x="48" y="274" type="line"/>
			<point x="99" y="270" type="line"/>
			<point x="144" y="439" type="line"/>
			<point x="99" y="401" type="line"/>
			<point x="202" y="383"/>
			<point x="281" y="366"/>
		</contour>
		<contour>
			<point name="aboveLC" x="296" y="511" type="move"/>
		</contour>
		<contour>
			<point name="belowLC" x="188" y="-22" type="move"/>
		</contour>
	</outline>
</glyph>
<glyph name="bar" format="1">
	<unicode hex="007C"/>
	<advance width="114"/>
	<outline>
		<contour>
			<point x="-37" y="0" type="line"/>
			<point x="77" y="0" type="line"/>
			<point x="216" y="653" type="line"/>
			<point x="102" y="653" type="line"/>
		</contour>
	</outline>
</glyph>
<glyph name="currency" format="1">
	<unicode hex="00A4"/>
	<advance width="497"/>
	<outline>
		<contour>
			<point x="77" y="119" type="curve" smooth="yes"/>
			<point x="89" y="103"/>
			<point x="107" y="103"/>
			<point x="132" y="123" type="curve" smooth="yes"/>
			<point x="149" y="137"/>
			<point x="179" y="173"/>
			<point x="201" y="197" type="curve"/>
			<point x="177" y="227" type="line"/>
			<point x="150" y="210"/>
			<point x="109" y="187"/>
			<point x="92" y="173" type="curve" smooth="yes"/>
			<point x="68" y="152"/>
			<point x="64" y="134"/>
		</contour>
		<contour>
			<point x="129" y="529" type="curve" smooth="yes"/>
			<point x="113" y="514"/>
			<point x="113" y="496"/>
			<point x="133" y="475" type="curve" smooth="yes"/>
			<point x="147" y="461"/>
			<point x="183" y="438"/>
			<point x="207" y="421" type="curve"/>
			<point x="237" y="451" type="line"/>
			<point x="220" y="475"/>
			<point x="197" y="511"/>
			<point x="183" y="525" type="curve" smooth="yes"/>
			<point x="162" y="545"/>
			<point x="144" y="545"/>
		</contour>
		<contour>
			<point x="329" y="503" type="curve" smooth="yes"/>
			<point x="234" y="503"/>
			<point x="136" y="427"/>
			<point x="136" y="309" type="curve" smooth="yes"/>
			<point x="136" y="219"/>
			<point x="206" y="155"/>
			<point x="299" y="155" type="curve" smooth="yes"/>
			<point x="394" y="155"/>
			<point x="491" y="231"/>
			<point x="491" y="349" type="curve" smooth="yes"/>
			<point x="491" y="439"/>
			<point x="421" y="503"/>
		</contour>
		<contour>
			<point x="499" y="119" type="curve" smooth="yes"/>
			<point x="515" y="134"/>
			<point x="515" y="152"/>
			<point x="495" y="173" type="curve" smooth="yes"/>
			<point x="481" y="187"/>
			<point x="445" y="210"/>
			<point x="421" y="227" type="curve"/>
			<point x="391" y="197" type="line"/>
			<point x="408" y="173"/>
			<point x="431" y="137"/>
			<point x="445" y="123" type="curve" smooth="yes"/>
			<point x="466" y="103"/>
			<point x="484" y="103"/>
		</contour>
		<contour>
			<point x="551" y="529" type="curve" smooth="yes"/>
			<point x="539" y="545"/>
			<point x="521" y="545"/>
			<point x="496" y="525" type="curve" smooth="yes"/>
			<point x="479" y="511"/>
			<point x="449" y="475"/>
			<point x="427" y="451" type="curve"/>
			<point x="451" y="421" type="line"/>
			<point x="478" y="438"/>
			<point x="519" y="461"/>
			<point x="536" y="475" type="curve" smooth="yes"/>
			<point x="560" y="496"/>
			<point x="564" y="514"/>
		</contour>
		<contour>
			<point x="324" y="454" type="curve" smooth="yes"/>
			<point x="388" y="454"/>
			<point x="436" y="409"/>
			<point x="436" y="344" type="curve" smooth="yes"/>
			<point x="436" y="260"/>
			<point x="370" y="204"/>
			<point x="303" y="204" type="curve" smooth="yes"/>
			<point x="239" y="204"/>
			<point x="191" y="249"/>
			<point x="191" y="313" type="curve" smooth="yes"/>
			<point x="192" y="398"/>
			<point x="259" y="454"/>
		</contour>
	</outline>
</glyph>
<glyph name="copyright" format="1">
	<unicode hex="00A9"/>
	<advance width="750"/>
	<outline>
		<contour>
			<point x="119" y="333" type="curve" smooth="yes"/>
			<point x="119" y="519"/>
			<point x="248" y="634"/>
			<point x="409" y="634" type="curve" smooth="yes"/>
			<point x="570" y="634"/>
			<point x="698" y="519"/>
			<point x="698" y="333" type="curve" smooth="yes"/>
			<point x="698" y="147"/>
			<point x="570" y="29"/>
			<point x="409" y="29" type="curve" smooth="yes"/>
			<point x="248" y="29"/>
			<point x="119" y="147"/>
		</contour>
		<contour>
			<point x="63" y="333" type="curve" smooth="yes"/>
			<point x="63" y="118"/>
			<point x="220" y="-17"/>
			<point x="409" y="-17" type="curve" smooth="yes"/>
			<point x="598" y="-17"/>
			<point x="754" y="118"/>
			<point x="754" y="333" type="curve" smooth="yes"/>
			<point x="754" y="548"/>
			<point x="598" y="680"/>
			<point x="409" y="680" type="curve" smooth="yes"/>
			<point x="220" y="680"/>
			<point x="63" y="548"/>
		</contour>
		<contour>
			<point x="403" y="129" type="curve" smooth="yes"/>
			<point x="448" y="129"/>
			<point x="483" y="142"/>
			<point x="514" y="157" type="curve"/>
			<point x="530" y="251" type="line"/>
			<point x="484" y="251" type="line"/>
			<point x="452" y="155" type="line"/>
			<point x="497" y="192" type="line"/>
			<point x="472" y="179"/>
			<point x="445" y="170"/>
			<point x="418" y="170" type="curve" smooth="yes"/>
			<point x="353" y="170"/>
			<point x="308" y="219"/>
			<point x="308" y="313" type="curve" smooth="yes"/>
			<point x="308" y="405"/>
			<point x="360" y="499"/>
			<point x="456" y="499" type="curve" smooth="yes"/>
			<point x="485" y="499"/>
			<point x="513" y="489"/>
			<point x="535" y="468" type="curve"/>
			<point x="502" y="507" type="line"/>
			<point x="502" y="417" type="line"/>
			<point x="548" y="417" type="line"/>
			<point x="562" y="509" type="line"/>
			<point x="525" y="531"/>
			<point x="493" y="539"/>
			<point x="454" y="539" type="curve" smooth="yes"/>
			<point x="323" y="539"/>
			<point x="228" y="435"/>
			<point x="228" y="311" type="curve" smooth="yes"/>
			<point x="228" y="196"/>
			<point x="300" y="129"/>
		</contour>
	</outline>
</glyph>
<glyph name="logicalnot" format="1">
	<unicode hex="00AC"/>
	<advance width="497"/>
	<outline>
		<contour>
			<point x="95" y="340" type="line"/>
			<point x="476" y="340" type="line"/>
			<point x="459" y="364" type="line"/>
			<point x="459" y="203" type="line"/>
			<point x="525" y="203" type="line"/>
			<point x="525" y="400" type="line"/>
			<point x="95" y="400" type="line"/>
		</contour>
	</outline>
</glyph>
<glyph name="germandbls" format="1">
	<unicode hex="00DF"/>
	<advance width="524"/>
	<outline>
		<contour>
			<point x="374" y="716" type="curve" smooth="yes"/>
			<point x="415" y="716"/>
			<point x="448" y="688"/>
			<point x="448" y="631" type="curve" smooth="yes"/>
			<point x="448" y="590"/>
			<point x="431" y="557"/>
			<point x="384" y="512" type="curve" smooth="yes"/>
			<point x="321" y="452"/>
			<point x="277" y="408"/>
			<point x="277" y="348" type="curve" smooth="yes"/>
			<point x="277" y="296"/>
			<point x="308" y="254"/>
			<point x="360" y="211" type="curve" smooth="yes"/>
			<point x="412" y="166"/>
			<point x="422" y="141"/>
			<point x="422" y="114" type="curve" smooth="yes"/>
			<point x="422" y="63"/>
			<point x="377" y="24"/>
			<point x="318" y="24" type="curve" smooth="yes"/>
			<point x="297" y="24"/>
			<point x="283" y="26"/>
			<point x="261" y="32" type="curve"/>
			<point x="305" y="6" type="line"/>
			<point x="280" y="78" type="line" smooth="yes"/>
			<point x="268" y="112"/>
			<point x="252" y="122"/>
			<point x="235" y="122" type="curve" smooth="yes"/>
			<point x="214" y="122"/>
			<point x="195" y="109"/>
			<point x="191" y="86" type="curve"/>
			<point x="199" y="14"/>
			<point x="256" y="-14"/>
			<point x="320" y="-14" type="curve" smooth="yes"/>
			<point x="423" y="-14"/>
			<point x="491" y="56"/>
			<point x="491" y="130" type="curve" smooth="yes"/>
			<point x="491" y="169"/>
			<point x="473" y="210"/>
			<point x="409" y="263" type="curve" smooth="yes"/>
			<point x="370" y="296"/>
			<point x="342" y="327"/>
			<point x="342" y="369" type="curve" smooth="yes"/>
			<point x="342" y="423"/>
			<point x="382" y="452"/>
			<point x="415" y="482" type="curve" smooth="yes"/>
			<point x="469" y="532"/>
			<point x="511" y="573"/>
			<point x="511" y="641" type="curve" smooth="yes"/>
			<point x="511" y="704"/>
			<point x="475" y="751"/>
			<point x="383" y="751" type="curve" smooth="yes"/>
			<point x="335" y="751"/>
			<point x="293" y="737"/>
			<point x="252" y="705" type="curve" smooth="yes"/>
			<point x="193" y="659"/>
			<point x="162" y="604"/>
			<point x="138" y="461" type="curve" smooth="yes"/>
			<point x="73" y="48" type="line" smooth="yes"/>
			<point x="53" y="-74"/>
			<point x="29" y="-125"/>
			<point x="-5" y="-166" type="curve" smooth="yes"/>
			<point x="-26" y="-191"/>
			<point x="-51" y="-208"/>
			<point x="-86" y="-219" type="curve"/>
			<point x="-39" y="-219" type="line"/>
			<point x="-64" y="-191" type="line" smooth="yes"/>
			<point x="-83" y="-167"/>
			<point x="-100" y="-157"/>
			<point x="-125" y="-157" type="curve" smooth="yes"/>
			<point x="-156" y="-157"/>
			<point x="-177" y="-173"/>
			<point x="-187" y="-197" type="curve"/>
			<point x="-182" y="-231"/>
			<point x="-147" y="-251"/>
			<point x="-102" y="-251" type="curve" smooth="yes"/>
			<point x="-58" y="-251"/>
			<point x="-21" y="-235"/>
			<point x="19" y="-200" type="curve" smooth="yes"/>
			<point x="81" y="-148"/>
			<point x="118" y="-73"/>
			<point x="134" y="21" type="curve" smooth="yes"/>
			<point x="215" y="499" type="line" smooth="yes"/>
			<point x="233" y="602"/>
			<point x="247" y="642"/>
			<point x="289" y="681" type="curve" smooth="yes"/>
			<point x="312" y="702"/>
			<point x="341" y="716"/>
		</contour>
	</outline>
</glyph>
<glyph name="ae" format="1">
	<unicode hex="00E6"/>
	<advance width="722"/>
	<outline>
		<contour>
			<point x="136" y="-14" type="curve" smooth="yes"/>
			<point x="206" y="-14"/>
			<point x="293" y="57"/>
			<point x="358" y="149" type="curve"/>
			<point x="347" y="176" type="line"/>
			<point x="284" y="102"/>
			<point x="241" y="72"/>
			<point x="204" y="72" type="curve" smooth="yes"/>
			<point x="169" y="72"/>
			<point x="147" y="99"/>
			<point x="147" y="161" type="curve" smooth="yes"/>
			<point x="147" y="240"/>
			<point x="181" y="327"/>
			<point x="227" y="373" type="curve" smooth="yes"/>
			<point x="258" y="404"/>
			<point x="290" y="419"/>
			<point x="317" y="419" type="curve" smooth="yes"/>
			<point x="370" y="419"/>
			<point x="407" y="397"/>
			<point x="428" y="371" type="curve"/>
			<point x="480" y="418" type="line"/>
			<point x="457" y="456"/>
			<point x="405" y="493"/>
			<point x="359" y="493" type="curve" smooth="yes"/>
			<point x="221" y="493"/>
			<point x="36" y="290"/>
			<point x="36" y="114" type="curve" smooth="yes"/>
			<point x="36" y="22"/>
			<point x="85" y="-14"/>
		</contour>
		<component base="e" xOffset="266"/>
		<contour>
			<point name="aboveLC" x="460" y="511" type="move"/>
		</contour>
		<contour>
			<point name="belowLC" x="324" y="-22" type="move"/>
		</contour>
	</outline>
</glyph>
<glyph name="eth" format="1">
	<unicode hex="00F0"/>
	<advance width="503"/>
	<outline>
		<contour>
			<point x="220" y="-15" type="curve"/>
			<point x="366" y="-15"/>
			<point x="485" y="118"/>
			<point x="485" y="334" type="curve" smooth="yes"/>
			<point x="485" y="526"/>
			<point x="398" y="669"/>
			<point x="236" y="743" type="curve"/>
			<point x="206" y="703" type="line"/>
			<point x="327" y="628"/>
			<point x="380" y="516"/>
			<point x="391" y="361" type="curve"/>
			<point x="417" y="365" type="line"/>
			<point x="408" y="438"/>
			<point x="364" y="479"/>
			<point x="302" y="479" type="curve" smooth="yes"/>
			<point x="164" y="479"/>
			<point x="47" y="350"/>
			<point x="47" y="179" type="curve" smooth="yes"/>
			<point x="47" y="44"/>
			<point x="130" y="-15"/>
		</contour>
		<contour>
			<point x="230" y="34" type="curve" smooth="yes"/>
			<point x="188" y="34"/>
			<point x="158" y="71"/>
			<point x="158" y="160" type="curve" smooth="yes"/>
			<point x="158" y="306"/>
			<point x="221" y="430"/>
			<point x="303" y="430" type="curve" smooth="yes"/>
			<point x="346" y="430"/>
			<point x="376" y="400"/>
			<point x="376" y="304" type="curve" smooth="yes"/>
			<point x="376" y="163"/>
			<point x="304" y="34"/>
		</contour>
		<contour>
			<point x="192" y="520" type="line"/>
			<point x="540" y="696" type="line"/>
			<point x="520" y="737" type="line"/>
			<point x="173" y="561" type="line"/>
		</contour>
	</outline>
</glyph>
<glyph name="oslash" format="1">
	<unicode hex="00F8"/>
	<advance width="510"/>
	<outline>
		<contour>
			<point x="543" y="478" type="line"/>
			<point x="510" y="510" type="line"/>
			<point x="0" y="4" type="line"/>
			<point x="34" y="-27" type="line"/>
		</contour>
		<component base="o"/>
		<contour>
			<point name="aboveLC" x="316" y="511" type="move"/>
		</contour>
	</outline>
</glyph>
<glyph name="thorn" format="1">
	<unicode hex="00FE"/>
	<advance width="516"/>
	<outline>
		<contour>
			<point x="-17" y="-234" type="line"/>
			<point x="95" y="-234" type="line"/>
			<point x="101" y="-191"/>
			<point x="126" y="-64"/>
			<point x="135" y="-22" type="curve"/>
			<point x="288" y="720" type="line"/>
			<point x="275" y="730" type="line"/>
			<point x="84" y="673" type="line"/>
			<point x="79" y="640" type="line"/>
			<point x="200" y="629" type="line"/>
			<point x="163" y="662" type="line"/>
			<point x="152" y="593"/>
			<point x="142" y="522"/>
			<point x="127" y="451" type="curve" smooth="yes"/>
		</contour>
		<contour>
			<point x="-89" y="-234" type="line"/>
			<point x="176" y="-234" type="line"/>
			<point x="183" y="-197" type="line"/>
			<point x="64" y="-179" type="line"/>
			<point x="33" y="-179" type="line"/>
			<point x="-82" y="-197" type="line"/>
		</contour>
		<contour>
			<point x="86" y="38" type="line"/>
			<point x="118" y="1"/>
			<point x="149" y="-14"/>
			<point x="188" y="-14" type="curve" smooth="yes"/>
			<point x="346" y="-14"/>
			<point x="505" y="179"/>
			<point x="505" y="357" type="curve" smooth="yes"/>
			<point x="505" y="458"/>
			<point x="459" y="493"/>
			<point x="407" y="493" type="curve" smooth="yes"/>
			<point x="336" y="493"/>
			<point x="238" y="426"/>
			<point x="179" y="324" type="curve"/>
			<point x="188" y="311" type="line"/>
			<point x="242" y="372"/>
			<point x="296" y="409"/>
			<point x="336" y="409" type="curve" smooth="yes"/>
			<point x="372" y="409"/>
			<point x="394" y="379"/>
			<point x="394" y="313" type="curve" smooth="yes"/>
			<point x="394" y="251"/>
			<point x="373" y="177"/>
			<point x="336" y="126" type="curve" smooth="yes"/>
			<point x="302" y="80"/>
			<point x="259" y="52"/>
			<point x="207" y="52" type="curve" smooth="yes"/>
			<point x="180" y="52"/>
			<point x="150" y="60"/>
			<point x="119" y="85" type="curve"/>
		</contour>
		<contour>
			<point name="aboveLC" x="229" y="728" type="move"/>
		</contour>
		<contour>
			<point name="belowLC" x="231" y="-91" type="move"/>
		</contour>
	</outline>
</glyph>
<glyph name="Aogonek" format="1">
	<unicode hex="0104"/>
	<advance width="682"/>
	<outline>
		<component base="A"/>
		<component base="ogonekcmb" xOffset="564"/>
		<contour>
			<point name="aboveUC" x="421" y="688" type="move"/>
		</contour>
	</outline>
</glyph>
<glyph name="aogonek" format="1">
	<unicode hex="0105"/>
	<advance width="538"/>
	<outline>
		<component base="a"/>
		<component base="ogonekcmb" xOffset="436"/>
		<contour>
			<point name="aboveLC" x="311" y="511" type="move"/>
		</contour>
	</outline>
</glyph>
<glyph name="dcroat" format="1">
	<unicode hex="0111"/>
	<advance width="544"/>
	<outline>
		<contour>
			<point x="246" y="541" type="line"/>
			<point x="592" y="541" type="line"/>
			<point x="601" y="586" type="line"/>
			<point x="255" y="586" type="line"/>
		</contour>
		<component base="d"/>
	</outline>
</glyph>
<glyph name="dotlessi" format="1">
	<unicode hex="0131"/>
	<advance width="317"/>
	<outline>
		<contour>
			<point x="62" y="46" type="curve" smooth="yes"/>
			<point x="62" y="5"/>
			<point x="89" y="-15"/>
			<point x="128" y="-15" type="curve" smooth="yes"/>
			<point x="213" y="-15"/>
			<point x="274" y="55"/>
			<point x="316" y="124" type="curve"/>
			<point x="289" y="144" type="line"/>
			<point x="253" y="94"/>
			<point x="220" y="65"/>
			<point x="195" y="65" type="curve" smooth="yes"/>
			<point x="183" y="65"/>
			<point x="175" y="73"/>
			<point x="175" y="86" type="curve" smooth="yes"/>
			<point x="175" y="97"/>
			<point x="178" y="114"/>
			<point x="183" y="137" type="curve" smooth="yes"/>
			<point x="258" y="482" type="line"/>
			<point x="243" y="494" type="line"/>
			<point x="52" y="436" type="line"/>
			<point x="47" y="403" type="line"/>
			<point x="171" y="393" type="line"/>
			<point x="135" y="414" type="line"/>
			<point x="73" y="121" type="line" smooth="yes"/>
			<point x="65" y="86"/>
			<point x="62" y="67"/>
		</contour>
		<contour>
			<point name="aboveLC" x="207" y="511" type="move"/>
		</contour>
		<contour>
			<point name="ogonek" x="164" y="0" type="move"/>
		</contour>
		<contour>
			<point name="belowLC" x="124" y="-22" type="move"/>
		</contour>
	</outline>
</glyph>
<glyph name="lslash" format="1">
	<unicode hex="0142"/>
	<advance width="296"/>
	<outline>
		<contour>
			<point x="193" y="421" type="line"/>
			<point x="27" y="340" type="line"/>
			<point x="14" y="271" type="line"/>
			<point x="179" y="352" type="line"/>
		</contour>
		<contour>
			<point x="324" y="478" type="line"/>
			<point x="156" y="395" type="line"/>
			<point x="142" y="327" type="line"/>
			<point x="310" y="409" type="line"/>
		</contour>
		<component base="l"/>
	</outline>
</glyph>
<glyph name="OE" format="1">
	<unicode hex="0152"/>
	<advance width="873"/>
	<outline>
		<contour>
			<point x="439" y="0" type="curve"/>
			<point x="445" y="54" type="line"/>
			<point x="409" y="42"/>
			<point x="371" y="37"/>
			<point x="340" y="37" type="curve" smooth="yes"/>
			<point x="244" y="37"/>
			<point x="172" y="119"/>
			<point x="172" y="252" type="curve" smooth="yes"/>
			<point x="172" y="464"/>
			<point x="289" y="627"/>
			<point x="444" y="627" type="curve" smooth="yes"/>
			<point x="485" y="627"/>
			<point x="517" y="619"/>
			<point x="551" y="608" type="curve"/>
			<point x="564" y="663" type="line"/>
			<point x="523" y="675"/>
			<point x="489" y="680"/>
			<point x="453" y="680" type="curve" smooth="yes"/>
			<point x="211" y="680"/>
			<point x="48" y="472"/>
			<point x="48" y="262" type="curve" smooth="yes"/>
			<point x="48" y="83"/>
			<point x="161" y="-17"/>
			<point x="326" y="-17" type="curve" smooth="yes"/>
			<point x="366" y="-17"/>
			<point x="399" y="-10"/>
		</contour>
		<contour>
			<point x="379" y="0" type="line"/>
			<point x="500" y="0" type="line"/>
			<point x="517" y="103"/>
			<point x="535" y="207"/>
			<point x="554" y="310" type="curve" smooth="yes"/>
			<point x="621" y="663" type="line"/>
			<point x="499" y="663" type="line"/>
			<point x="483" y="560"/>
			<point x="465" y="456"/>
			<point x="446" y="353" type="curve" smooth="yes"/>
		</contour>
		<contour>
			<point x="437" y="0" type="line"/>
			<point x="808" y="0" type="line"/>
			<point x="847" y="175" type="line"/>
			<point x="782" y="175" type="line"/>
			<point x="720" y="0" type="line"/>
			<point x="788" y="53" type="line"/>
			<point x="447" y="53" type="line"/>
		</contour>
		<contour>
			<point x="497" y="313" type="line"/>
			<point x="716" y="313" type="line"/>
			<point x="726" y="366" type="line"/>
			<point x="507" y="366" type="line"/>
		</contour>
		<contour>
			<point x="550" y="610" type="line"/>
			<point x="853" y="610" type="line"/>
			<point x="808" y="663" type="line"/>
			<point x="806" y="488" type="line"/>
			<point x="871" y="488" type="line"/>
			<point x="896" y="663" type="line"/>
			<point x="561" y="663" type="line"/>
		</contour>
		<contour>
			<point x="686" y="224" type="line"/>
			<point x="735" y="224" type="line"/>
			<point x="778" y="454" type="line"/>
			<point x="729" y="454" type="line"/>
			<point x="694" y="353" type="line"/>
			<point x="690" y="334" type="line"/>
		</contour>
		<contour>
			<point name="aboveUC" x="608" y="688" type="move"/>
		</contour>
	</outline>
</glyph>
<glyph name="oe" format="1">
	<unicode hex="0153"/>
	<advance width="776"/>
	<outline>
		<contour>
			<point x="215" y="-14" type="curve" smooth="yes"/>
			<point x="299" y="-14"/>
			<point x="362" y="31"/>
			<point x="410" y="106" type="curve"/>
			<point x="472" y="363" type="line"/>
			<point x="453" y="454"/>
			<point x="391" y="493"/>
			<point x="318" y="493" type="curve" smooth="yes"/>
			<point x="163" y="493"/>
			<point x="47" y="347"/>
			<point x="47" y="174" type="curve" smooth="yes"/>
			<point x="47" y="44"/>
			<point x="124" y="-14"/>
		</contour>
		<contour>
			<point x="238" y="33" type="curve" smooth="yes"/>
			<point x="196" y="33"/>
			<point x="161" y="68"/>
			<point x="161" y="152" type="curve" smooth="yes"/>
			<point x="161" y="288"/>
			<point x="226" y="446"/>
			<point x="304" y="446" type="curve" smooth="yes"/>
			<point x="344" y="446"/>
			<point x="378" y="412"/>
			<point x="378" y="324" type="curve" smooth="yes"/>
			<point x="378" y="203"/>
			<point x="317" y="33"/>
		</contour>
		<component base="e" xOffset="320"/>
		<contour>
			<point name="aboveLC" x="482" y="511" type="move"/>
		</contour>
	</outline>
</glyph>
<glyph name="Uogonek" format="1">
	<unicode hex="0172"/>
	<advance width="736"/>
	<outline>
		<component base="U"/>
		<component base="ogonekcmb" xOffset="455"/>
		<contour>
			<point name="aboveUC" x="483" y="688" type="move"/>
		</contour>
	</outline>
</glyph>
<glyph name="uogonek" format="1">
	<unicode hex="0173"/>
	<advance width="579"/>
	<outline>
		<component base="u"/>
		<component base="ogonekcmb" xOffset="466"/>
		<contour>
			<point name="aboveLC" x="335" y="511" type="move"/>
		</contour>
	</outline>
</glyph>
<glyph name="longs" format="1">
	<unicode hex="017F"/>
	<advance width="339"/>
	<outline>
		<contour>
			<point x="394" y="744" type="curve" smooth="yes"/>
			<point x="357" y="744"/>
			<point x="319" y="734"/>
			<point x="283" y="713" type="curve" smooth="yes"/>
			<point x="215" y="671"/>
			<point x="170" y="613"/>
			<point x="149" y="453" type="curve" smooth="yes"/>
			<point x="144" y="405"/>
			<point x="99" y="95"/>
			<point x="94" y="49" type="curve" smooth="yes"/>
			<point x="78" y="-65"/>
			<point x="55" y="-117"/>
			<point x="27" y="-155" type="curve" smooth="yes"/>
			<point x="6" y="-184"/>
			<point x="-19" y="-201"/>
			<point x="-51" y="-210" type="curve"/>
			<point x="-1" y="-215" type="line"/>
			<point x="-31" y="-170" type="line" smooth="yes"/>
			<point x="-52" y="-137"/>
			<point x="-71" y="-126"/>
			<point x="-98" y="-126" type="curve" smooth="yes"/>
			<point x="-130" y="-126"/>
			<point x="-156" y="-149"/>
			<point x="-164" y="-177" type="curve"/>
			<point x="-155" y="-225"/>
			<point x="-108" y="-244"/>
			<point x="-61" y="-244" type="curve" smooth="yes"/>
			<point x="-11" y="-244"/>
			<point x="32" y="-228"/>
			<point x="70" y="-197" type="curve" smooth="yes"/>
			<point x="131" y="-148"/>
			<point x="175" y="-79"/>
			<point x="191" y="26" type="curve" smooth="yes"/>
			<point x="199" y="84"/>
			<point x="254" y="446"/>
			<point x="263" y="504" type="curve" smooth="yes"/>
			<point x="284" y="634"/>
			<point x="305" y="675"/>
			<point x="350" y="703" type="curve" smooth="yes"/>
			<point x="361" y="709"/>
			<point x="381" y="717"/>
			<point x="396" y="718" type="curve"/>
			<point x="353" y="719" type="line"/>
			<point x="382" y="674" type="line" smooth="yes"/>
			<point x="406" y="635"/>
			<point x="426" y="623"/>
			<point x="456" y="623" type="curve" smooth="yes"/>
			<point x="485" y="623"/>
			<point x="507" y="645"/>
			<point x="512" y="670" type="curve"/>
			<point x="497" y="717"/>
			<point x="457" y="744"/>
		</contour>
	</outline>
</glyph>
<glyph name="gravecmb" format="1">
	<unicode hex="0300"/>
	<outline>
		<contour>
			<point x="138" y="546" type="line"/>
			<point x="73" y="721" type="line" smooth="yes"/>
			<point x="61" y="752"/>
			<point x="48" y="764"/>
			<point x="25" y="764" type="curve" smooth="yes"/>
			<point x="3" y="764"/>
			<point x="-11" y="751"/>
			<point x="-11" y="729" type="curve" smooth="yes"/>
			<point x="-11" y="719"/>
			<point x="-7" y="706"/>
			<point x="4" y="690" type="curve" smooth="yes"/>
			<point x="107" y="530" type="line"/>
		</contour>
	</outline>
</glyph>
<glyph name="acutecmb" format="1">
	<unicode hex="0301"/>
	<outline>
		<contour>
			<point x="61" y="555" type="curve"/>
			<point x="93" y="535" type="line"/>
			<point x="99" y="541"/>
			<point x="183" y="638"/>
			<point x="204" y="658" type="curve" smooth="yes"/>
			<point x="228" y="683"/>
			<point x="239" y="703"/>
			<point x="239" y="726" type="curve" smooth="yes"/>
			<point x="239" y="755"/>
			<point x="216" y="771"/>
			<point x="190" y="771" type="curve" smooth="yes"/>
			<point x="164" y="771"/>
			<point x="143" y="755"/>
			<point x="127" y="713" type="curve" smooth="yes"/>
			<point x="116" y="681"/>
			<point x="64" y="565"/>
		</contour>
	</outline>
</glyph>
<glyph name="circumflexcmb" format="1">
	<unicode hex="0302"/>
	<outline>
		<contour>
			<point x="214" y="545" type="line"/>
			<point x="249" y="573" type="line"/>
			<point x="142" y="748" type="line"/>
			<point x="94" y="748" type="line"/>
			<point x="-67" y="573" type="line"/>
			<point x="-43" y="545" type="line"/>
			<point x="141" y="690" type="line"/>
			<point x="75" y="690" type="line"/>
		</contour>
		<contour>
			<point name="_aboveLC" x="72" y="511" type="move"/>
		</contour>
		<contour>
			<point name="aboveLC" x="122" y="746" type="move"/>
		</contour>
	</outline>
</glyph>
<glyph name="tildecmb" format="1">
	<unicode hex="0303"/>
	<outline>
		<contour>
			<point x="-81" y="587" type="curve"/>
			<point x="-49" y="574" type="line"/>
			<point x="-35" y="623"/>
			<point x="-8" y="644"/>
			<point x="19" y="644" type="curve" smooth="yes"/>
			<point x="49" y="644"/>
			<point x="67" y="622"/>
			<point x="85" y="603" type="curve" smooth="yes"/>
			<point x="103" y="587"/>
			<point x="127" y="573"/>
			<point x="161" y="573" type="curve" smooth="yes"/>
			<point x="216" y="573"/>
			<point x="260" y="615"/>
			<point x="281" y="707" type="curve"/>
			<point x="250" y="720" type="line"/>
			<point x="235" y="671"/>
			<point x="208" y="650"/>
			<point x="181" y="650" type="curve" smooth="yes"/>
			<point x="153" y="650"/>
			<point x="135" y="672"/>
			<point x="115" y="690" type="curve" smooth="yes"/>
			<point x="97" y="707"/>
			<point x="76" y="721"/>
			<point x="42" y="721" type="curve" smooth="yes"/>
			<point x="-13" y="721"/>
			<point x="-61" y="677"/>
		</contour>
		<contour>
			<point name="_aboveLC" x="72" y="511" type="move"/>
		</contour>
	</outline>
</glyph>
<glyph name="macroncmb" format="1">
	<unicode hex="0304"/>
	<outline>
		<contour>
			<point x="-79" y="596" type="line"/>
			<point x="228" y="596" type="line"/>
			<point x="243" y="671" type="line"/>
			<point x="-64" y="671" type="line"/>
		</contour>
		<contour>
			<point name="_aboveLC" x="74" y="520" type="move"/>
		</contour>
	</outline>
</glyph>
<glyph name="brevecmb" format="1">
	<unicode hex="0306"/>
	<outline>
		<contour>
			<point x="25" y="629" type="curve" smooth="yes"/>
			<point x="83" y="604"/>
			<point x="134" y="618"/>
			<point x="188" y="664" type="curve"/>
			<point x="233" y="664"/>
			<point x="231" y="706"/>
			<point x="237" y="730" type="curve"/>
			<point x="221" y="698"/>
			<point x="172" y="679"/>
			<point x="132" y="679" type="curve" smooth="yes"/>
			<point x="85" y="662"/>
			<point x="52" y="672"/>
			<point x="26" y="705" type="curve"/>
			<point x="8" y="705"/>
			<point x="-27" y="711"/>
			<point x="-33" y="729" type="curve"/>
			<point x="-38" y="685"/>
			<point x="-34" y="629"/>
		</contour>
		<contour>
			<point name="_aboveLC" x="71" y="507" type="move"/>
		</contour>
	</outline>
</glyph>
<glyph name="dotaccentcmb" format="1">
	<unicode hex="0307"/>
	<outline>
		<contour>
			<point x="102" y="608" type="curve" smooth="yes"/>
			<point x="139" y="608"/>
			<point x="172" y="643"/>
			<point x="172" y="683" type="curve" smooth="yes"/>
			<point x="172" y="722"/>
			<point x="148" y="747"/>
			<point x="112" y="747" type="curve" smooth="yes"/>
			<point x="76" y="747"/>
			<point x="42" y="714"/>
			<point x="42" y="670" type="curve" smooth="yes"/>
			<point x="42" y="632"/>
			<point x="67" y="608"/>
		</contour>
		<contour>
			<point name="_aboveLC" x="72" y="511" type="move"/>
		</contour>
		<contour>
			<point name="aboveLC" x="116" y="718" type="move"/>
		</contour>
	</outline>
</glyph>
<glyph name="commabelowcmb" format="1">
	<unicode hex="0326"/>
	<outline>
		<contour>
			<point x="-135" y="-258" type="line"/>
			<point x="-58" y="-233"/>
			<point x="8" y="-189"/>
			<point x="8" y="-120" type="curve" smooth="yes"/>
			<point x="8" y="-105"/>
			<point x="5" y="-91"/>
			<point x="-2" y="-71" type="curve"/>
			<point x="-21" y="-57"/>
			<point x="-37" y="-51"/>
			<point x="-53" y="-51" type="curve" smooth="yes"/>
			<point x="-85" y="-51"/>
			<point x="-110" y="-72"/>
			<point x="-110" y="-103" type="curve" smooth="yes"/>
			<point x="-110" y="-136"/>
			<point x="-83" y="-163"/>
			<point x="-45" y="-175" type="curve"/>
			<point x="-41" y="-134" type="line"/>
			<point x="-66" y="-185"/>
			<point x="-96" y="-204"/>
			<point x="-147" y="-225" type="curve"/>
		</contour>
		<contour>
			<point name="_belowLC" x="-42" y="-22" type="move"/>
		</contour>
	</outline>
</glyph>
<glyph name="cedillacmb" format="1">
	<unicode hex="0327"/>
	<outline>
		<contour>
			<point x="-42" y="-86" type="line"/>
			<point x="6" y="-94"/>
			<point x="37" y="-101"/>
			<point x="37" y="-129" type="curve" smooth="yes"/>
			<point x="37" y="-158"/>
			<point x="9" y="-183"/>
			<point x="-52" y="-183" type="curve" smooth="yes"/>
			<point x="-80" y="-183"/>
			<point x="-91" y="-181"/>
			<point x="-99" y="-180" type="curve"/>
			<point x="-111" y="-211" type="line"/>
			<point x="-98" y="-215"/>
			<point x="-82" y="-218"/>
			<point x="-44" y="-218" type="curve" smooth="yes"/>
			<point x="34" y="-218"/>
			<point x="97" y="-185"/>
			<point x="97" y="-129" type="curve" smooth="yes"/>
			<point x="97" y="-82"/>
			<point x="43" y="-56"/>
			<point x="-19" y="-56" type="curve"/>
			<point x="-2" y="-77" type="line"/>
			<point x="20" y="3" type="line"/>
			<point x="-16" y="3" type="line"/>
		</contour>
	</outline>
</glyph>
<glyph name="mu" format="1">
	<unicode hex="03BC"/>
	<advance width="562"/>
	<outline>
		<contour>
			<point x="-19" y="-178" type="line"/>
			<point x="-7" y="-192" type="line"/>
			<point x="108" y="-168" type="line"/>
			<point x="131" y="80" type="line"/>
			<point x="153" y="104" type="line"/>
			<point x="171" y="194"/>
			<point x="196" y="281"/>
			<point x="247" y="483" type="curve"/>
			<point x="236" y="493" type="line"/>
			<point x="118" y="469" type="line"/>
			<point x="64" y="106" type="line"/>
		</contour>
		<contour>
			<point x="212" y="-14" type="curve" smooth="yes"/>
			<point x="274" y="-14"/>
			<point x="334" y="39"/>
			<point x="385" y="156" type="curve"/>
			<point x="371" y="172" type="line"/>
			<point x="326" y="98"/>
			<point x="285" y="80"/>
			<point x="241" y="80" type="curve" smooth="yes"/>
			<point x="205" y="80"/>
			<point x="173" y="96"/>
			<point x="160" y="154" type="curve"/>
			<point x="120" y="88" type="line"/>
			<point x="127" y="19"/>
			<point x="166" y="-14"/>
		</contour>
		<contour>
			<point x="419" y="-14" type="curve" smooth="yes"/>
			<point x="463" y="-14"/>
			<point x="502" y="10"/>
			<point x="528" y="45" type="curve"/>
			<point x="523" y="75" type="line"/>
			<point x="510" y="71"/>
			<point x="496" y="67"/>
			<point x="484" y="67" type="curve" smooth="yes"/>
			<point x="455" y="67"/>
			<point x="446" y="82"/>
			<point x="453" y="129" type="curve" smooth="yes"/>
			<point x="460" y="187"/>
			<point x="483" y="260"/>
			<point x="545" y="483" type="curve"/>
			<point x="535" y="493" type="line"/>
			<point x="416" y="469" type="line"/>
			<point x="374" y="245"/>
			<point x="349" y="84"/>
			<point x="349" y="67" type="curve" smooth="yes"/>
			<point x="350" y="16"/>
			<point x="369" y="-14"/>
		</contour>
	</outline>
</glyph>
<glyph name="de" format="1">
	<unicode hex="0434"/>
	<advance width="500"/>
	<outline>
		<contour>
			<point x="228" y="-14" type="curve" smooth="yes"/>
			<point x="380" y="-14"/>
			<point x="495" y="131"/>
			<point x="495" y="317" type="curve" smooth="yes"/>
			<point x="495" y="563"/>
			<point x="382" y="694"/>
			<point x="152" y="742" type="curve"/>
			<point x="138" y="703" type="line"/>
			<point x="329" y="631"/>
			<point x="390" y="530"/>
			<point x="401" y="350" type="curve"/>
			<point x="463" y="399" type="line"/>
			<point x="430" y="452"/>
			<point x="380" y="480"/>
			<point x="324" y="480" type="curve" smooth="yes"/>
			<point x="181" y="480"/>
			<point x="48" y="353"/>
			<point x="48" y="163" type="curve" smooth="yes"/>
			<point x="48" y="52"/>
			<point x="120" y="-14"/>
		</contour>
		<contour>
			<point x="241" y="34" type="curve" smooth="yes"/>
			<point x="194" y="34"/>
			<point x="162" y="72"/>
			<point x="162" y="154" type="curve" smooth="yes"/>
			<point x="162" y="324"/>
			<point x="244" y="432"/>
			<point x="312" y="432" type="curve" smooth="yes"/>
			<point x="356" y="432"/>
			<point x="387" y="403"/>
			<point x="387" y="310" type="curve" smooth="yes"/>
			<point x="387" y="151"/>
			<point x="312" y="34"/>
		</contour>
	</outline>
</glyph>
<glyph name="en" format="1">
	<unicode hex="043D"/>
	<advance width="584"/>
	<outline>
		<contour>
			<point x="62" y="2" type="line"/>
			<point x="74" y="-8" type="line"/>
			<point x="172" y="0" type="line"/>
			<point x="186" y="72"/>
			<point x="198" y="141"/>
			<point x="213" y="212" type="curve" smooth="yes"/>
			<point x="245" y="356" type="line"/>
			<point x="269" y="481" type="line"/>
			<point x="253" y="494" type="line"/>
			<point x="65" y="436" type="line"/>
			<point x="60" y="403" type="line"/>
			<point x="184" y="393" type="line"/>
			<point x="149" y="414" type="line"/>
		</contour>
		<contour>
			<point x="143" y="230" type="line"/>
			<point x="465" y="230" type="line"/>
			<point x="465" y="274" type="line"/>
			<point x="143" y="274" type="line"/>
		</contour>
		<contour>
			<point x="355" y="57" type="curve" smooth="yes"/>
			<point x="355" y="11"/>
			<point x="385" y="-14"/>
			<point x="420" y="-14" type="curve" smooth="yes"/>
			<point x="497" y="-14"/>
			<point x="555" y="50"/>
			<point x="597" y="113" type="curve"/>
			<point x="570" y="133" type="line"/>
			<point x="533" y="88"/>
			<point x="507" y="66"/>
			<point x="485" y="66" type="curve" smooth="yes"/>
			<point x="474" y="66"/>
			<point x="465" y="73"/>
			<point x="465" y="87" type="curve" smooth="yes"/>
			<point x="465" y="98"/>
			<point x="468" y="116"/>
			<point x="473" y="137" type="curve" smooth="yes"/>
			<point x="547" y="481" type="line"/>
			<point x="531" y="494" type="line"/>
			<point x="432" y="467" type="line"/>
			<point x="422" y="410"/>
			<point x="410" y="353"/>
			<point x="399" y="297" type="curve" smooth="yes"/>
			<point x="365" y="130" type="line" smooth="yes"/>
			<point x="358" y="96"/>
			<point x="355" y="77"/>
		</contour>
	</outline>
</glyph>
<glyph name="ef" format="1">
	<unicode hex="0444"/>
	<advance width="676"/>
	<outline>
		<contour>
			<point x="130" y="-240" type="line"/>
			<point x="380" y="-240" type="line"/>
			<point x="388" y="-205" type="line"/>
			<point x="274" y="-185" type="line"/>
			<point x="254" y="-185" type="line"/>
			<point x="138" y="-205" type="line"/>
		</contour>
		<contour>
			<point x="497" y="732" type="line"/>
			<point x="486" y="740" type="line"/>
			<point x="317" y="686" type="line"/>
			<point x="312" y="655" type="line"/>
			<point x="427" y="647" type="line"/>
			<point x="409" y="681" type="line"/>
			<point x="398" y="612"/>
			<point x="385" y="542"/>
			<point x="370" y="473" type="curve"/>
			<point x="214" y="-240" type="line"/>
			<point x="288" y="-240" type="line"/>
			<point x="301" y="-169"/>
			<point x="313" y="-100"/>
			<point x="329" y="-30" type="curve"/>
		</contour>
		<contour>
			<point x="392" y="419" type="line"/>
			<point x="367" y="472"/>
			<point x="341" y="487"/>
			<point x="300" y="487" type="curve" smooth="yes"/>
			<point x="158" y="487"/>
			<point x="50" y="299"/>
			<point x="50" y="160" type="curve" smooth="yes"/>
			<point x="50" y="31"/>
			<point x="120" y="-13"/>
			<point x="188" y="-13" type="curve" smooth="yes"/>
			<point x="235" y="-13"/>
			<point x="277" y="15"/>
			<point x="313" y="51" type="curve"/>
			<point x="319" y="86" type="line"/>
			<point x="280" y="57"/>
			<point x="252" y="33"/>
			<point x="219" y="33" type="curve" smooth="yes"/>
			<point x="163" y="33"/>
			<point x="139" y="77"/>
			<point x="139" y="156" type="curve" smooth="yes"/>
			<point x="139" y="282"/>
			<point x="213" y="441"/>
			<point x="305" y="441" type="curve" smooth="yes"/>
			<point x="334" y="441"/>
			<point x="358" y="430"/>
			<point x="385" y="391" type="curve"/>
		</contour>
		<contour>
			<point x="137" y="-11" type="line"/>
			<point x="147" y="36" type="line"/>
		</contour>
		<contour>
			<point x="313" y="57" type="line"/>
			<point x="340" y="0"/>
			<point x="362" y="-13"/>
			<point x="403" y="-13" type="curve" smooth="yes"/>
			<point x="544" y="-13"/>
			<point x="654" y="175"/>
			<point x="654" y="314" type="curve" smooth="yes"/>
			<point x="654" y="443"/>
			<point x="581" y="487"/>
			<point x="525" y="487" type="curve" smooth="yes"/>
			<point x="478" y="487"/>
			<point x="423" y="459"/>
			<point x="391" y="422" type="curve"/>
			<point x="385" y="387" type="line"/>
			<point x="420" y="417"/>
			<point x="451" y="441"/>
			<point x="489" y="441" type="curve" smooth="yes"/>
			<point x="540" y="441"/>
			<point x="564" y="397"/>
			<point x="564" y="318" type="curve" smooth="yes"/>
			<point x="564" y="192"/>
			<point x="489" y="33"/>
			<point x="400" y="33" type="curve" smooth="yes"/>
			<point x="369" y="33"/>
			<point x="348" y="42"/>
			<point x="320" y="85" type="curve"/>
		</contour>
	</outline>
</glyph>
<glyph name="endash" format="1">
	<unicode hex="2013"/>
	<advance width="525"/>
	<outline>
		<contour>
			<point x="50" y="214" type="line"/>
			<point x="495" y="214" type="line"/>
			<point x="495" y="291" type="line"/>
			<point x="50" y="291" type="line"/>
		</contour>
	</outline>
</glyph>
<glyph name="quoteleft" format="1">
	<unicode hex="2018"/>
	<advance width="214"/>
	<outline>
		<contour>
			<point x="110" y="543" type="curve" smooth="yes"/>
			<point x="106" y="516"/>
			<point x="106" y="489"/>
			<point x="113" y="465" type="curve"/>
			<point x="126" y="449"/>
			<point x="143" y="438"/>
			<point x="168" y="436" type="curve" smooth="yes"/>
			<point x="205" y="432"/>
			<point x="239" y="454"/>
			<point x="247" y="496" type="curve" smooth="yes"/>
			<point x="252" y="522"/>
			<point x="248" y="546"/>
			<point x="222" y="573" type="curve" smooth="yes"/>
			<point x="178" y="621" type="line"/>
			<point x="169" y="566" type="line"/>
			<point x="201" y="632"/>
			<point x="249" y="671"/>
			<point x="306" y="702" type="curve"/>
			<point x="294" y="736" type="line"/>
			<point x="205" y="701"/>
			<point x="127" y="629"/>
		</contour>
	</outline>
</glyph>
<glyph name="guilsinglleft" format="1">
	<unicode hex="2039"/>
	<advance width="308"/>
	<outline>
		<contour>
			<point x="238" y="40" type="line"/>
			<point x="272" y="72" type="line"/>
			<point x="117" y="281" type="line"/>
			<point x="106" y="224" type="line"/>
			<point x="324" y="431" type="line"/>
			<point x="298" y="465" type="line"/>
			<point x="56" y="282" type="line"/>
			<point x="46" y="223" type="line"/>
		</contour>
	</outline>
</glyph>
<glyph name="trademark" format="1">
	<unicode hex="2122"/>
	<advance width="738"/>
	<outline>
		<contour>
			<point x="127" y="574" type="line"/>
			<point x="163" y="574" type="line"/>
			<point x="195" y="670" type="line"/>
			<point x="159" y="641" type="line"/>
			<point x="304" y="641" type="line"/>
			<point x="374" y="641" type="line"/>
			<point x="380" y="670" type="line"/>
			<point x="181" y="670" type="line"/>
			<point x="149" y="670" type="line"/>
		</contour>
		<contour>
			<point x="148" y="363" type="line"/>
			<point x="226" y="363" type="line"/>
			<point x="304" y="363" type="line"/>
			<point x="309" y="390" type="line"/>
			<point x="244" y="397" type="line"/>
			<point x="233" y="397" type="line"/>
			<point x="222" y="397" type="line"/>
			<point x="153" y="390" type="line"/>
		</contour>
		<contour>
			<point x="190" y="641" type="line"/>
			<point x="260" y="641" type="line"/>
			<point x="406" y="641" type="line"/>
			<point x="382" y="670" type="line"/>
			<point x="376" y="574" type="line"/>
			<point x="411" y="574" type="line"/>
			<point x="428" y="670" type="line"/>
			<point x="395" y="670" type="line"/>
			<point x="196" y="670" type="line"/>
		</contour>
		<contour>
			<point x="195" y="363" type="line"/>
			<point x="258" y="363" type="line"/>
			<point x="320" y="670" type="line"/>
			<point x="257" y="670" type="line"/>
		</contour>
		<contour>
			<point x="394" y="363" type="line"/>
			<point x="449" y="363" type="line"/>
			<point x="508" y="363" type="line"/>
			<point x="513" y="390" type="line"/>
			<point x="465" y="397" type="line"/>
			<point x="458" y="397" type="line"/>
			<point x="450" y="397" type="line"/>
			<point x="399" y="390" type="line"/>
		</contour>
		<contour>
			<point x="438" y="363" type="line"/>
			<point x="464" y="363" type="line"/>
			<point x="524" y="658" type="line"/>
			<point x="498" y="658" type="line"/>
		</contour>
		<contour>
			<point x="570" y="363" type="line"/>
			<point x="588" y="363" type="line"/>
			<point x="796" y="670" type="line"/>
			<point x="765" y="670" type="line"/>
			<point x="583" y="403" type="line"/>
			<point x="618" y="434" type="line"/>
			<point x="555" y="670" type="line"/>
			<point x="461" y="670" type="line"/>
			<point x="456" y="643" type="line"/>
			<point x="517" y="636" type="line"/>
			<point x="493" y="664" type="line"/>
		</contour>
		<contour>
			<point x="655" y="363" type="line"/>
			<point x="728" y="363" type="line"/>
			<point x="802" y="363" type="line"/>
			<point x="807" y="390" type="line"/>
			<point x="741" y="397" type="line"/>
			<point x="735" y="397" type="line"/>
			<point x="729" y="397" type="line"/>
			<point x="660" y="390" type="line"/>
		</contour>
		<contour>
			<point x="697" y="363" type="line"/>
			<point x="760" y="363" type="line"/>
			<point x="822" y="670" type="line"/>
			<point x="776" y="670" type="line"/>
			<point x="749" y="619" type="line"/>
		</contour>
		<contour>
			<point x="777" y="636" type="line"/>
			<point x="789" y="636" type="line"/>
			<point x="859" y="643" type="line"/>
			<point x="864" y="670" type="line"/>
			<point x="784" y="670" type="line"/>
		</contour>
	</outline>
</glyph>
<glyph name=".notdef" format="1">
	<advance width="640"/>
	<outline>
		<contour>
			<point x="80" y="0" type="line"/>
			<point x="147" y="0" type="line"/>
			<point x="560" y="663" type="line"/>
			<point x="493" y="663" type="line"/>
		</contour>
		<contour>
			<point x="560" y="0" type="line"/>
			<point x="147" y="663" type="line"/>
			<point x="80" y="663" type="line"/>
			<point x="493" y="0" type="line"/>
		</contour>
		<contour>
			<point x="144" y="54" type="line"/>
			<point x="144" y="610" type="line"/>
			<point x="496" y="610" type="line"/>
			<point x="496" y="54" type="line"/>
		</contour>
		<contour>
			<point x="80" y="0" type="line"/>
			<point x="560" y="0" type="line"/>
			<point x="560" y="663" type="line"/>
			<point x="80" y="663" type="line"/>
		</contour>
	</outline>
</glyph>
<glyph name="acutecmb.cap" format="1">
	<outline>
		<contour>
			<point x="32" y="735" type="curve"/>
			<point x="50" y="704" type="line"/>
			<point x="71" y="712"/>
			<point x="186" y="760"/>
			<point x="207" y="768" type="curve" smooth="yes"/>
			<point x="257" y="789"/>
			<point x="265" y="809"/>
			<point x="265" y="829" type="curve" smooth="yes"/>
			<point x="265" y="853"/>
			<point x="247" y="871"/>
			<point x="221" y="871" type="curve" smooth="yes"/>
			<point x="195" y="871"/>
			<point x="181" y="863"/>
			<point x="147" y="834" type="curve" smooth="yes"/>
			<point x="133" y="822"/>
			<point x="46" y="748"/>
		</contour>
	</outline>
</glyph>
<glyph name="brevecmb.cap" format="1">
	<outline>
		<contour>
			<point x="110" y="720" type="curve" smooth="yes"/>
			<point x="204" y="720"/>
			<point x="262" y="783"/>
			<point x="285" y="848" type="curve"/>
			<point x="250" y="862" type="line"/>
			<point x="222" y="819"/>
			<point x="179" y="790"/>
			<point x="120" y="790" type="curve" smooth="yes"/>
			<point x="64" y="790"/>
			<point x="30" y="820"/>
			<point x="16" y="865" type="curve"/>
			<point x="-23" y="850" type="line"/>
			<point x="-24" y="785"/>
			<point x="12" y="720"/>
		</contour>
		<contour>
			<point name="_aboveUC" x="109" y="688" type="move"/>
		</contour>
	</outline>
</glyph>
<glyph name="caron.alt" format="1">
	<advance width="21"/>
	<outline>
		<contour>
			<point x="142" y="736" type="curve" smooth="yes"/>
			<point x="124" y="736"/>
			<point x="111" y="734"/>
			<point x="92" y="726" type="curve"/>
			<point x="49" y="516" type="line"/>
			<point x="88" y="512" type="line"/>
			<point x="125" y="573" type="line" smooth="yes"/>
			<point x="150" y="615"/>
			<point x="176" y="665"/>
			<point x="178" y="696" type="curve" smooth="yes"/>
			<point x="180" y="715"/>
			<point x="176" y="734"/>
		</contour>
	</outline>
</glyph>
<glyph name="caroncmb.cap" format="1">
	<outline>
		<contour>
			<point x="58" y="853" type="line"/>
			<point x="31" y="837" type="line"/>
			<point x="108" y="720" type="line"/>
			<point x="182" y="720" type="line"/>
			<point x="307" y="837" type="line"/>
			<point x="287" y="853" type="line"/>
			<point x="107" y="741" type="line"/>
			<point x="191" y="741" type="line"/>
		</contour>
	</outline>
</glyph>
<glyph name="circumflexcmb.cap" format="1">
	<outline>
		<contour>
			<point x="169" y="869" type="line"/>
			<point x="119" y="869" type="line"/>
			<point x="-46" y="732" type="line"/>
			<point x="-27" y="702" type="line"/>
			<point x="181" y="813" type="line"/>
			<point x="91" y="813" type="line"/>
			<point x="264" y="702" type="line"/>
			<point x="294" y="732" type="line"/>
		</contour>
		<contour>
			<point name="_aboveUC" x="109" y="688" type="move"/>
		</contour>
	</outline>
</glyph>
<glyph name="commabelowcmb.alt" format="1">
	<outline>
		<component base="commabelowcmb" xScale="-1" yScale="-1" xOffset="38" yOffset="517"/>
		<contour>
			<point name="_aboveLC" x="72" y="511" type="move"/>
		</contour>
	</outline>
</glyph>
<glyph name="dieresiscmb.cap" format="1">
	<outline>
		<contour>
			<point x="0" y="729" type="curve" smooth="yes"/>
			<point x="36" y="729"/>
			<point x="67" y="757"/>
			<point x="67" y="799" type="curve" smooth="yes"/>
			<point x="67" y="830"/>
			<point x="44" y="853"/>
			<point x="12" y="853" type="curve" smooth="yes"/>
			<point x="-21" y="853"/>
			<point x="-56" y="827"/>
			<point x="-56" y="784" type="curve" smooth="yes"/>
			<point x="-56" y="749"/>
			<point x="-28" y="729"/>
		</contour>
		<contour>
			<point x="241" y="729" type="curve" smooth="yes"/>
			<point x="277" y="729"/>
			<point x="308" y="757"/>
			<point x="308" y="799" type="curve" smooth="yes"/>
			<point x="308" y="830"/>
			<point x="285" y="853"/>
			<point x="253" y="853" type="curve" smooth="yes"/>
			<point x="220" y="853"/>
			<point x="186" y="827"/>
			<point x="186" y="784" type="curve" smooth="yes"/>
			<point x="186" y="749"/>
			<point x="214" y="729"/>
		</contour>
		<contour>
			<point name="_aboveUC" x="109" y="688" type="move"/>
		</contour>
	</outline>
</glyph>
<glyph name="dieresiscmb" format="1">
	<outline>
		<contour>
			<point x="28" y="600" type="curve" smooth="yes"/>
			<point x="62" y="600"/>
			<point x="91" y="626"/>
			<point x="91" y="661" type="curve" smooth="yes"/>
			<point x="91" y="688"/>
			<point x="69" y="708"/>
			<point x="39" y="708" type="curve" smooth="yes"/>
			<point x="8" y="708"/>
			<point x="-23" y="684"/>
			<point x="-23" y="648" type="curve" smooth="yes"/>
			<point x="-23" y="618"/>
			<point x="1" y="600"/>
		</contour>
		<contour>
			<point x="226" y="600" type="curve" smooth="yes"/>
			<point x="260" y="600"/>
			<point x="289" y="626"/>
			<point x="289" y="661" type="curve" smooth="yes"/>
			<point x="289" y="688"/>
			<point x="267" y="708"/>
			<point x="237" y="708" type="curve" smooth="yes"/>
			<point x="207" y="708"/>
			<point x="175" y="684"/>
			<point x="175" y="648" type="curve" smooth="yes"/>
			<point x="175" y="618"/>
			<point x="199" y="600"/>
		</contour>
	</outline>
</glyph>
<glyph name="dotaccentcmb.cap" format="1">
	<outline>
		<contour>
			<point x="127" y="727" type="curve" smooth="yes"/>
			<point x="163" y="727"/>
			<point x="196" y="761"/>
			<point x="196" y="801" type="curve" smooth="yes"/>
			<point x="196" y="839"/>
			<point x="173" y="864"/>
			<point x="138" y="864" type="curve" smooth="yes"/>
			<point x="101" y="864"/>
			<point x="68" y="831"/>
			<point x="68" y="789" type="curve" smooth="yes"/>
			<point x="68" y="750"/>
			<point x="93" y="727"/>
		</contour>
	</outline>
</glyph>
<glyph name="eight.lf" format="1">
	<advance width="514"/>
	<outline>
		<contour>
			<point x="241" y="-14" type="curve" smooth="yes"/>
			<point x="360" y="-14"/>
			<point x="467" y="55"/>
			<point x="467" y="169" type="curve" smooth="yes"/>
			<point x="467" y="237"/>
			<point x="421" y="289"/>
			<point x="337" y="350" type="curve" smooth="yes"/>
			<point x="262" y="404"/>
			<point x="226" y="442"/>
			<point x="226" y="493" type="curve" smooth="yes"/>
			<point x="226" y="559"/>
			<point x="277" y="610"/>
			<point x="331" y="610" type="curve" smooth="yes"/>
			<point x="384" y="610"/>
			<point x="413" y="578"/>
			<point x="413" y="523" type="curve" smooth="yes"/>
			<point x="413" y="467"/>
			<point x="394" y="412"/>
			<point x="312" y="350" type="curve"/>
			<point x="328" y="331" type="line"/>
			<point x="453" y="381"/>
			<point x="515" y="431"/>
			<point x="515" y="524" type="curve" smooth="yes"/>
			<point x="515" y="592"/>
			<point x="455" y="652"/>
			<point x="339" y="652" type="curve" smooth="yes"/>
			<point x="237" y="652"/>
			<point x="125" y="586"/>
			<point x="125" y="463" type="curve" smooth="yes"/>
			<point x="125" y="399"/>
			<point x="165" y="346"/>
			<point x="243" y="289" type="curve" smooth="yes"/>
			<point x="330" y="224"/>
			<point x="362" y="194"/>
			<point x="362" y="143" type="curve" smooth="yes"/>
			<point x="362" y="71"/>
			<point x="314" y="29"/>
			<point x="253" y="29" type="curve" smooth="yes"/>
			<point x="190" y="29"/>
			<point x="164" y="65"/>
			<point x="164" y="119" type="curve" smooth="yes"/>
			<point x="164" y="189"/>
			<point x="203" y="248"/>
			<point x="273" y="294" type="curve"/>
			<point x="256" y="312" type="line"/>
			<point x="165" y="285"/>
			<point x="60" y="221"/>
			<point x="60" y="115" type="curve" smooth="yes"/>
			<point x="60" y="44"/>
			<point x="112" y="-14"/>
		</contour>
	</outline>
</glyph>
<glyph name="eight.osf" format="1">
	<advance width="515"/>
	<outline>
		<contour>
			<point x="235" y="-13" type="curve" smooth="yes"/>
			<point x="368" y="-13"/>
			<point x="469" y="54"/>
			<point x="469" y="169" type="curve" smooth="yes"/>
			<point x="469" y="238"/>
			<point x="424" y="283"/>
			<point x="341" y="350" type="curve" smooth="yes"/>
			<point x="266" y="409"/>
			<point x="230" y="446"/>
			<point x="230" y="499" type="curve" smooth="yes"/>
			<point x="230" y="563"/>
			<point x="278" y="611"/>
			<point x="333" y="611" type="curve" smooth="yes"/>
			<point x="387" y="611"/>
			<point x="417" y="577"/>
			<point x="417" y="523" type="curve" smooth="yes"/>
			<point x="417" y="466"/>
			<point x="396" y="413"/>
			<point x="317" y="350" type="curve"/>
			<point x="332" y="332" type="line"/>
			<point x="455" y="379"/>
			<point x="515" y="431"/>
			<point x="515" y="522" type="curve" smooth="yes"/>
			<point x="515" y="593"/>
			<point x="458" y="653"/>
			<point x="339" y="653" type="curve" smooth="yes"/>
			<point x="231" y="653"/>
			<point x="122" y="590"/>
			<point x="122" y="471" type="curve" smooth="yes"/>
			<point x="122" y="405"/>
			<point x="163" y="357"/>
			<point x="241" y="293" type="curve" smooth="yes"/>
			<point x="327" y="221"/>
			<point x="357" y="192"/>
			<point x="357" y="140" type="curve" smooth="yes"/>
			<point x="357" y="71"/>
			<point x="307" y="30"/>
			<point x="244" y="30" type="curve" smooth="yes"/>
			<point x="184" y="30"/>
			<point x="153" y="67"/>
			<point x="153" y="122" type="curve" smooth="yes"/>
			<point x="153" y="191"/>
			<point x="196" y="249"/>
			<point x="269" y="295" type="curve"/>
			<point x="252" y="313" type="line"/>
			<point x="157" y="290"/>
			<point x="53" y="223"/>
			<point x="53" y="117" type="curve" smooth="yes"/>
			<point x="53" y="45"/>
			<point x="104" y="-13"/>
		</contour>
	</outline>
</glyph>
<glyph name="eight.sups" format="1">
	<advance width="371"/>
	<outline>
		<contour>
			<point x="117" y="495" type="curve" smooth="yes"/>
			<point x="117" y="442"/>
			<point x="166" y="409"/>
			<point x="246" y="409" type="curve" smooth="yes"/>
			<point x="342" y="409"/>
			<point x="403" y="454"/>
			<point x="403" y="531" type="curve" smooth="yes"/>
			<point x="403" y="576"/>
			<point x="373" y="611"/>
			<point x="318" y="643" type="curve" smooth="yes"/>
			<point x="257" y="678"/>
			<point x="239" y="705"/>
			<point x="239" y="732" type="curve" smooth="yes"/>
			<point x="239" y="768"/>
			<point x="269" y="787"/>
			<point x="302" y="787" type="curve" smooth="yes"/>
			<point x="336" y="787"/>
			<point x="355" y="770"/>
			<point x="355" y="740" type="curve" smooth="yes"/>
			<point x="355" y="704"/>
			<point x="341" y="676"/>
			<point x="291" y="643" type="curve"/>
			<point x="312" y="629" type="line"/>
			<point x="397" y="661"/>
			<point x="423" y="694"/>
			<point x="423" y="738" type="curve" smooth="yes"/>
			<point x="423" y="784"/>
			<point x="385" y="821"/>
			<point x="307" y="821" type="curve" smooth="yes"/>
			<point x="229" y="821"/>
			<point x="164" y="779"/>
			<point x="164" y="704" type="curve" smooth="yes"/>
			<point x="164" y="662"/>
			<point x="195" y="626"/>
			<point x="241" y="600" type="curve" smooth="yes"/>
			<point x="306" y="562"/>
			<point x="323" y="538"/>
			<point x="323" y="508" type="curve" smooth="yes"/>
			<point x="323" y="473"/>
			<point x="295" y="443"/>
			<point x="254" y="443" type="curve" smooth="yes"/>
			<point x="214" y="443"/>
			<point x="191" y="464"/>
			<point x="191" y="505" type="curve" smooth="yes"/>
			<point x="191" y="542"/>
			<point x="213" y="574"/>
			<point x="266" y="601" type="curve"/>
			<point x="244" y="615" type="line"/>
			<point x="160" y="592"/>
			<point x="117" y="555"/>
		</contour>
	</outline>
</glyph>
<glyph name="endash.sups" format="1">
	<advance width="379"/>
	<outline>
		<contour>
			<point x="132" y="548" type="line"/>
			<point x="419" y="548" type="line"/>
			<point x="419" y="602" type="line"/>
			<point x="132" y="602" type="line"/>
		</contour>
	</outline>
</glyph>
<glyph name="f_i" format="1">
	<advance width="595"/>
	<outline>
		<contour>
			<point x="411" y="744" type="curve" smooth="yes"/>
			<point x="375" y="744"/>
			<point x="336" y="734"/>
			<point x="300" y="713" type="curve" smooth="yes"/>
			<point x="230" y="670"/>
			<point x="181" y="613"/>
			<point x="157" y="453" type="curve" smooth="yes"/>
			<point x="95" y="49" type="line" smooth="yes"/>
			<point x="77" y="-65"/>
			<point x="55" y="-117"/>
			<point x="27" y="-155" type="curve" smooth="yes"/>
			<point x="6" y="-184"/>
			<point x="-19" y="-201"/>
			<point x="-51" y="-210" type="curve"/>
			<point x="-1" y="-215" type="line"/>
			<point x="-31" y="-170" type="line" smooth="yes"/>
			<point x="-52" y="-137"/>
			<point x="-71" y="-126"/>
			<point x="-98" y="-126" type="curve" smooth="yes"/>
			<point x="-130" y="-126"/>
			<point x="-156" y="-149"/>
			<point x="-164" y="-177" type="curve"/>
			<point x="-151" y="-222"/>
			<point x="-108" y="-244"/>
			<point x="-61" y="-244" type="curve" smooth="yes"/>
			<point x="-12" y="-244"/>
			<point x="29" y="-228"/>
			<point x="66" y="-197" type="curve" smooth="yes"/>
			<point x="128" y="-148"/>
			<point x="170" y="-78"/>
			<point x="188" y="26" type="curve" smooth="yes"/>
			<point x="270" y="504" type="line" smooth="yes"/>
			<point x="293" y="634"/>
			<point x="317" y="674"/>
			<point x="364" y="703" type="curve" smooth="yes"/>
			<point x="376" y="709"/>
			<point x="396" y="717"/>
			<point x="411" y="718" type="curve"/>
			<point x="367" y="719" type="line"/>
			<point x="400" y="670" type="line" smooth="yes"/>
			<point x="425" y="631"/>
			<point x="444" y="618"/>
			<point x="474" y="618" type="curve" smooth="yes"/>
			<point x="504" y="618"/>
			<point x="525" y="641"/>
			<point x="530" y="667" type="curve"/>
			<point x="515" y="716"/>
			<point x="480" y="744"/>
		</contour>
		<contour>
			<point x="59" y="426" type="line"/>
			<point x="192" y="426" type="line"/>
			<point x="481" y="421" type="line"/>
			<point x="490" y="479" type="line"/>
			<point x="197" y="479" type="line"/>
			<point x="197" y="483" type="line"/>
			<point x="68" y="470" type="line"/>
		</contour>
		<contour>
			<point x="343" y="46" type="curve" smooth="yes"/>
			<point x="343" y="5"/>
			<point x="370" y="-15"/>
			<point x="409" y="-15" type="curve" smooth="yes"/>
			<point x="494" y="-15"/>
			<point x="555" y="55"/>
			<point x="597" y="124" type="curve"/>
			<point x="571" y="144" type="line"/>
			<point x="534" y="94"/>
			<point x="501" y="65"/>
			<point x="476" y="65" type="curve" smooth="yes"/>
			<point x="465" y="65"/>
			<point x="456" y="73"/>
			<point x="456" y="86" type="curve" smooth="yes"/>
			<point x="456" y="97"/>
			<point x="459" y="114"/>
			<point x="464" y="137" type="curve" smooth="yes"/>
			<point x="539" y="482" type="line"/>
			<point x="524" y="494" type="line"/>
			<point x="333" y="451" type="line"/>
			<point x="329" y="429" type="line"/>
			<point x="453" y="419" type="line"/>
			<point x="420" y="436" type="line"/>
			<point x="354" y="122" type="line" smooth="yes"/>
			<point x="347" y="86"/>
			<point x="343" y="67"/>
		</contour>
	</outline>
</glyph>
<glyph name="five.lf" format="1">
	<advance width="503"/>
	<outline>
		<contour>
			<point x="287" y="95" type="curve" smooth="yes"/>
			<point x="271" y="125"/>
			<point x="233" y="160"/>
			<point x="158" y="168" type="curve" smooth="yes"/>
			<point x="137" y="168"/>
			<point x="150" y="139"/>
			<point x="130" y="131" type="curve" smooth="yes"/>
			<point x="122" y="173" type="line"/>
			<point x="118" y="204"/>
			<point x="128" y="215"/>
			<point x="108" y="215" type="curve"/>
			<point x="98" y="215"/>
			<point x="113" y="302"/>
			<point x="107" y="289" type="curve"/>
			<point x="107" y="238"/>
			<point x="125" y="169"/>
			<point x="183" y="169" type="curve"/>
			<point x="268" y="169"/>
			<point x="473" y="226"/>
			<point x="473" y="319" type="curve"/>
			<point x="473" y="386"/>
			<point x="441" y="480"/>
			<point x="368" y="480" type="curve"/>
			<point x="340" y="480"/>
			<point x="180" y="473"/>
			<point x="158" y="466" type="curve"/>
			<point x="127" y="348" type="line"/>
			<point x="160" y="339" type="line"/>
			<point x="168" y="342"/>
			<point x="217" y="499"/>
			<point x="226" y="499" type="curve"/>
			<point x="248" y="499"/>
			<point x="243" y="454"/>
			<point x="243" y="428" type="curve" smooth="yes"/>
			<point x="243" y="389"/>
			<point x="400" y="373"/>
			<point x="376" y="373" type="curve" smooth="yes"/>
			<point x="362" y="373"/>
			<point x="368" y="426"/>
			<point x="361" y="429" type="curve" smooth="yes"/>
			<point x="187" y="414" type="line"/>
			<point x="134" y="260" type="line"/>
			<point x="132" y="286"/>
			<point x="140" y="288"/>
			<point x="125" y="288" type="curve" smooth="yes"/>
			<point x="132" y="293"/>
			<point x="140" y="292"/>
			<point x="165" y="282" type="curve" smooth="yes"/>
			<point x="207" y="242"/>
			<point x="258" y="188"/>
			<point x="305" y="130" type="curve"/>
			<point x="363" y="59"/>
			<point x="355" y="44"/>
		</contour>
	</outline>
</glyph>
<glyph name="five.osf" format="1">
	<advance width="495"/>
	<outline>
		<contour>
			<point x="3" y="-180" type="curve"/>
			<point x="14" y="-220" type="line"/>
			<point x="276" y="-153"/>
			<point x="403" y="-45"/>
			<point x="403" y="75" type="curve" smooth="yes"/>
			<point x="403" y="181"/>
			<point x="369" y="245"/>
			<point x="155" y="351" type="curve"/>
			<point x="177" y="424" type="line"/>
			<point x="436" y="424" type="line"/>
			<point x="494" y="576" type="line"/>
			<point x="461" y="587" type="line"/>
			<point x="425" y="523" type="line"/>
			<point x="168" y="523" type="line"/>
			<point x="86" y="256" type="line"/>
			<point x="258" y="167"/>
			<point x="295" y="100"/>
			<point x="295" y="47" type="curve" smooth="yes"/>
			<point x="295" y="-34"/>
			<point x="232" y="-107"/>
		</contour>
	</outline>
</glyph>
<glyph name="four.lf" format="1">
	<advance width="499"/>
	<outline>
		<contour>
			<point x="479" y="172" type="line"/>
			<point x="496" y="257" type="line"/>
			<point x="66" y="257" type="line"/>
			<point x="69" y="235" type="line"/>
			<point x="368" y="567" type="line"/>
			<point x="338" y="567" type="line"/>
			<point x="223" y="0" type="line"/>
			<point x="325" y="0" type="line"/>
			<point x="456" y="644" type="line"/>
			<point x="380" y="644" type="line"/>
			<point x="17" y="243" type="line"/>
			<point x="3" y="172" type="line"/>
		</contour>
		<contour>
			<point x="320" y="58" type="line"/>
			<point x="256" y="58" type="line"/>
			<point x="139" y="41" type="line"/>
			<point x="130" y="0" type="line"/>
			<point x="426" y="0" type="line"/>
			<point x="435" y="41" type="line"/>
		</contour>
	</outline>
</glyph>
<glyph name="four.osf" format="1">
	<advance width="599"/>
	<outline>
		<contour>
			<point x="-19" y="0" type="line"/>
			<point x="534" y="0" type="line"/>
			<point x="551" y="94" type="line"/>
			<point x="69" y="94" type="line"/>
			<point x="69" y="63" type="line"/>
			<point x="423" y="458" type="line"/>
			<point x="382" y="439" type="line"/>
			<point x="263" y="-183" type="line"/>
			<point x="365" y="-183" type="line"/>
			<point x="502" y="537" type="line"/>
			<point x="435" y="537" type="line"/>
			<point x="-8" y="47" type="line"/>
		</contour>
	</outline>
</glyph>
<glyph name="macroncmb.cap" format="1">
	<outline>
		<contour>
			<point x="-44" y="744" type="line"/>
			<point x="267" y="744" type="line"/>
			<point x="282" y="820" type="line"/>
			<point x="-29" y="820" type="line"/>
		</contour>
		<contour>
			<point name="_aboveUC" x="109" y="688" type="move"/>
		</contour>
	</outline>
</glyph>
<glyph name="nine.lf" format="1">
	<advance width="522"/>
	<outline>
		<contour>
			<point x="101" y="26" type="curve"/>
			<point x="112" y="-17" type="line"/>
			<point x="371" y="45"/>
			<point x="532" y="214"/>
			<point x="532" y="430" type="curve" smooth="yes"/>
			<point x="532" y="566"/>
			<point x="450" y="652"/>
			<point x="329" y="652" type="curve" smooth="yes"/>
			<point x="192" y="652"/>
			<point x="90" y="556"/>
			<point x="90" y="429" type="curve" smooth="yes"/>
			<point x="90" y="318"/>
			<point x="165" y="248"/>
			<point x="278" y="248" type="curve" smooth="yes"/>
			<point x="326" y="248"/>
			<point x="378" y="266"/>
			<point x="430" y="301" type="curve"/>
			<point x="428" y="333" type="line"/>
			<point x="386" y="312"/>
			<point x="353" y="302"/>
			<point x="319" y="302" type="curve" smooth="yes"/>
			<point x="244" y="302"/>
			<point x="196" y="353"/>
			<point x="196" y="437" type="curve" smooth="yes"/>
			<point x="196" y="531"/>
			<point x="249" y="607"/>
			<point x="317" y="607" type="curve" smooth="yes"/>
			<point x="381" y="607"/>
			<point x="422" y="555"/>
			<point x="422" y="452" type="curve" smooth="yes"/>
			<point x="422" y="243"/>
			<point x="321" y="106"/>
		</contour>
	</outline>
</glyph>
<glyph name="nine.osf" format="1">
	<advance width="573"/>
	<outline>
		<contour>
			<point x="32" y="-211" type="line"/>
			<point x="387" y="-158"/>
			<point x="555" y="58"/>
			<point x="555" y="297" type="curve" smooth="yes"/>
			<point x="555" y="445"/>
			<point x="465" y="536"/>
			<point x="338" y="536" type="curve" smooth="yes"/>
			<point x="181" y="536"/>
			<point x="73" y="412"/>
			<point x="73" y="266" type="curve" smooth="yes"/>
			<point x="73" y="149"/>
			<point x="159" y="65"/>
			<point x="283" y="65" type="curve" smooth="yes"/>
			<point x="309" y="65"/>
			<point x="326" y="68"/>
			<point x="344" y="72" type="curve"/>
			<point x="352" y="104" type="line"/>
			<point x="232" y="126"/>
			<point x="183" y="175"/>
			<point x="183" y="290" type="curve" smooth="yes"/>
			<point x="183" y="403"/>
			<point x="244" y="489"/>
			<point x="325" y="489" type="curve" smooth="yes"/>
			<point x="392" y="489"/>
			<point x="441" y="433"/>
			<point x="441" y="296" type="curve" smooth="yes"/>
			<point x="441" y="101"/>
			<point x="357" y="-88"/>
			<point x="23" y="-169" type="curve"/>
		</contour>
	</outline>
</glyph>
<glyph name="ogonekcmb" format="1">
	<outline>
		<contour>
			<point x="-126" y="-133" type="curve" smooth="yes"/>
			<point x="-126" y="-192"/>
			<point x="-78" y="-221"/>
			<point x="-15" y="-221" type="curve" smooth="yes"/>
			<point x="19" y="-221"/>
			<point x="44" y="-215"/>
			<point x="77" y="-199" type="curve"/>
			<point x="65" y="-139" type="line"/>
			<point x="41" y="-144"/>
			<point x="28" y="-146"/>
			<point x="12" y="-146" type="curve" smooth="yes"/>
			<point x="-29" y="-146"/>
			<point x="-56" y="-130"/>
			<point x="-56" y="-93" type="curve" smooth="yes"/>
			<point x="-56" y="-53"/>
			<point x="-27" y="-13"/>
			<point x="19" y="13" type="curve"/>
			<point x="-16" y="13" type="line"/>
			<point x="-79" y="-11"/>
			<point x="-126" y="-74"/>
		</contour>
	</outline>
</glyph>
<glyph name="one.lf" format="1">
	<advance width="395"/>
	<outline>
		<contour>
			<point x="19" y="0" type="line"/>
			<point x="326" y="0" type="line"/>
			<point x="334" y="41" type="line"/>
			<point x="195" y="61" type="line"/>
			<point x="171" y="61" type="line"/>
			<point x="27" y="41" type="line"/>
		</contour>
		<contour>
			<point x="114" y="0" type="line"/>
			<point x="224" y="0" type="line"/>
			<point x="234" y="66"/>
			<point x="254" y="170"/>
			<point x="268" y="247" type="curve" smooth="yes"/>
			<point x="307" y="456" type="line"/>
			<point x="343" y="647" type="line"/>
			<point x="331" y="657" type="line"/>
			<point x="118" y="603" type="line"/>
			<point x="111" y="561" type="line"/>
			<point x="228" y="573" type="line"/>
			<point x="223" y="590" type="line"/>
		</contour>
	</outline>
</glyph>
<glyph name="one.osf" format="1">
	<advance width="391"/>
	<outline>
		<contour>
			<point x="7" y="0" type="line"/>
			<point x="321" y="0" type="line"/>
			<point x="330" y="41" type="line"/>
			<point x="201" y="61" type="line"/>
			<point x="152" y="61" type="line"/>
			<point x="16" y="41" type="line"/>
		</contour>
		<contour>
			<point x="107" y="0" type="line"/>
			<point x="216" y="0" type="line"/>
			<point x="225" y="55"/>
			<point x="243" y="146"/>
			<point x="259" y="226" type="curve" smooth="yes"/>
			<point x="319" y="523" type="line"/>
			<point x="209" y="523" type="line"/>
			<point x="200" y="468"/>
			<point x="183" y="376"/>
			<point x="167" y="297" type="curve" smooth="yes"/>
		</contour>
		<contour>
			<point x="96" y="482" type="line"/>
			<point x="228" y="462" type="line"/>
			<point x="277" y="462" type="line"/>
			<point x="410" y="482" type="line"/>
			<point x="419" y="523" type="line"/>
			<point x="105" y="523" type="line"/>
		</contour>
	</outline>
</glyph>
<glyph name="one.sups" format="1">
	<advance width="371"/>
	<outline>
		<contour>
			<point x="201" y="784" type="line"/>
			<point x="193" y="746" type="line"/>
			<point x="268" y="753" type="line"/>
			<point x="201" y="419" type="line"/>
			<point x="290" y="419" type="line"/>
			<point x="370" y="813" type="line"/>
			<point x="362" y="820" type="line"/>
		</contour>
		<contour>
			<point x="294" y="466" type="line"/>
			<point x="214" y="466" type="line"/>
			<point x="122" y="449" type="line"/>
			<point x="116" y="419" type="line"/>
			<point x="370" y="419" type="line"/>
			<point x="376" y="449" type="line"/>
		</contour>
	</outline>
</glyph>
<glyph name="period.sups" format="1">
	<advance width="232"/>
	<outline>
		<contour>
			<point x="172" y="420" type="curve" smooth="yes"/>
			<point x="206" y="420"/>
			<point x="234" y="446"/>
			<point x="234" y="480" type="curve" smooth="yes"/>
			<point x="234" y="506"/>
			<point x="216" y="528"/>
			<point x="186" y="528" type="curve" smooth="yes"/>
			<point x="152" y="528"/>
			<point x="125" y="500"/>
			<point x="125" y="467" type="curve" smooth="yes"/>
			<point x="125" y="441"/>
			<point x="144" y="420"/>
		</contour>
	</outline>
</glyph>
<glyph name="seven.lf" format="1">
	<advance width="464"/>
	<outline>
		<contour>
			<point x="69" y="10" type="line"/>
			<point x="78" y="0" type="line"/>
			<point x="190" y="0" type="line"/>
			<point x="489" y="575" type="line"/>
			<point x="494" y="639" type="line"/>
			<point x="71" y="639" type="line"/>
			<point x="62" y="537" type="line"/>
			<point x="444" y="537" type="line"/>
			<point x="426" y="574" type="line"/>
		</contour>
	</outline>
</glyph>
<glyph name="seven.osf" format="1">
	<advance width="537"/>
	<outline>
		<contour>
			<point x="27" y="-175" type="line"/>
			<point x="80" y="-211" type="line"/>
			<point x="566" y="474" type="line"/>
			<point x="576" y="523" type="line"/>
			<point x="123" y="523" type="line"/>
			<point x="76" y="327" type="line"/>
			<point x="121" y="317" type="line"/>
			<point x="158" y="423" type="line"/>
			<point x="495" y="423" type="line"/>
			<point x="489" y="447" type="line"/>
		</contour>
	</outline>
</glyph>
<glyph name="six.lf" format="1">
	<advance width="504"/>
	<outline>
		<contour>
			<point x="248" y="-14" type="curve" smooth="yes"/>
			<point x="368" y="-14"/>
			<point x="492" y="62"/>
			<point x="492" y="222" type="curve" smooth="yes"/>
			<point x="492" y="321"/>
			<point x="433" y="393"/>
			<point x="324" y="393" type="curve" smooth="yes"/>
			<point x="267" y="393"/>
			<point x="210" y="378"/>
			<point x="132" y="341" type="curve"/>
			<point x="143" y="312" type="line"/>
			<point x="198" y="336"/>
			<point x="238" y="342"/>
			<point x="276" y="342" type="curve" smooth="yes"/>
			<point x="339" y="342"/>
			<point x="378" y="303"/>
			<point x="378" y="209" type="curve" smooth="yes"/>
			<point x="378" y="83"/>
			<point x="322" y="31"/>
			<point x="260" y="31" type="curve" smooth="yes"/>
			<point x="207" y="31"/>
			<point x="169" y="78"/>
			<point x="169" y="185" type="curve" smooth="yes"/>
			<point x="169" y="397"/>
			<point x="292" y="556"/>
			<point x="536" y="614" type="curve"/>
			<point x="531" y="657" type="line"/>
			<point x="259" y="623"/>
			<point x="54" y="418"/>
			<point x="54" y="194" type="curve" smooth="yes"/>
			<point x="54" y="70"/>
			<point x="118" y="-14"/>
		</contour>
	</outline>
</glyph>
<glyph name="six.osf" format="1">
	<advance width="550"/>
	<outline>
		<contour>
			<point x="240" y="-16" type="curve" smooth="yes"/>
			<point x="404" y="-16"/>
			<point x="516" y="105"/>
			<point x="516" y="240" type="curve" smooth="yes"/>
			<point x="516" y="347"/>
			<point x="447" y="419"/>
			<point x="351" y="419" type="curve" smooth="yes"/>
			<point x="305" y="419"/>
			<point x="263" y="397"/>
			<point x="236" y="370" type="curve"/>
			<point x="246" y="348" type="line"/>
			<point x="262" y="354"/>
			<point x="282" y="358"/>
			<point x="297" y="358" type="curve" smooth="yes"/>
			<point x="357" y="358"/>
			<point x="405" y="321"/>
			<point x="405" y="219" type="curve" smooth="yes"/>
			<point x="405" y="99"/>
			<point x="332" y="33"/>
			<point x="261" y="33" type="curve" smooth="yes"/>
			<point x="199" y="33"/>
			<point x="155" y="82"/>
			<point x="155" y="211" type="curve" smooth="yes"/>
			<point x="155" y="399"/>
			<point x="299" y="592"/>
			<point x="598" y="626" type="curve"/>
			<point x="595" y="664" type="line"/>
			<point x="215" y="650"/>
			<point x="38" y="399"/>
			<point x="38" y="189" type="curve" smooth="yes"/>
			<point x="38" y="54"/>
			<point x="121" y="-16"/>
		</contour>
	</outline>
</glyph>
<glyph name="three.lf" format="1">
	<advance width="515"/>
	<outline>
		<contour>
			<point x="213" y="-14" type="curve" smooth="yes"/>
			<point x="350" y="-14"/>
			<point x="465" y="67"/>
			<point x="465" y="187" type="curve" smooth="yes"/>
			<point x="465" y="268"/>
			<point x="407" y="320"/>
			<point x="302" y="334" type="curve"/>
			<point x="298" y="317" type="line"/>
			<point x="412" y="336"/>
			<point x="499" y="412"/>
			<point x="499" y="504" type="curve" smooth="yes"/>
			<point x="499" y="588"/>
			<point x="440" y="653"/>
			<point x="309" y="653" type="curve" smooth="yes"/>
			<point x="216" y="653"/>
			<point x="139" y="604"/>
			<point x="129" y="508" type="curve"/>
			<point x="136" y="491"/>
			<point x="154" y="480"/>
			<point x="175" y="480" type="curve" smooth="yes"/>
			<point x="206" y="480"/>
			<point x="229" y="503"/>
			<point x="235" y="547" type="curve" smooth="yes"/>
			<point x="247" y="627" type="line"/>
			<point x="209" y="594" type="line"/>
			<point x="240" y="604"/>
			<point x="266" y="608"/>
			<point x="288" y="608" type="curve" smooth="yes"/>
			<point x="341" y="608"/>
			<point x="388" y="576"/>
			<point x="388" y="497" type="curve" smooth="yes"/>
			<point x="388" y="395"/>
			<point x="321" y="350"/>
			<point x="245" y="350" type="curve" smooth="yes"/>
			<point x="212" y="350" type="line"/>
			<point x="201" y="300" type="line"/>
			<point x="233" y="300" type="line" smooth="yes"/>
			<point x="315" y="300"/>
			<point x="347" y="262"/>
			<point x="347" y="185" type="curve" smooth="yes"/>
			<point x="347" y="86"/>
			<point x="274" y="31"/>
			<point x="196" y="31" type="curve" smooth="yes"/>
			<point x="162" y="31"/>
			<point x="139" y="35"/>
			<point x="110" y="48" type="curve"/>
			<point x="157" y="5" type="line"/>
			<point x="147" y="87" type="line" smooth="yes"/>
			<point x="141" y="144"/>
			<point x="123" y="161"/>
			<point x="89" y="161" type="curve" smooth="yes"/>
			<point x="70" y="161"/>
			<point x="50" y="151"/>
			<point x="40" y="127" type="curve"/>
			<point x="40" y="36"/>
			<point x="104" y="-14"/>
		</contour>
	</outline>
</glyph>
<glyph name="three.osf" format="1">
	<advance width="466"/>
	<outline>
		<contour>
			<point x="143" y="161" type="line"/>
			<point x="226" y="151"/>
			<point x="279" y="116"/>
			<point x="279" y="39" type="curve" smooth="yes"/>
			<point x="279" y="-44"/>
			<point x="209" y="-122"/>
			<point x="-12" y="-178" type="curve"/>
			<point x="-4" y="-218" type="line"/>
			<point x="241" y="-173"/>
			<point x="393" y="-66"/>
			<point x="393" y="72" type="curve" smooth="yes"/>
			<point x="393" y="148"/>
			<point x="344" y="211"/>
			<point x="228" y="235" type="curve"/>
			<point x="222" y="203" type="line"/>
			<point x="348" y="254"/>
			<point x="418" y="331"/>
			<point x="418" y="412" type="curve" smooth="yes"/>
			<point x="418" y="490"/>
			<point x="363" y="539"/>
			<point x="272" y="539" type="curve" smooth="yes"/>
			<point x="183" y="539"/>
			<point x="119" y="495"/>
			<point x="70" y="408" type="curve"/>
			<point x="98" y="389" type="line"/>
			<point x="145" y="448"/>
			<point x="198" y="476"/>
			<point x="241" y="476" type="curve" smooth="yes"/>
			<point x="297" y="476"/>
			<point x="322" y="447"/>
			<point x="322" y="395" type="curve" smooth="yes"/>
			<point x="322" y="334"/>
			<point x="282" y="266"/>
			<point x="141" y="201" type="curve"/>
		</contour>
	</outline>
</glyph>
<glyph name="three.sups" format="1">
	<advance width="371"/>
	<outline>
		<contour>
			<point x="220" y="644" type="line"/>
			<point x="213" y="605" type="line"/>
			<point x="248" y="605" type="line" smooth="yes"/>
			<point x="293" y="605"/>
			<point x="318" y="581"/>
			<point x="318" y="530" type="curve" smooth="yes"/>
			<point x="318" y="474"/>
			<point x="281" y="444"/>
			<point x="227" y="444" type="curve" smooth="yes"/>
			<point x="202" y="444"/>
			<point x="186" y="450"/>
			<point x="166" y="460" type="curve"/>
			<point x="190" y="430" type="line"/>
			<point x="188" y="494" type="line" smooth="yes"/>
			<point x="187" y="534"/>
			<point x="175" y="544"/>
			<point x="152" y="544" type="curve" smooth="yes"/>
			<point x="139" y="544"/>
			<point x="122" y="534"/>
			<point x="115" y="515" type="curve"/>
			<point x="115" y="448"/>
			<point x="163" y="409"/>
			<point x="252" y="409" type="curve" smooth="yes"/>
			<point x="333" y="409"/>
			<point x="407" y="451"/>
			<point x="407" y="523" type="curve" smooth="yes"/>
			<point x="407" y="584"/>
			<point x="368" y="618"/>
			<point x="279" y="630" type="curve"/>
			<point x="282" y="621" type="line"/>
			<point x="372" y="630"/>
			<point x="422" y="671"/>
			<point x="422" y="727" type="curve" smooth="yes"/>
			<point x="422" y="779"/>
			<point x="377" y="821"/>
			<point x="296" y="821" type="curve" smooth="yes"/>
			<point x="229" y="821"/>
			<point x="172" y="796"/>
			<point x="155" y="735" type="curve"/>
			<point x="160" y="721"/>
			<point x="175" y="710"/>
			<point x="191" y="710" type="curve"/>
			<point x="210" y="710"/>
			<point x="229" y="719"/>
			<point x="239" y="749" type="curve" smooth="yes"/>
			<point x="260" y="805" type="line"/>
			<point x="223" y="782" type="line"/>
			<point x="245" y="786"/>
			<point x="262" y="788"/>
			<point x="282" y="788" type="curve" smooth="yes"/>
			<point x="315" y="788"/>
			<point x="338" y="767"/>
			<point x="338" y="722" type="curve" smooth="yes"/>
			<point x="338" y="667"/>
			<point x="301" y="644"/>
			<point x="250" y="644" type="curve" smooth="yes"/>
		</contour>
	</outline>
</glyph>
<glyph name="tildecmb.cap" format="1">
	<outline>
		<contour>
			<point x="-62" y="727" type="curve"/>
			<point x="-29" y="714" type="line"/>
			<point x="-6" y="764"/>
			<point x="19" y="784"/>
			<point x="51" y="784" type="curve" smooth="yes"/>
			<point x="79" y="784"/>
			<point x="97" y="762"/>
			<point x="116" y="744" type="curve" smooth="yes"/>
			<point x="135" y="729"/>
			<point x="157" y="713"/>
			<point x="193" y="713" type="curve" smooth="yes"/>
			<point x="256" y="713"/>
			<point x="295" y="754"/>
			<point x="323" y="847" type="curve"/>
			<point x="289" y="860" type="line"/>
			<point x="267" y="810"/>
			<point x="244" y="790"/>
			<point x="210" y="790" type="curve" smooth="yes"/>
			<point x="182" y="790"/>
			<point x="165" y="812"/>
			<point x="145" y="830" type="curve" smooth="yes"/>
			<point x="126" y="846"/>
			<point x="107" y="861"/>
			<point x="72" y="861" type="curve" smooth="yes"/>
			<point x="9" y="861"/>
			<point x="-35" y="820"/>
		</contour>
		<contour>
			<point name="_aboveUC" x="109" y="688" type="move"/>
		</contour>
	</outline>
</glyph>
<glyph name="two.lf" format="1">
	<advance width="519"/>
	<outline>
		<contour>
			<point x="29" y="0" type="line"/>
			<point x="436" y="0" type="line"/>
			<point x="457" y="99" type="line"/>
			<point x="102" y="99" type="line"/>
			<point x="111" y="83" type="line"/>
			<point x="145" y="106"/>
			<point x="181" y="129"/>
			<point x="215" y="152" type="curve" smooth="yes"/>
			<point x="400" y="279"/>
			<point x="497" y="377"/>
			<point x="497" y="497" type="curve" smooth="yes"/>
			<point x="497" y="580"/>
			<point x="451" y="653"/>
			<point x="317" y="653" type="curve" smooth="yes"/>
			<point x="209" y="653"/>
			<point x="128" y="597"/>
			<point x="118" y="503" type="curve"/>
			<point x="125" y="482"/>
			<point x="141" y="471"/>
			<point x="164" y="471" type="curve" smooth="yes"/>
			<point x="193" y="471"/>
			<point x="220" y="486"/>
			<point x="231" y="548" type="curve" smooth="yes"/>
			<point x="248" y="631" type="line"/>
			<point x="189" y="580" type="line"/>
			<point x="225" y="600"/>
			<point x="251" y="608"/>
			<point x="282" y="608" type="curve" smooth="yes"/>
			<point x="345" y="608"/>
			<point x="379" y="566"/>
			<point x="379" y="499" type="curve" smooth="yes"/>
			<point x="379" y="409"/>
			<point x="338" y="330"/>
			<point x="164" y="179" type="curve" smooth="yes"/>
			<point x="125" y="145"/>
			<point x="85" y="112"/>
			<point x="44" y="77" type="curve"/>
		</contour>
	</outline>
</glyph>
<glyph name="two.osf" format="1">
	<advance width="491"/>
	<outline>
		<contour>
			<point x="13" y="0" type="line"/>
			<point x="415" y="0" type="line"/>
			<point x="449" y="164" type="line"/>
			<point x="409" y="170" type="line"/>
			<point x="382" y="96" type="line"/>
			<point x="99" y="96" type="line"/>
			<point x="108" y="73" type="line"/>
			<point x="210" y="144" type="line" smooth="yes"/>
			<point x="372" y="256"/>
			<point x="440" y="315"/>
			<point x="440" y="404" type="curve" smooth="yes"/>
			<point x="440" y="490"/>
			<point x="385" y="537"/>
			<point x="291" y="537" type="curve" smooth="yes"/>
			<point x="195" y="537"/>
			<point x="138" y="487"/>
			<point x="79" y="402" type="curve"/>
			<point x="107" y="383" type="line"/>
			<point x="156" y="437"/>
			<point x="197" y="466"/>
			<point x="255" y="466" type="curve" smooth="yes"/>
			<point x="303" y="466"/>
			<point x="331" y="440"/>
			<point x="331" y="388" type="curve" smooth="yes"/>
			<point x="331" y="317"/>
			<point x="284" y="266"/>
			<point x="165" y="164" type="curve" smooth="yes"/>
			<point x="22" y="42" type="line"/>
		</contour>
	</outline>
</glyph>
<glyph name="two.sups" format="1">
	<advance width="371"/>
	<outline>
		<contour>
			<point x="112" y="419" type="line"/>
			<point x="380" y="419" type="line"/>
			<point x="396" y="496" type="line"/>
			<point x="174" y="496" type="line"/>
			<point x="171" y="474" type="line"/>
			<point x="246" y="525" type="line" smooth="yes"/>
			<point x="359" y="603"/>
			<point x="424" y="651"/>
			<point x="424" y="720" type="curve" smooth="yes"/>
			<point x="424" y="775"/>
			<point x="389" y="821"/>
			<point x="294" y="821" type="curve" smooth="yes"/>
			<point x="223" y="821"/>
			<point x="165" y="788"/>
			<point x="155" y="727" type="curve" smooth="yes"/>
			<point x="162" y="709"/>
			<point x="175" y="700"/>
			<point x="194" y="700" type="curve"/>
			<point x="211" y="700"/>
			<point x="228" y="710"/>
			<point x="240" y="745" type="curve" smooth="yes"/>
			<point x="262" y="807" type="line"/>
			<point x="211" y="781" type="line"/>
			<point x="231" y="787"/>
			<point x="249" y="788"/>
			<point x="265" y="788" type="curve" smooth="yes"/>
			<point x="311" y="788"/>
			<point x="339" y="769"/>
			<point x="339" y="718" type="curve" smooth="yes"/>
			<point x="339" y="661"/>
			<point x="288" y="614"/>
			<point x="215" y="552" type="curve" smooth="yes"/>
			<point x="124" y="475" type="line" smooth="yes"/>
		</contour>
	</outline>
</glyph>
<glyph name="zero.lf" format="1">
	<advance width="530"/>
	<outline>
		<contour>
			<point x="238" y="-14" type="curve" smooth="yes"/>
			<point x="423" y="-14"/>
			<point x="532" y="222"/>
			<point x="532" y="435" type="curve" smooth="yes"/>
			<point x="532" y="582"/>
			<point x="453" y="653"/>
			<point x="355" y="653" type="curve" smooth="yes"/>
			<point x="177" y="653"/>
			<point x="57" y="439"/>
			<point x="57" y="216" type="curve" smooth="yes"/>
			<point x="57" y="64"/>
			<point x="127" y="-14"/>
		</contour>
		<contour>
			<point x="244" y="31" type="curve" smooth="yes"/>
			<point x="201" y="31"/>
			<point x="167" y="66"/>
			<point x="167" y="185" type="curve" smooth="yes"/>
			<point x="167" y="344"/>
			<point x="228" y="608"/>
			<point x="345" y="608" type="curve" smooth="yes"/>
			<point x="387" y="608"/>
			<point x="423" y="577"/>
			<point x="423" y="466" type="curve" smooth="yes"/>
			<point x="423" y="307"/>
			<point x="364" y="31"/>
		</contour>
	</outline>
</glyph>
<glyph name="zero.lfslash" format="1">
	<advance width="535"/>
	<outline>
		<contour>
			<point x="50" y="63" type="line"/>
			<point x="79" y="48" type="line"/>
			<point x="501" y="588" type="line"/>
			<point x="472" y="603" type="line"/>
		</contour>
		<component base="zero.lf"/>
	</outline>
</glyph>
<glyph name="zero.osf" format="1">
	<advance width="608"/>
	<outline>
		<contour>
			<point x="291" y="-14" type="curve" smooth="yes"/>
			<point x="466" y="-14"/>
			<point x="585" y="125"/>
			<point x="585" y="302" type="curve" smooth="yes"/>
			<point x="585" y="446"/>
			<point x="497" y="537"/>
			<point x="361" y="537" type="curve" smooth="yes"/>
			<point x="182" y="537"/>
			<point x="65" y="378"/>
			<point x="65" y="218" type="curve" smooth="yes"/>
			<point x="65" y="71"/>
			<point x="162" y="-14"/>
		</contour>
		<contour>
			<point x="304" y="43" type="curve" smooth="yes"/>
			<point x="232" y="43"/>
			<point x="176" y="98"/>
			<point x="176" y="205" type="curve" smooth="yes"/>
			<point x="176" y="344"/>
			<point x="245" y="479"/>
			<point x="352" y="479" type="curve" smooth="yes"/>
			<point x="424" y="479"/>
			<point x="475" y="422"/>
			<point x="475" y="318" type="curve" smooth="yes"/>
			<point x="475" y="161"/>
			<point x="402" y="43"/>
		</contour>
	</outline>
</glyph>
<glyph name="zero.slash" format="1">
	<advance width="523"/>
	<outline>
		<contour>
			<point x="51" y="63" type="line"/>
			<point x="80" y="48" type="line"/>
			<point x="501" y="588" type="line"/>
			<point x="472" y="603" type="line"/>
		</contour>
		<component base="zero"/>
	</outline>
</glyph>
<glyph name="zero.sups" format="1">
	<advance width="371"/>
	<outline>
		<contour>
			<point x="237" y="409" type="curve" smooth="yes"/>
			<point x="357" y="409"/>
			<point x="429" y="546"/>
			<point x="429" y="687" type="curve" smooth="yes"/>
			<point x="429" y="777"/>
			<point x="377" y="821"/>
			<point x="313" y="821" type="curve" smooth="yes"/>
			<point x="197" y="821"/>
			<point x="115" y="699"/>
			<point x="115" y="551" type="curve" smooth="yes"/>
			<point x="115" y="458"/>
			<point x="163" y="409"/>
		</contour>
		<contour>
			<point x="242" y="443" type="curve" smooth="yes"/>
			<point x="219" y="443"/>
			<point x="202" y="463"/>
			<point x="202" y="533" type="curve" smooth="yes"/>
			<point x="202" y="628"/>
			<point x="235" y="787"/>
			<point x="304" y="787" type="curve" smooth="yes"/>
			<point x="325" y="787"/>
			<point x="343" y="770"/>
			<point x="343" y="706" type="curve" smooth="yes"/>
			<point x="343" y="609"/>
			<point x="311" y="443"/>
		</contour>
	</outline>
</glyph>
